<svg width="45" height="45" viewBox="0 0 45 45" fill="none" xmlns="http://www.w3.org/2000/svg">
<rect x="0.666016" y="0.455566" width="44" height="44" rx="22" fill="#E35681"/>
<path d="M32.1971 17.7361L20.1971 29.7361C20.1274 29.8059 20.0447 29.8612 19.9536 29.8989C19.8626 29.9367 19.765 29.9561 19.6664 29.9561C19.5679 29.9561 19.4703 29.9367 19.3792 29.8989C19.2882 29.8612 19.2055 29.8059 19.1358 29.7361L13.8858 24.4861C13.7451 24.3454 13.666 24.1545 13.666 23.9555C13.666 23.7565 13.7451 23.5656 13.8858 23.4249C14.0265 23.2841 14.2174 23.2051 14.4164 23.2051C14.6155 23.2051 14.8063 23.2841 14.9471 23.4249L19.6664 28.1452L31.1358 16.6749C31.2765 16.5341 31.4674 16.4551 31.6664 16.4551C31.8655 16.4551 32.0563 16.5341 32.1971 16.6749C32.3378 16.8156 32.4169 17.0065 32.4169 17.2055C32.4169 17.4045 32.3378 17.5954 32.1971 17.7361Z" fill="white"/>
</svg>
