<svg width="20" height="20" viewBox="0 0 20 20" fill="none" xmlns="http://www.w3.org/2000/svg">
<rect width="20" height="20" rx="3.33333" fill="#DC2C62"/>
<path d="M16.2276 13.5162C16.5584 12.8301 16.7207 12.075 16.701 11.3136C16.6814 10.5522 16.4803 9.80648 16.1146 9.13838C15.7489 8.47028 15.229 7.89908 14.5982 7.47225C13.9673 7.04542 13.2438 6.77526 12.4876 6.68423C12.236 6.0992 11.8702 5.57027 11.4116 5.12839C10.953 4.68651 10.4108 4.34057 9.81688 4.11082C9.22293 3.88108 8.58911 3.77215 7.95253 3.79042C7.31596 3.80869 6.68943 3.95379 6.10963 4.21721C5.52983 4.48064 5.00842 4.8571 4.57592 5.32455C4.14343 5.792 3.80855 6.34105 3.5909 6.93953C3.37325 7.53802 3.27719 8.17392 3.30836 8.80999C3.33953 9.44607 3.4973 10.0695 3.77242 10.6439L3.33738 12.1225C3.28874 12.2876 3.28549 12.4627 3.32797 12.6295C3.37045 12.7962 3.45708 12.9485 3.57877 13.0702C3.70045 13.1919 3.85269 13.2785 4.01945 13.321C4.18621 13.3634 4.36134 13.3602 4.52641 13.3116L6.00507 12.8765C6.47986 13.1046 6.9889 13.2532 7.51185 13.3163C7.76592 13.9116 8.13807 14.4492 8.6058 14.8966C9.07352 15.344 9.62712 15.6919 10.2331 15.9193C10.8391 16.1467 11.4849 16.2488 12.1315 16.2195C12.7781 16.1902 13.412 16.0301 13.995 15.7489L15.4736 16.1839C15.6386 16.2325 15.8137 16.2357 15.9804 16.1933C16.1471 16.1508 16.2992 16.0642 16.4209 15.9426C16.5426 15.821 16.6292 15.6689 16.6718 15.5022C16.7143 15.3355 16.7112 15.1605 16.6626 14.9955L16.2276 13.5162ZM15.2552 13.6042L15.7447 15.2659L14.0835 14.777C13.9635 14.7423 13.8347 14.7558 13.7245 14.8147C12.8429 15.2855 11.8124 15.3933 10.8525 15.1151C9.89263 14.837 9.07934 14.195 8.58599 13.3259C9.24146 13.2575 9.87573 13.0544 10.449 12.7293C11.0223 12.4041 11.5222 11.9641 11.9173 11.4366C12.3125 10.9092 12.5944 10.3058 12.7453 9.6643C12.8963 9.02278 12.9131 8.35699 12.7946 7.70869C13.3657 7.84331 13.8982 8.10736 14.3511 8.48046C14.804 8.85355 15.165 9.32572 15.4065 9.86051C15.6479 10.3953 15.7632 10.9784 15.7435 11.5648C15.7238 12.1513 15.5697 12.7253 15.2929 13.2427C15.2333 13.3536 15.2198 13.4834 15.2552 13.6042Z" fill="white"/>
</svg>
