<svg width="20" height="20" viewBox="0 0 20 20" fill="none" xmlns="http://www.w3.org/2000/svg">
<rect width="20" height="20" rx="3.33333" fill="#FD9038"/>
<path d="M5.69133 8.08512V11.9149C5.69133 12.0419 5.6409 12.1636 5.55112 12.2534C5.46134 12.3432 5.33958 12.3936 5.21261 12.3936C5.08564 12.3936 4.96388 12.3432 4.8741 12.2534C4.78432 12.1636 4.73389 12.0419 4.73389 11.9149V8.08512C4.73389 7.95816 4.78432 7.83639 4.8741 7.74661C4.96388 7.65684 5.08564 7.6064 5.21261 7.6064C5.33958 7.6064 5.46134 7.65684 5.55112 7.74661C5.6409 7.83639 5.69133 7.95816 5.69133 8.08512ZM7.60623 3.77661C7.47926 3.77661 7.3575 3.82705 7.26772 3.91683C7.17794 4.0066 7.1275 4.12837 7.1275 4.25533V15.7447C7.1275 15.8717 7.17794 15.9934 7.26772 16.0832C7.3575 16.173 7.47926 16.2234 7.60623 16.2234C7.73319 16.2234 7.85496 16.173 7.94474 16.0832C8.03451 15.9934 8.08495 15.8717 8.08495 15.7447V4.25533C8.08495 4.12837 8.03451 4.0066 7.94474 3.91683C7.85496 3.82705 7.73319 3.77661 7.60623 3.77661ZM9.99984 5.6915C9.87288 5.6915 9.75111 5.74194 9.66134 5.83172C9.57156 5.9215 9.52112 6.04326 9.52112 6.17023V13.8298C9.52112 13.9568 9.57156 14.0785 9.66134 14.1683C9.75111 14.2581 9.87288 14.3085 9.99984 14.3085C10.1268 14.3085 10.2486 14.2581 10.3384 14.1683C10.4281 14.0785 10.4786 13.9568 10.4786 13.8298V6.17023C10.4786 6.04326 10.4281 5.9215 10.3384 5.83172C10.2486 5.74194 10.1268 5.6915 9.99984 5.6915ZM12.3935 7.6064C12.2665 7.6064 12.1447 7.65684 12.055 7.74661C11.9652 7.83639 11.9147 7.95816 11.9147 8.08512V11.9149C11.9147 12.0419 11.9652 12.1636 12.055 12.2534C12.1447 12.3432 12.2665 12.3936 12.3935 12.3936C12.5204 12.3936 12.6422 12.3432 12.732 12.2534C12.8217 12.1636 12.8722 12.0419 12.8722 11.9149V8.08512C12.8722 7.95816 12.8217 7.83639 12.732 7.74661C12.6422 7.65684 12.5204 7.6064 12.3935 7.6064ZM14.7871 6.64895C14.6601 6.64895 14.5383 6.69939 14.4486 6.78917C14.3588 6.87894 14.3084 7.00071 14.3084 7.12768V12.8724C14.3084 12.9993 14.3588 13.1211 14.4486 13.2109C14.5383 13.3006 14.6601 13.3511 14.7871 13.3511C14.914 13.3511 15.0358 13.3006 15.1256 13.2109C15.2154 13.1211 15.2658 12.9993 15.2658 12.8724V7.12768C15.2658 7.00071 15.2154 6.87894 15.1256 6.78917C15.0358 6.69939 14.914 6.64895 14.7871 6.64895Z" fill="white"/>
</svg>
