<svg width="64" height="65" viewBox="0 0 64 65" fill="none" xmlns="http://www.w3.org/2000/svg">
<g filter="url(#filter0_d_3071_11956)">
<rect x="8" y="6.63525" width="48" height="48" rx="8" fill="#FCEAEF" shape-rendering="crispEdges"/>
<path d="M40 22.6353V38.6353C40 38.9005 39.8946 39.1548 39.7071 39.3424C39.5196 39.5299 39.2652 39.6353 39 39.6353C38.7348 39.6353 38.4804 39.5299 38.2929 39.3424C38.1054 39.1548 38 38.9005 38 38.6353V22.6353C38 22.37 38.1054 22.1157 38.2929 21.9281C38.4804 21.7406 38.7348 21.6353 39 21.6353C39.2652 21.6353 39.5196 21.7406 39.7071 21.9281C39.8946 22.1157 40 22.37 40 22.6353ZM34 26.6353C33.7348 26.6353 33.4804 26.7406 33.2929 26.9281C33.1054 27.1157 33 27.37 33 27.6353V38.6353C33 38.9005 33.1054 39.1548 33.2929 39.3424C33.4804 39.5299 33.7348 39.6353 34 39.6353C34.2652 39.6353 34.5196 39.5299 34.7071 39.3424C34.8946 39.1548 35 38.9005 35 38.6353V27.6353C35 27.37 34.8946 27.1157 34.7071 26.9281C34.5196 26.7406 34.2652 26.6353 34 26.6353ZM29 31.6353C28.7348 31.6353 28.4804 31.7406 28.2929 31.9281C28.1054 32.1157 28 32.37 28 32.6353V38.6353C28 38.9005 28.1054 39.1548 28.2929 39.3424C28.4804 39.5299 28.7348 39.6353 29 39.6353C29.2652 39.6353 29.5196 39.5299 29.7071 39.3424C29.8946 39.1548 30 38.9005 30 38.6353V32.6353C30 32.37 29.8946 32.1157 29.7071 31.9281C29.5196 31.7406 29.2652 31.6353 29 31.6353ZM24 36.6353C23.7348 36.6353 23.4804 36.7406 23.2929 36.9281C23.1054 37.1157 23 37.37 23 37.6353V38.6353C23 38.9005 23.1054 39.1548 23.2929 39.3424C23.4804 39.5299 23.7348 39.6353 24 39.6353C24.2652 39.6353 24.5196 39.5299 24.7071 39.3424C24.8946 39.1548 25 38.9005 25 38.6353V37.6353C25 37.37 24.8946 37.1157 24.7071 36.9281C24.5196 36.7406 24.2652 36.6353 24 36.6353Z" fill="#C82859"/>
</g>
<defs>
<filter id="filter0_d_3071_11956" x="0" y="0.635254" width="64" height="64" filterUnits="userSpaceOnUse" color-interpolation-filters="sRGB">
<feFlood flood-opacity="0" result="BackgroundImageFix"/>
<feColorMatrix in="SourceAlpha" type="matrix" values="0 0 0 0 0 0 0 0 0 0 0 0 0 0 0 0 0 0 127 0" result="hardAlpha"/>
<feOffset dy="2"/>
<feGaussianBlur stdDeviation="4"/>
<feComposite in2="hardAlpha" operator="out"/>
<feColorMatrix type="matrix" values="0 0 0 0 0 0 0 0 0 0 0 0 0 0 0 0 0 0 0.08 0"/>
<feBlend mode="normal" in2="BackgroundImageFix" result="effect1_dropShadow_3071_11956"/>
<feBlend mode="normal" in="SourceGraphic" in2="effect1_dropShadow_3071_11956" result="shape"/>
</filter>
</defs>
</svg>
