<svg width="28" height="29" viewBox="0 0 28 29" fill="none" xmlns="http://www.w3.org/2000/svg">
<path d="M21.8755 7.63525V19.0103C21.8755 19.2423 21.7833 19.4649 21.6192 19.629C21.4551 19.7931 21.2326 19.8853 21.0005 19.8853C20.7684 19.8853 20.5459 19.7931 20.3818 19.629C20.2177 19.4649 20.1255 19.2423 20.1255 19.0103V9.74728L7.61955 22.2543C7.45536 22.4185 7.23268 22.5107 7.00049 22.5107C6.76829 22.5107 6.54561 22.4185 6.38142 22.2543C6.21724 22.0901 6.125 21.8674 6.125 21.6353C6.125 21.4031 6.21724 21.1804 6.38142 21.0162L18.8885 8.51025H9.62549C9.39342 8.51025 9.17086 8.41807 9.00677 8.25397C8.84267 8.08988 8.75049 7.86732 8.75049 7.63525C8.75049 7.40319 8.84267 7.18063 9.00677 7.01654C9.17086 6.85244 9.39342 6.76025 9.62549 6.76025H21.0005C21.2326 6.76025 21.4551 6.85244 21.6192 7.01654C21.7833 7.18063 21.8755 7.40319 21.8755 7.63525Z" fill="#C82859"/>
</svg>
