<svg width="25" height="24" viewBox="0 0 25 24" fill="none" xmlns="http://www.w3.org/2000/svg">
<path d="M14.6976 4.71945L21.4476 11.4694C21.5173 11.5391 21.5727 11.6218 21.6104 11.7129C21.6482 11.8039 21.6676 11.9015 21.6676 12.0001C21.6676 12.0986 21.6482 12.1962 21.6104 12.2873C21.5727 12.3783 21.5173 12.461 21.4476 12.5307L14.6976 19.2807C14.5569 19.4214 14.366 19.5005 14.167 19.5005C13.968 19.5005 13.7771 19.4214 13.6364 19.2807C13.4956 19.14 13.4166 18.9491 13.4166 18.7501C13.4166 18.551 13.4956 18.3602 13.6364 18.2194L19.1067 12.7501H4.41699C4.21808 12.7501 4.02731 12.6711 3.88666 12.5304C3.74601 12.3897 3.66699 12.199 3.66699 12.0001C3.66699 11.8012 3.74601 11.6104 3.88666 11.4697C4.02731 11.3291 4.21808 11.2501 4.41699 11.2501L19.1067 11.2501L13.6364 5.7807C13.4956 5.63997 13.4166 5.44909 13.4166 5.25007C13.4166 5.05105 13.4956 4.86018 13.6364 4.71945C13.7771 4.57872 13.968 4.49965 14.167 4.49965C14.366 4.49965 14.5569 4.57872 14.6976 4.71945Z" fill="#75797C"/>
</svg>
