<svg width="21" height="20" viewBox="0 0 21 20" fill="none" xmlns="http://www.w3.org/2000/svg">
<rect x="0.26001" width="20" height="20" rx="3.33333" fill="#976FF9"/>
<path d="M16.0047 5.21277H4.51534C4.38838 5.21277 4.26661 5.26321 4.17684 5.35298C4.08706 5.44276 4.03662 5.56453 4.03662 5.69149V13.8298C4.03662 14.0837 4.13749 14.3273 4.31705 14.5068C4.49661 14.6864 4.74014 14.7872 4.99407 14.7872H15.526C15.7799 14.7872 16.0234 14.6864 16.203 14.5068C16.3826 14.3273 16.4834 14.0837 16.4834 13.8298V5.69149C16.4834 5.56453 16.433 5.44276 16.3432 5.35298C16.2534 5.26321 16.1317 5.21277 16.0047 5.21277ZM4.99407 9.04256H7.38768V10.9574H4.99407V9.04256ZM8.34513 9.04256H15.526V10.9574H8.34513V9.04256ZM15.526 6.17022V8.08511H4.99407V6.17022H15.526ZM4.99407 11.9149H7.38768V13.8298H4.99407V11.9149ZM15.526 13.8298H8.34513V11.9149H15.526V13.8298Z" fill="white"/>
</svg>
