<svg width="20" height="20" viewBox="0 0 20 20" fill="none" xmlns="http://www.w3.org/2000/svg">
<rect width="20" height="20" rx="3.33333" fill="#5BB773"/>
<path d="M9.52112 5.69158V8.56392C9.52112 8.81785 9.42025 9.06138 9.24069 9.24094C9.06114 9.42049 8.81761 9.52137 8.56367 9.52137H5.69133C5.4374 9.52137 5.19387 9.42049 5.01432 9.24094C4.83476 9.06138 4.73389 8.81785 4.73389 8.56392V5.69158C4.73389 5.43765 4.83476 5.19412 5.01432 5.01456C5.19387 4.835 5.4374 4.73413 5.69133 4.73413H8.56367C8.81761 4.73413 9.06114 4.835 9.24069 5.01456C9.42025 5.19412 9.52112 5.43765 9.52112 5.69158ZM14.3084 4.73413H11.436C11.1821 4.73413 10.9386 4.835 10.759 5.01456C10.5794 5.19412 10.4786 5.43765 10.4786 5.69158V8.56392C10.4786 8.81785 10.5794 9.06138 10.759 9.24094C10.9386 9.42049 11.1821 9.52137 11.436 9.52137H14.3084C14.5623 9.52137 14.8058 9.42049 14.9854 9.24094C15.1649 9.06138 15.2658 8.81785 15.2658 8.56392V5.69158C15.2658 5.43765 15.1649 5.19412 14.9854 5.01456C14.8058 4.835 14.5623 4.73413 14.3084 4.73413ZM8.56367 10.4788H5.69133C5.4374 10.4788 5.19387 10.5797 5.01432 10.7592C4.83476 10.9388 4.73389 11.1823 4.73389 11.4363V14.3086C4.73389 14.5625 4.83476 14.8061 5.01432 14.9856C5.19387 15.1652 5.4374 15.266 5.69133 15.266H8.56367C8.81761 15.266 9.06114 15.1652 9.24069 14.9856C9.42025 14.8061 9.52112 14.5625 9.52112 14.3086V11.4363C9.52112 11.1823 9.42025 10.9388 9.24069 10.7592C9.06114 10.5797 8.81761 10.4788 8.56367 10.4788ZM14.3084 10.4788H11.436C11.1821 10.4788 10.9386 10.5797 10.759 10.7592C10.5794 10.9388 10.4786 11.1823 10.4786 11.4363V14.3086C10.4786 14.5625 10.5794 14.8061 10.759 14.9856C10.9386 15.1652 11.1821 15.266 11.436 15.266H14.3084C14.5623 15.266 14.8058 15.1652 14.9854 14.9856C15.1649 14.8061 15.2658 14.5625 15.2658 14.3086V11.4363C15.2658 11.1823 15.1649 10.9388 14.9854 10.7592C14.8058 10.5797 14.5623 10.4788 14.3084 10.4788Z" fill="white"/>
</svg>
