<svg width="14" height="14" viewBox="0 0 14 14" fill="none" xmlns="http://www.w3.org/2000/svg">
<path d="M1.3126 7C1.31376 5.95606 1.72897 4.95522 2.46715 4.21705C3.20532 3.47887 4.20617 3.06366 5.2501 3.0625H11.1941L10.6281 2.49703C10.546 2.41494 10.4999 2.3036 10.4999 2.1875C10.4999 2.0714 10.546 1.96006 10.6281 1.87797C10.7102 1.79588 10.8215 1.74976 10.9376 1.74976C11.0537 1.74976 11.165 1.79588 11.2471 1.87797L12.5596 3.19047C12.6003 3.2311 12.6326 3.27935 12.6546 3.33246C12.6766 3.38557 12.6879 3.4425 12.6879 3.5C12.6879 3.55749 12.6766 3.61442 12.6546 3.66754C12.6326 3.72065 12.6003 3.7689 12.5596 3.80953L11.2471 5.12203C11.165 5.20412 11.0537 5.25024 10.9376 5.25024C10.8215 5.25024 10.7102 5.20412 10.6281 5.12203C10.546 5.03994 10.4999 4.9286 10.4999 4.8125C10.4999 4.6964 10.546 4.58506 10.6281 4.50297L11.1941 3.9375H5.2501C4.43814 3.93837 3.65969 4.2613 3.08554 4.83544C2.5114 5.40959 2.18847 6.18804 2.1876 7C2.1876 7.11603 2.14151 7.22731 2.05946 7.30936C1.97741 7.39141 1.86613 7.4375 1.7501 7.4375C1.63407 7.4375 1.52279 7.39141 1.44074 7.30936C1.35869 7.22731 1.3126 7.11603 1.3126 7ZM12.2501 6.5625C12.1341 6.5625 12.0228 6.60859 11.9407 6.69064C11.8587 6.77269 11.8126 6.88397 11.8126 7C11.8117 7.81196 11.4888 8.59041 10.9147 9.16456C10.3405 9.7387 9.56206 10.0616 8.7501 10.0625H2.80612L3.37213 9.49703C3.41278 9.45638 3.44502 9.40813 3.46702 9.35502C3.48902 9.30191 3.50034 9.24498 3.50034 9.1875C3.50034 9.13001 3.48902 9.07309 3.46702 9.01998C3.44502 8.96687 3.41278 8.91862 3.37213 8.87797C3.33148 8.83732 3.28323 8.80508 3.23012 8.78308C3.17701 8.76108 3.12009 8.74976 3.0626 8.74976C3.00511 8.74976 2.94819 8.76108 2.89508 8.78308C2.84197 8.80508 2.79372 8.83732 2.75307 8.87797L1.44057 10.1905C1.39989 10.2311 1.36762 10.2794 1.34561 10.3325C1.32359 10.3856 1.31226 10.4425 1.31226 10.5C1.31226 10.5575 1.32359 10.6144 1.34561 10.6675C1.36762 10.7206 1.39989 10.7689 1.44057 10.8095L2.75307 12.122C2.79372 12.1627 2.84197 12.1949 2.89508 12.2169C2.94819 12.2389 3.00511 12.2502 3.0626 12.2502C3.12009 12.2502 3.17701 12.2389 3.23012 12.2169C3.28323 12.1949 3.33148 12.1627 3.37213 12.122C3.41278 12.0814 3.44502 12.0331 3.46702 11.98C3.48902 11.9269 3.50034 11.87 3.50034 11.8125C3.50034 11.755 3.48902 11.6981 3.46702 11.645C3.44502 11.5919 3.41278 11.5436 3.37213 11.503L2.80612 10.9375H8.7501C9.79403 10.9363 10.7949 10.5211 11.5331 9.78295C12.2712 9.04478 12.6864 8.04393 12.6876 7C12.6876 6.88397 12.6415 6.77269 12.5595 6.69064C12.4774 6.60859 12.3661 6.5625 12.2501 6.5625Z" fill="#5A5F63"/>
</svg>
