<svg width="80" height="81" viewBox="0 0 80 81" fill="none" xmlns="http://www.w3.org/2000/svg">
<rect y="0.688965" width="80" height="80" rx="40" fill="#FFF4EB"/>
<path d="M52.985 46.574C52.7621 48.2677 51.9303 49.8225 50.6449 50.9478C49.3595 52.0731 47.7084 52.692 46 52.689C36.075 52.689 28 44.614 28 34.689C27.9969 32.9806 28.6159 31.3295 29.7412 30.0441C30.8665 28.7587 32.4212 27.9268 34.115 27.704C34.5433 27.6517 34.9771 27.7393 35.3515 27.9538C35.7259 28.1682 36.0209 28.498 36.1925 28.894L38.8325 34.7877V34.8027C38.9639 35.1058 39.0181 35.4367 38.9904 35.7658C38.9627 36.0949 38.8539 36.4121 38.6738 36.689C38.6513 36.7227 38.6275 36.754 38.6025 36.7852L36 39.8702C36.9363 41.7727 38.9263 43.7452 40.8538 44.684L43.8963 42.0952C43.9261 42.0701 43.9574 42.0467 43.99 42.0252C44.2666 41.8407 44.5849 41.7281 44.916 41.6975C45.2471 41.667 45.5805 41.7194 45.8863 41.8502L45.9025 41.8577L51.7913 44.4965C52.1879 44.6674 52.5185 44.9622 52.7337 45.3367C52.9489 45.7111 53.037 46.1452 52.985 46.574Z" fill="#FD9038"/>
</svg>
