<svg width="21" height="20" viewBox="0 0 21 20" fill="none" xmlns="http://www.w3.org/2000/svg">
<rect x="0.26001" width="20" height="20" rx="3.33333" fill="#06A0C6"/>
<path d="M4.27595 10.0001C4.14898 10.0001 4.02722 9.94965 3.93744 9.85987C3.84766 9.7701 3.79722 9.64833 3.79722 9.52137C3.79722 9.3944 3.84766 9.27263 3.93744 9.18286C4.02722 9.09308 4.14898 9.04264 4.27595 9.04264H5.95148C6.07844 9.04264 6.20021 8.99221 6.28999 8.90243C6.37976 8.81265 6.4302 8.69088 6.4302 8.56392C6.4302 8.43695 6.37976 8.31519 6.28999 8.22541C6.20021 8.13563 6.07844 8.08519 5.95148 8.08519H4.99403C4.61314 8.08519 4.24784 7.93388 3.97851 7.66455C3.70917 7.39522 3.55786 7.02992 3.55786 6.64902C3.55786 6.26813 3.70917 5.90283 3.97851 5.6335C4.24784 5.36416 4.61314 5.21285 4.99403 5.21285C4.99403 5.08589 5.04447 4.96412 5.13425 4.87435C5.22402 4.78457 5.34579 4.73413 5.47275 4.73413C5.59972 4.73413 5.72149 4.78457 5.81126 4.87435C5.90104 4.96412 5.95148 5.08589 5.95148 5.21285H6.4302C6.55717 5.21285 6.67893 5.26329 6.76871 5.35307C6.85849 5.44285 6.90893 5.56461 6.90893 5.69158C6.90893 5.81854 6.85849 5.94031 6.76871 6.03009C6.67893 6.11986 6.55717 6.1703 6.4302 6.1703H4.99403C4.86707 6.1703 4.7453 6.22074 4.65552 6.31052C4.56574 6.40029 4.51531 6.52206 4.51531 6.64902C4.51531 6.77599 4.56574 6.89776 4.65552 6.98753C4.7453 7.07731 4.86707 7.12775 4.99403 7.12775H5.95148C6.33237 7.12775 6.69767 7.27906 6.967 7.54839C7.23634 7.81773 7.38765 8.18302 7.38765 8.56392C7.38765 8.94481 7.23634 9.31011 6.967 9.57944C6.69767 9.84878 6.33237 10.0001 5.95148 10.0001C5.95148 10.1271 5.90104 10.2488 5.81126 10.3386C5.72149 10.4284 5.59972 10.4788 5.47275 10.4788C5.34579 10.4788 5.22402 10.4284 5.13425 10.3386C5.04447 10.2488 4.99403 10.1271 4.99403 10.0001H4.27595ZM16.0047 5.21285H8.3451C8.21813 5.21285 8.09636 5.26329 8.00659 5.35307C7.91681 5.44285 7.86637 5.56461 7.86637 5.69158C7.86637 5.81854 7.91681 5.94031 8.00659 6.03009C8.09636 6.11986 8.21813 6.1703 8.3451 6.1703H15.5259V8.08519H8.82382C8.69685 8.08519 8.57509 8.13563 8.48531 8.22541C8.39553 8.31519 8.3451 8.43695 8.3451 8.56392C8.3451 8.69088 8.39553 8.81265 8.48531 8.90243C8.57509 8.99221 8.69685 9.04264 8.82382 9.04264H12.1749V10.9575H7.38765C7.26068 10.9575 7.13892 11.008 7.04914 11.0978C6.95936 11.1875 6.90893 11.3093 6.90893 11.4363C6.90893 11.5632 6.95936 11.685 7.04914 11.7748C7.13892 11.8645 7.26068 11.915 7.38765 11.915H12.1749V13.8299H4.99403V11.4363C4.99403 11.3093 4.94359 11.1875 4.85382 11.0978C4.76404 11.008 4.64227 10.9575 4.51531 10.9575C4.38834 10.9575 4.26658 11.008 4.1768 11.0978C4.08702 11.1875 4.03658 11.3093 4.03658 11.4363V13.8299C4.03658 14.0838 4.13746 14.3273 4.31701 14.5069C4.49657 14.6864 4.7401 14.7873 4.99403 14.7873H15.5259C15.7799 14.7873 16.0234 14.6864 16.203 14.5069C16.3825 14.3273 16.4834 14.0838 16.4834 13.8299V5.69158C16.4834 5.56461 16.433 5.44285 16.3432 5.35307C16.2534 5.26329 16.1316 5.21285 16.0047 5.21285Z" fill="white"/>
</svg>
