<svg width="90" height="23" viewBox="0 0 90 23" fill="none" xmlns="http://www.w3.org/2000/svg">
<path fill-rule="evenodd" clip-rule="evenodd" d="M0.70752 5.12852L10.3808 0.106445L20.158 5.12852L10.3808 10.1632L0.70752 5.12852ZM58.779 7.56717V7.44587C58.779 5.79329 59.7511 5.2633 61.3885 5.38069V2.35901C57.466 2.11988 55.6069 4.08506 55.6069 7.44587V7.56717H53.833V10.5893H55.6069V19.7369H58.779V10.5893H62.4289V19.7369H65.601V10.5893H68.2105V7.56717H65.601V7.44587C65.601 5.79329 66.5562 5.2633 68.2105 5.38069V2.35901C64.288 2.11988 62.4289 4.08506 62.4289 7.44587V7.56717H58.779ZM36.6068 10.8762C37.6129 10.0762 38.2268 8.93279 38.2268 7.46326C38.2268 4.61505 35.9073 2.6677 32.9908 2.6677H26.2196V19.7021H33.5364C36.5212 19.7021 38.9089 17.6891 38.9089 14.7718C38.875 13.011 37.9881 11.6627 36.6068 10.8762ZM33.0077 5.82416C34.0995 5.82416 34.8499 6.62806 34.8499 7.70238C34.8499 8.78019 34.0651 9.58017 33.0077 9.58017H29.6139V5.82416H33.0077ZM33.5195 16.5805H29.6139V12.5671H33.5195C34.6795 12.5671 35.5151 13.4192 35.5151 14.5627C35.5151 15.724 34.6795 16.5805 33.5195 16.5805ZM48.8013 7.54978V14.1196C48.8013 16.237 47.6418 17.1413 46.0897 17.1413C44.6566 17.1413 43.6506 16.2892 43.6506 14.6322V7.54978H40.478V15.024C40.478 18.2674 42.508 20.063 45.1345 20.063C46.7888 20.063 48.0679 19.4456 48.7844 18.3543V19.7195H51.9565V7.54978H48.8013ZM81.3603 14.9235H72.0826C72.5431 16.5283 73.873 17.2109 75.5278 17.2109C76.7725 17.2109 77.7621 16.6974 78.2908 15.9979L80.849 17.45C79.7064 19.1061 77.8643 20.063 75.4934 20.063C71.3661 20.063 68.7566 17.2631 68.7566 13.6284C68.7566 9.98929 71.3831 7.18891 75.2547 7.18891C78.8877 7.18891 81.4803 10.0415 81.4803 13.6284C81.4803 14.1023 81.429 14.5153 81.3603 14.9235ZM75.2547 10.0415C73.5496 10.0415 72.3891 10.9458 72.0309 12.4975H78.3077C77.9151 10.7415 76.5851 10.0415 75.2547 10.0415ZM86.068 9.64974V7.54978H82.8959V19.7195H86.068V13.8979C86.068 11.3367 88.1493 10.6067 89.8031 10.8106V7.31109C88.2514 7.31109 86.6993 7.99368 86.068 9.64974ZM10.3808 18.7761L3.78137 15.1892L0.70752 16.8544L10.3808 22.1064L20.158 16.8544L17.0494 15.1892L10.3808 18.7761ZM3.78137 9.53278L10.3808 12.7845L17.0494 9.53278L20.158 11.0501L10.3808 15.8196L0.70752 11.0501L3.78137 9.53278Z" fill="#5A5F63"/>
</svg>
