<svg width="44" height="45" viewBox="0 0 44 45" fill="none" xmlns="http://www.w3.org/2000/svg">
<rect y="0.850098" width="44" height="44" rx="8" fill="#F5F1FE"/>
<path d="M17.5 22.1001H26.5C26.6989 22.1001 26.8897 22.0211 27.0303 21.8804C27.171 21.7398 27.25 21.549 27.25 21.3501V16.8501C27.25 16.6512 27.171 16.4604 27.0303 16.3198C26.8897 16.1791 26.6989 16.1001 26.5 16.1001H17.5C17.3011 16.1001 17.1103 16.1791 16.9697 16.3198C16.829 16.4604 16.75 16.6512 16.75 16.8501V21.3501C16.75 21.549 16.829 21.7398 16.9697 21.8804C17.1103 22.0211 17.3011 22.1001 17.5 22.1001ZM18.25 17.6001H25.75V20.6001H18.25V17.6001ZM28.75 13.1001H15.25C14.8522 13.1001 14.4706 13.2581 14.1893 13.5394C13.908 13.8207 13.75 14.2023 13.75 14.6001V31.1001C13.75 31.4979 13.908 31.8795 14.1893 32.1608C14.4706 32.4421 14.8522 32.6001 15.25 32.6001H28.75C29.1478 32.6001 29.5294 32.4421 29.8107 32.1608C30.092 31.8795 30.25 31.4979 30.25 31.1001V14.6001C30.25 14.2023 30.092 13.8207 29.8107 13.5394C29.5294 13.2581 29.1478 13.1001 28.75 13.1001ZM28.75 31.1001H15.25V14.6001H28.75V31.1001ZM19.375 24.7251C19.375 24.9476 19.309 25.1651 19.1854 25.3501C19.0618 25.5351 18.8861 25.6793 18.6805 25.7645C18.475 25.8496 18.2488 25.8719 18.0305 25.8285C17.8123 25.7851 17.6118 25.6779 17.4545 25.5206C17.2972 25.3633 17.19 25.1628 17.1466 24.9446C17.1032 24.7263 17.1255 24.5001 17.2106 24.2946C17.2958 24.089 17.44 23.9133 17.625 23.7897C17.81 23.6661 18.0275 23.6001 18.25 23.6001C18.5484 23.6001 18.8345 23.7186 19.0455 23.9296C19.2565 24.1406 19.375 24.4267 19.375 24.7251ZM23.125 24.7251C23.125 24.9476 23.059 25.1651 22.9354 25.3501C22.8118 25.5351 22.6361 25.6793 22.4305 25.7645C22.225 25.8496 21.9988 25.8719 21.7805 25.8285C21.5623 25.7851 21.3618 25.6779 21.2045 25.5206C21.0472 25.3633 20.94 25.1628 20.8966 24.9446C20.8532 24.7263 20.8755 24.5001 20.9606 24.2946C21.0458 24.089 21.19 23.9133 21.375 23.7897C21.56 23.6661 21.7775 23.6001 22 23.6001C22.2984 23.6001 22.5845 23.7186 22.7955 23.9296C23.0065 24.1406 23.125 24.4267 23.125 24.7251ZM26.875 24.7251C26.875 24.9476 26.809 25.1651 26.6854 25.3501C26.5618 25.5351 26.3861 25.6793 26.1805 25.7645C25.975 25.8496 25.7488 25.8719 25.5305 25.8285C25.3123 25.7851 25.1118 25.6779 24.9545 25.5206C24.7972 25.3633 24.69 25.1628 24.6466 24.9446C24.6032 24.7263 24.6255 24.5001 24.7106 24.2946C24.7958 24.089 24.94 23.9133 25.125 23.7897C25.31 23.6661 25.5275 23.6001 25.75 23.6001C26.0484 23.6001 26.3345 23.7186 26.5455 23.9296C26.7565 24.1406 26.875 24.4267 26.875 24.7251ZM19.375 28.4751C19.375 28.6976 19.309 28.9151 19.1854 29.1001C19.0618 29.2851 18.8861 29.4293 18.6805 29.5145C18.475 29.5996 18.2488 29.6219 18.0305 29.5785C17.8123 29.5351 17.6118 29.4279 17.4545 29.2706C17.2972 29.1133 17.19 28.9128 17.1466 28.6946C17.1032 28.4763 17.1255 28.2501 17.2106 28.0446C17.2958 27.839 17.44 27.6633 17.625 27.5397C17.81 27.4161 18.0275 27.3501 18.25 27.3501C18.5484 27.3501 18.8345 27.4686 19.0455 27.6796C19.2565 27.8906 19.375 28.1767 19.375 28.4751ZM23.125 28.4751C23.125 28.6976 23.059 28.9151 22.9354 29.1001C22.8118 29.2851 22.6361 29.4293 22.4305 29.5145C22.225 29.5996 21.9988 29.6219 21.7805 29.5785C21.5623 29.5351 21.3618 29.4279 21.2045 29.2706C21.0472 29.1133 20.94 28.9128 20.8966 28.6946C20.8532 28.4763 20.8755 28.2501 20.9606 28.0446C21.0458 27.839 21.19 27.6633 21.375 27.5397C21.56 27.4161 21.7775 27.3501 22 27.3501C22.2984 27.3501 22.5845 27.4686 22.7955 27.6796C23.0065 27.8906 23.125 28.1767 23.125 28.4751ZM26.875 28.4751C26.875 28.6976 26.809 28.9151 26.6854 29.1001C26.5618 29.2851 26.3861 29.4293 26.1805 29.5145C25.975 29.5996 25.7488 29.6219 25.5305 29.5785C25.3123 29.5351 25.1118 29.4279 24.9545 29.2706C24.7972 29.1133 24.69 28.9128 24.6466 28.6946C24.6032 28.4763 24.6255 28.2501 24.7106 28.0446C24.7958 27.839 24.94 27.6633 25.125 27.5397C25.31 27.4161 25.5275 27.3501 25.75 27.3501C26.0484 27.3501 26.3345 27.4686 26.5455 27.6796C26.7565 27.8906 26.875 28.1767 26.875 28.4751Z" fill="#976FF9"/>
</svg>
