<svg width="32" height="33" viewBox="0 0 32 33" fill="none" xmlns="http://www.w3.org/2000/svg">
<path d="M26 4.68896H23V3.68896C23 3.42375 22.8946 3.16939 22.7071 2.98186C22.5196 2.79432 22.2652 2.68896 22 2.68896C21.7348 2.68896 21.4804 2.79432 21.2929 2.98186C21.1054 3.16939 21 3.42375 21 3.68896V4.68896H11V3.68896C11 3.42375 10.8946 3.16939 10.7071 2.98186C10.5196 2.79432 10.2652 2.68896 10 2.68896C9.73478 2.68896 9.48043 2.79432 9.29289 2.98186C9.10536 3.16939 9 3.42375 9 3.68896V4.68896H6C5.46957 4.68896 4.96086 4.89968 4.58579 5.27475C4.21071 5.64982 4 6.15853 4 6.68896V26.689C4 27.2194 4.21071 27.7281 4.58579 28.1032C4.96086 28.4783 5.46957 28.689 6 28.689H26C26.5304 28.689 27.0391 28.4783 27.4142 28.1032C27.7893 27.7281 28 27.2194 28 26.689V6.68896C28 6.15853 27.7893 5.64982 27.4142 5.27475C27.0391 4.89968 26.5304 4.68896 26 4.68896ZM9 6.68896V7.68896C9 7.95418 9.10536 8.20854 9.29289 8.39607C9.48043 8.58361 9.73478 8.68896 10 8.68896C10.2652 8.68896 10.5196 8.58361 10.7071 8.39607C10.8946 8.20854 11 7.95418 11 7.68896V6.68896H21V7.68896C21 7.95418 21.1054 8.20854 21.2929 8.39607C21.4804 8.58361 21.7348 8.68896 22 8.68896C22.2652 8.68896 22.5196 8.58361 22.7071 8.39607C22.8946 8.20854 23 7.95418 23 7.68896V6.68896H26V10.689H6V6.68896H9ZM26 26.689H6V12.689H26V26.689ZM21.2075 15.9815C21.3005 16.0743 21.3742 16.1846 21.4246 16.306C21.4749 16.4274 21.5008 16.5575 21.5008 16.689C21.5008 16.8204 21.4749 16.9505 21.4246 17.0719C21.3742 17.1933 21.3005 17.3036 21.2075 17.3965L15.2075 23.3965C15.1146 23.4894 15.0043 23.5632 14.8829 23.6135C14.7615 23.6638 14.6314 23.6898 14.5 23.6898C14.3686 23.6898 14.2385 23.6638 14.1171 23.6135C13.9957 23.5632 13.8854 23.4894 13.7925 23.3965L10.7925 20.3965C10.6049 20.2088 10.4994 19.9543 10.4994 19.689C10.4994 19.4236 10.6049 19.1691 10.7925 18.9815C10.9801 18.7938 11.2346 18.6884 11.5 18.6884C11.7654 18.6884 12.0199 18.7938 12.2075 18.9815L14.5 21.2752L19.7925 15.9815C19.8854 15.8885 19.9957 15.8147 20.1171 15.7644C20.2385 15.7141 20.3686 15.6882 20.5 15.6882C20.6314 15.6882 20.7615 15.7141 20.8829 15.7644C21.0043 15.8147 21.1146 15.8885 21.2075 15.9815Z" fill="#C82859"/>
</svg>
