<svg width="16" height="16" viewBox="0 0 16 16" fill="none" xmlns="http://www.w3.org/2000/svg">
<path d="M12.2934 2.28534H10.9116V1.82474C10.9116 1.70258 10.8631 1.58542 10.7767 1.49904C10.6903 1.41266 10.5732 1.36414 10.451 1.36414C10.3289 1.36414 10.2117 1.41266 10.1253 1.49904C10.0389 1.58542 9.99042 1.70258 9.99042 1.82474V2.28534H5.38438V1.82474C5.38438 1.70258 5.33586 1.58542 5.24948 1.49904C5.1631 1.41266 5.04594 1.36414 4.92378 1.36414C4.80162 1.36414 4.68446 1.41266 4.59808 1.49904C4.5117 1.58542 4.46318 1.70258 4.46318 1.82474V2.28534H3.08136C2.83704 2.28534 2.60273 2.3824 2.42997 2.55516C2.25721 2.72792 2.16016 2.96223 2.16016 3.20655V12.4186C2.16016 12.6629 2.25721 12.8973 2.42997 13.07C2.60273 13.2428 2.83704 13.3398 3.08136 13.3398H12.2934C12.5378 13.3398 12.7721 13.2428 12.9448 13.07C13.1176 12.8973 13.2146 12.6629 13.2146 12.4186V3.20655C13.2146 2.96223 13.1176 2.72792 12.9448 2.55516C12.7721 2.3824 12.5378 2.28534 12.2934 2.28534ZM4.46318 3.20655V3.66715C4.46318 3.78931 4.5117 3.90647 4.59808 3.99285C4.68446 4.07923 4.80162 4.12776 4.92378 4.12776C5.04594 4.12776 5.1631 4.07923 5.24948 3.99285C5.33586 3.90647 5.38438 3.78931 5.38438 3.66715V3.20655H9.99042V3.66715C9.99042 3.78931 10.0389 3.90647 10.1253 3.99285C10.2117 4.07923 10.3289 4.12776 10.451 4.12776C10.5732 4.12776 10.6903 4.07923 10.7767 3.99285C10.8631 3.90647 10.9116 3.78931 10.9116 3.66715V3.20655H12.2934V5.04897H3.08136V3.20655H4.46318ZM12.2934 12.4186H3.08136V5.97017H12.2934V12.4186ZM8.37831 8.04289C8.37831 8.17954 8.33779 8.31312 8.26187 8.42674C8.18595 8.54036 8.07805 8.62891 7.9518 8.6812C7.82555 8.7335 7.68664 8.74718 7.55261 8.72052C7.41859 8.69386 7.29548 8.62806 7.19886 8.53143C7.10223 8.43481 7.03643 8.3117 7.00977 8.17768C6.98311 8.04366 6.9968 7.90474 7.04909 7.77849C7.10138 7.65225 7.18994 7.54434 7.30356 7.46842C7.41717 7.39251 7.55075 7.35198 7.6874 7.35198C7.87064 7.35198 8.04638 7.42478 8.17595 7.55435C8.30552 7.68392 8.37831 7.85965 8.37831 8.04289ZM10.9116 8.04289C10.9116 8.17954 10.8711 8.31312 10.7952 8.42674C10.7193 8.54036 10.6114 8.62891 10.4851 8.6812C10.3589 8.7335 10.22 8.74718 10.0859 8.72052C9.95191 8.69386 9.8288 8.62806 9.73218 8.53143C9.63555 8.43481 9.56975 8.3117 9.54309 8.17768C9.51643 8.04366 9.53012 7.90474 9.58241 7.77849C9.6347 7.65225 9.72326 7.54434 9.83688 7.46842C9.9505 7.39251 10.0841 7.35198 10.2207 7.35198C10.404 7.35198 10.5797 7.42478 10.7093 7.55435C10.8388 7.68392 10.9116 7.85965 10.9116 8.04289ZM5.84499 10.3459C5.84499 10.4826 5.80447 10.6161 5.72855 10.7298C5.65263 10.8434 5.54473 10.9319 5.41848 10.9842C5.29223 11.0365 5.15331 11.0502 5.01929 11.0235C4.88527 10.9969 4.76216 10.9311 4.66554 10.8345C4.56891 10.7378 4.50311 10.6147 4.47645 10.4807C4.44979 10.3467 4.46347 10.2078 4.51577 10.0815C4.56806 9.95527 4.65662 9.84736 4.77023 9.77144C4.88385 9.69552 5.01743 9.655 5.15408 9.655C5.33732 9.655 5.51306 9.7278 5.64263 9.85737C5.7722 9.98694 5.84499 10.1627 5.84499 10.3459ZM8.37831 10.3459C8.37831 10.4826 8.33779 10.6161 8.26187 10.7298C8.18595 10.8434 8.07805 10.9319 7.9518 10.9842C7.82555 11.0365 7.68664 11.0502 7.55261 11.0235C7.41859 10.9969 7.29548 10.9311 7.19886 10.8345C7.10223 10.7378 7.03643 10.6147 7.00977 10.4807C6.98311 10.3467 6.9968 10.2078 7.04909 10.0815C7.10138 9.95527 7.18994 9.84736 7.30356 9.77144C7.41717 9.69552 7.55075 9.655 7.6874 9.655C7.87064 9.655 8.04638 9.7278 8.17595 9.85737C8.30552 9.98694 8.37831 10.1627 8.37831 10.3459ZM10.9116 10.3459C10.9116 10.4826 10.8711 10.6161 10.7952 10.7298C10.7193 10.8434 10.6114 10.9319 10.4851 10.9842C10.3589 11.0365 10.22 11.0502 10.0859 11.0235C9.95191 10.9969 9.8288 10.9311 9.73218 10.8345C9.63555 10.7378 9.56975 10.6147 9.54309 10.4807C9.51643 10.3467 9.53012 10.2078 9.58241 10.0815C9.6347 9.95527 9.72326 9.84736 9.83688 9.77144C9.9505 9.69552 10.0841 9.655 10.2207 9.655C10.404 9.655 10.5797 9.7278 10.7093 9.85737C10.8388 9.98694 10.9116 10.1627 10.9116 10.3459Z" fill="#C82859"/>
</svg>
