<svg width="27" height="28" viewBox="0 0 27 28" fill="none" xmlns="http://www.w3.org/2000/svg">
<path d="M21.4711 4.04204H18.9989V3.21798C18.9989 2.99943 18.9121 2.78982 18.7576 2.63528C18.603 2.48074 18.3934 2.39392 18.1749 2.39392C17.9563 2.39392 17.7467 2.48074 17.5922 2.63528C17.4376 2.78982 17.3508 2.99943 17.3508 3.21798V4.04204H9.11022V3.21798C9.11022 2.99943 9.0234 2.78982 8.86886 2.63528C8.71431 2.48074 8.50471 2.39392 8.28616 2.39392C8.0676 2.39392 7.858 2.48074 7.70346 2.63528C7.54892 2.78982 7.4621 2.99943 7.4621 3.21798V4.04204H4.98992C4.55281 4.04204 4.1336 4.21568 3.82452 4.52476C3.51544 4.83385 3.3418 5.25305 3.3418 5.69016V22.1714C3.3418 22.6085 3.51544 23.0277 3.82452 23.3368C4.1336 23.6458 4.55281 23.8195 4.98992 23.8195H21.4711C21.9082 23.8195 22.3274 23.6458 22.6365 23.3368C22.9456 23.0277 23.1192 22.6085 23.1192 22.1714V5.69016C23.1192 5.25305 22.9456 4.83385 22.6365 4.52476C22.3274 4.21568 21.9082 4.04204 21.4711 4.04204ZM7.4621 5.69016V6.51422C7.4621 6.73278 7.54892 6.94238 7.70346 7.09692C7.858 7.25146 8.0676 7.33828 8.28616 7.33828C8.50471 7.33828 8.71431 7.25146 8.86886 7.09692C9.0234 6.94238 9.11022 6.73278 9.11022 6.51422V5.69016H17.3508V6.51422C17.3508 6.73278 17.4376 6.94238 17.5922 7.09692C17.7467 7.25146 17.9563 7.33828 18.1749 7.33828C18.3934 7.33828 18.603 7.25146 18.7576 7.09692C18.9121 6.94238 18.9989 6.73278 18.9989 6.51422V5.69016H21.4711V8.9864H4.98992V5.69016H7.4621ZM21.4711 22.1714H4.98992V10.6345H21.4711V22.1714ZM14.4666 14.3428C14.4666 14.5873 14.3941 14.8263 14.2583 15.0295C14.1225 15.2328 13.9294 15.3912 13.7035 15.4848C13.4777 15.5783 13.2291 15.6028 12.9894 15.5551C12.7496 15.5074 12.5293 15.3897 12.3565 15.2168C12.1836 15.044 12.0659 14.8237 12.0182 14.5839C11.9705 14.3442 11.995 14.0956 12.0885 13.8698C12.1821 13.6439 12.3405 13.4508 12.5438 13.315C12.7471 13.1792 12.986 13.1067 13.2305 13.1067C13.5584 13.1067 13.8728 13.2369 14.1046 13.4687C14.3364 13.7006 14.4666 14.015 14.4666 14.3428ZM18.9989 14.3428C18.9989 14.5873 18.9264 14.8263 18.7906 15.0295C18.6548 15.2328 18.4617 15.3912 18.2359 15.4848C18.01 15.5783 17.7615 15.6028 17.5217 15.5551C17.2819 15.5074 17.0617 15.3897 16.8888 15.2168C16.7159 15.044 16.5982 14.8237 16.5505 14.5839C16.5028 14.3442 16.5273 14.0956 16.6209 13.8698C16.7144 13.6439 16.8728 13.4508 17.0761 13.315C17.2794 13.1792 17.5184 13.1067 17.7628 13.1067C18.0907 13.1067 18.4051 13.2369 18.6369 13.4687C18.8687 13.7006 18.9989 14.015 18.9989 14.3428ZM9.93428 18.4631C9.93428 18.7076 9.86178 18.9466 9.72596 19.1498C9.59014 19.3531 9.39708 19.5115 9.17122 19.6051C8.94535 19.6986 8.69682 19.7231 8.45704 19.6754C8.21726 19.6277 7.99701 19.51 7.82414 19.3371C7.65127 19.1643 7.53354 18.944 7.48585 18.7042C7.43815 18.4645 7.46263 18.2159 7.55619 17.9901C7.64975 17.7642 7.80818 17.5711 8.01145 17.4353C8.21473 17.2995 8.45371 17.227 8.69819 17.227C9.02602 17.227 9.34042 17.3572 9.57224 17.589C9.80405 17.8209 9.93428 18.1353 9.93428 18.4631ZM14.4666 18.4631C14.4666 18.7076 14.3941 18.9466 14.2583 19.1498C14.1225 19.3531 13.9294 19.5115 13.7035 19.6051C13.4777 19.6986 13.2291 19.7231 12.9894 19.6754C12.7496 19.6277 12.5293 19.51 12.3565 19.3371C12.1836 19.1643 12.0659 18.944 12.0182 18.7042C11.9705 18.4645 11.995 18.2159 12.0885 17.9901C12.1821 17.7642 12.3405 17.5711 12.5438 17.4353C12.7471 17.2995 12.986 17.227 13.2305 17.227C13.5584 17.227 13.8728 17.3572 14.1046 17.589C14.3364 17.8209 14.4666 18.1353 14.4666 18.4631ZM18.9989 18.4631C18.9989 18.7076 18.9264 18.9466 18.7906 19.1498C18.6548 19.3531 18.4617 19.5115 18.2359 19.6051C18.01 19.6986 17.7615 19.7231 17.5217 19.6754C17.2819 19.6277 17.0617 19.51 16.8888 19.3371C16.7159 19.1643 16.5982 18.944 16.5505 18.7042C16.5028 18.4645 16.5273 18.2159 16.6209 17.9901C16.7144 17.7642 16.8728 17.5711 17.0761 17.4353C17.2794 17.2995 17.5184 17.227 17.7628 17.227C18.0907 17.227 18.4051 17.3572 18.6369 17.589C18.8687 17.8209 18.9989 18.1353 18.9989 18.4631Z" fill="#C82859"/>
</svg>
