<svg width="27" height="27" viewBox="0 0 27 27" fill="none" xmlns="http://www.w3.org/2000/svg">
<path d="M23.7027 8.35737L10.5178 21.5423C10.4412 21.619 10.3503 21.6797 10.2503 21.7212C10.1503 21.7627 10.043 21.784 9.93474 21.784C9.82644 21.784 9.71921 21.7627 9.61917 21.7212C9.51913 21.6797 9.42825 21.619 9.35171 21.5423L3.58329 15.7739C3.42867 15.6193 3.3418 15.4096 3.3418 15.1909C3.3418 14.9722 3.42867 14.7625 3.58329 14.6079C3.73792 14.4532 3.94764 14.3664 4.16632 14.3664C4.38499 14.3664 4.59471 14.4532 4.74934 14.6079L9.93474 19.7943L22.5367 7.19132C22.6913 7.0367 22.901 6.94983 23.1197 6.94983C23.3384 6.94983 23.5481 7.0367 23.7027 7.19132C23.8573 7.34595 23.9442 7.55567 23.9442 7.77435C23.9442 7.99302 23.8573 8.20274 23.7027 8.35737Z" fill="#C82859"/>
</svg>
