<svg width="44" height="45" viewBox="0 0 44 45" fill="none" xmlns="http://www.w3.org/2000/svg">
<rect y="0.850098" width="44" height="44" rx="8" fill="#FFFAEB"/>
<path d="M26.2806 20.0695C26.3504 20.1391 26.4057 20.2218 26.4434 20.3129C26.4812 20.4039 26.5006 20.5015 26.5006 20.6001C26.5006 20.6987 26.4812 20.7963 26.4434 20.8873C26.4057 20.9784 26.3504 21.0611 26.2806 21.1307L21.0306 26.3807C20.961 26.4505 20.8783 26.5058 20.7872 26.5435C20.6962 26.5813 20.5986 26.6007 20.5 26.6007C20.4014 26.6007 20.3038 26.5813 20.2128 26.5435C20.1218 26.5058 20.039 26.4505 19.9694 26.3807L17.7194 24.1307C17.5786 23.99 17.4996 23.7991 17.4996 23.6001C17.4996 23.4011 17.5786 23.2102 17.7194 23.0695C17.8601 22.9287 18.051 22.8497 18.25 22.8497C18.449 22.8497 18.6399 22.9287 18.7806 23.0695L20.5 24.7898L25.2194 20.0695C25.289 19.9997 25.3718 19.9444 25.4628 19.9067C25.5538 19.8689 25.6514 19.8495 25.75 19.8495C25.8486 19.8495 25.9462 19.8689 26.0372 19.9067C26.1283 19.9444 26.211 19.9997 26.2806 20.0695ZM31.75 22.8501C31.75 24.7785 31.1782 26.6635 30.1068 28.2669C29.0355 29.8703 27.5127 31.12 25.7312 31.8579C23.9496 32.5959 21.9892 32.789 20.0979 32.4128C18.2066 32.0365 16.4693 31.108 15.1057 29.7444C13.7422 28.3808 12.8136 26.6435 12.4373 24.7522C12.0611 22.8609 12.2542 20.9005 12.9922 19.1189C13.7301 17.3374 14.9798 15.8146 16.5832 14.7433C18.1866 13.6719 20.0716 13.1001 22 13.1001C24.585 13.1028 27.0634 14.1309 28.8913 15.9588C30.7192 17.7867 31.7473 20.2651 31.75 22.8501ZM30.25 22.8501C30.25 21.2184 29.7661 19.6233 28.8596 18.2666C27.9531 16.9099 26.6646 15.8525 25.1571 15.2281C23.6497 14.6037 21.9909 14.4403 20.3905 14.7586C18.7902 15.0769 17.3202 15.8627 16.1664 17.0165C15.0126 18.1702 14.2269 19.6403 13.9085 21.2406C13.5902 22.8409 13.7536 24.4997 14.378 26.0072C15.0024 27.5147 16.0598 28.8032 17.4165 29.7097C18.7733 30.6162 20.3683 31.1001 22 31.1001C24.1873 31.0976 26.2843 30.2276 27.8309 28.681C29.3775 27.1344 30.2475 25.0374 30.25 22.8501Z" fill="#FFC935"/>
</svg>
