<svg width="20" height="21" viewBox="0 0 20 21" fill="none" xmlns="http://www.w3.org/2000/svg">
<rect y="0.126465" width="20" height="20" rx="10" fill="#FCEAEF"/>
<path d="M12.5933 8.44115C12.6355 8.48336 12.669 8.53349 12.6919 8.58868C12.7148 8.64386 12.7266 8.70301 12.7266 8.76274C12.7266 8.82247 12.7148 8.88162 12.6919 8.9368C12.669 8.99198 12.6355 9.04212 12.5933 9.08433L9.41144 12.2661C9.36922 12.3084 9.31909 12.3419 9.26391 12.3648C9.20873 12.3877 9.14958 12.3995 9.08985 12.3995C9.03011 12.3995 8.97096 12.3877 8.91578 12.3648C8.8606 12.3419 8.81047 12.3084 8.76826 12.2661L7.40462 10.9025C7.31933 10.8172 7.27141 10.7015 7.27141 10.5809C7.27141 10.4603 7.31933 10.3446 7.40462 10.2593C7.48991 10.174 7.60559 10.1261 7.72621 10.1261C7.84683 10.1261 7.96251 10.174 8.0478 10.2593L9.08985 11.3019L11.9501 8.44115C11.9923 8.39889 12.0424 8.36536 12.0976 8.34249C12.1528 8.31961 12.2119 8.30784 12.2717 8.30784C12.3314 8.30784 12.3905 8.31961 12.4457 8.34249C12.5009 8.36536 12.551 8.39889 12.5933 8.44115ZM15.908 10.1264C15.908 11.2951 15.5615 12.4375 14.9122 13.4093C14.2629 14.381 13.34 15.1384 12.2602 15.5857C11.1805 16.0329 9.99238 16.1499 8.84613 15.9219C7.69988 15.6939 6.64698 15.1311 5.82058 14.3047C4.99418 13.4783 4.43139 12.4254 4.20339 11.2792C3.97538 10.1329 4.0924 8.94481 4.53965 7.86506C4.98689 6.78532 5.74428 5.86245 6.71602 5.21315C7.68777 4.56385 8.83023 4.21729 9.99894 4.21729C11.5656 4.21894 13.0677 4.84203 14.1755 5.94985C15.2833 7.05766 15.9064 8.5597 15.908 10.1264ZM14.9989 10.1264C14.9989 9.13747 14.7057 8.17077 14.1563 7.34852C13.6069 6.52628 12.826 5.88542 11.9124 5.50698C10.9987 5.12854 9.99339 5.02952 9.02349 5.22245C8.05358 5.41538 7.16267 5.89158 6.4634 6.59084C5.76414 7.2901 5.28794 8.18102 5.09501 9.15092C4.90208 10.1208 5.0011 11.1262 5.37954 12.0398C5.75798 12.9534 6.39884 13.7343 7.22109 14.2837C8.04333 14.8331 9.01003 15.1264 9.99894 15.1264C11.3246 15.1249 12.5955 14.5976 13.5328 13.6602C14.4702 12.7229 14.9974 11.452 14.9989 10.1264Z" fill="#DC2C62"/>
</svg>
