<svg width="32" height="33" viewBox="0 0 32 33" fill="none" xmlns="http://www.w3.org/2000/svg">
<path d="M13.9354 6.72914C13.7005 6.49489 13.4104 6.32357 13.0919 6.23099C12.7733 6.13841 12.4366 6.12755 12.1128 6.19942C11.7889 6.27129 11.4884 6.42356 11.2389 6.6422C10.9895 6.86083 10.7991 7.13878 10.6854 7.45039L4.12412 25.4979C4.01633 25.7955 3.98152 26.1146 4.02259 26.4285C4.06367 26.7423 4.17944 27.0418 4.36018 27.3016C4.54093 27.5615 4.78137 27.7742 5.06133 27.9218C5.34129 28.0695 5.6526 28.1479 5.96912 28.1504C6.20216 28.1488 6.43314 28.1065 6.65162 28.0254L24.6979 21.4629C25.0096 21.3493 25.2876 21.159 25.5064 20.9096C25.7252 20.6602 25.8776 20.3597 25.9496 20.0359C26.0216 19.712 26.0108 19.3752 25.9184 19.0566C25.8259 18.738 25.6546 18.4478 25.4204 18.2129L13.9354 6.72914ZM8.14162 20.2916L10.5416 13.6929L18.4566 21.6079L11.8566 24.0079L8.14162 20.2916ZM19.9991 9.15039C20.0179 8.47435 20.1816 7.81022 20.4791 7.20289C21.1416 5.87914 22.3916 5.15039 23.9991 5.15039C24.8366 5.15039 25.3741 4.86414 25.7054 4.24914C25.8798 3.90507 25.9799 3.52816 25.9991 3.14289C26.0001 2.87767 26.1064 2.62372 26.2947 2.43688C26.4829 2.25005 26.7376 2.14565 27.0029 2.14664C27.2681 2.14764 27.522 2.25395 27.7089 2.44219C27.8957 2.63042 28.0001 2.88517 27.9991 3.15039C27.9991 4.75789 26.9341 7.15039 23.9991 7.15039C23.1616 7.15039 22.6241 7.43664 22.2929 8.05164C22.1184 8.39571 22.0184 8.77262 21.9991 9.15789C21.9986 9.28921 21.9723 9.41915 21.9216 9.54029C21.8709 9.66143 21.7968 9.77139 21.7036 9.8639C21.6104 9.95641 21.4998 10.0297 21.3783 10.0795C21.2568 10.1293 21.1267 10.1546 20.9954 10.1541C20.864 10.1536 20.7341 10.1273 20.613 10.0766C20.4918 10.0259 20.3819 9.9518 20.2894 9.8586C20.1968 9.76539 20.1236 9.65487 20.0738 9.53336C20.024 9.41185 19.9986 9.28171 19.9991 9.15039ZM16.9991 5.15039V2.15039C16.9991 1.88517 17.1045 1.63082 17.292 1.44328C17.4795 1.25575 17.7339 1.15039 17.9991 1.15039C18.2643 1.15039 18.5187 1.25575 18.7062 1.44328C18.8938 1.63082 18.9991 1.88517 18.9991 2.15039V5.15039C18.9991 5.41561 18.8938 5.66996 18.7062 5.8575C18.5187 6.04503 18.2643 6.15039 17.9991 6.15039C17.7339 6.15039 17.4795 6.04503 17.292 5.8575C17.1045 5.66996 16.9991 5.41561 16.9991 5.15039ZM29.7066 15.4429C29.7994 15.5358 29.8731 15.6461 29.9233 15.7674C29.9735 15.8888 29.9993 16.0189 29.9992 16.1502C29.9992 16.2815 29.9732 16.4116 29.9229 16.5329C29.8726 16.6542 29.7989 16.7644 29.706 16.8573C29.6131 16.9501 29.5028 17.0237 29.3814 17.0739C29.2601 17.1241 29.13 17.1499 28.9987 17.1499C28.8673 17.1498 28.7373 17.1239 28.616 17.0736C28.4947 17.0233 28.3844 16.9495 28.2916 16.8566L26.2916 14.8566C26.104 14.669 25.9986 14.4145 25.9986 14.1491C25.9986 13.8838 26.104 13.6293 26.2916 13.4416C26.4793 13.254 26.7338 13.1486 26.9991 13.1486C27.2645 13.1486 27.519 13.254 27.7066 13.4416L29.7066 15.4429ZM30.3154 10.0991L27.3154 11.0991C27.0637 11.183 26.7891 11.1635 26.5519 11.0449C26.3146 10.9263 26.1342 10.7183 26.0504 10.4666C25.9665 10.215 25.986 9.94038 26.1046 9.70315C26.2232 9.46591 26.4312 9.28552 26.6829 9.20164L29.6829 8.20164C29.9345 8.11777 30.2091 8.13728 30.4464 8.2559C30.6836 8.37452 30.864 8.58252 30.9479 8.83414C31.0317 9.08576 31.0122 9.3604 30.8936 9.59764C30.775 9.83487 30.567 10.0153 30.3154 10.0991Z" fill="#1B1E21"/>
</svg>
