<svg width="20" height="20" viewBox="0 0 20 20" fill="none" xmlns="http://www.w3.org/2000/svg">
<path d="M16.875 10.1688C16.8782 10.0563 16.8782 9.94379 16.875 9.83129L18.0407 8.37504C18.1018 8.29858 18.1441 8.20883 18.1642 8.11303C18.1843 8.01722 18.1816 7.91804 18.1563 7.82347C17.9649 7.10531 17.679 6.4157 17.3063 5.77269C17.2574 5.68857 17.1896 5.617 17.1082 5.5637C17.0269 5.5104 16.9342 5.47683 16.8375 5.46566L14.9844 5.25941C14.9073 5.17816 14.8292 5.10004 14.75 5.02504L14.5313 3.16722C14.52 3.07051 14.4863 2.97777 14.4329 2.89639C14.3795 2.815 14.3077 2.74723 14.2235 2.69847C13.5805 2.32601 12.8909 2.0407 12.1727 1.85004C12.0781 1.82477 11.9789 1.82207 11.8831 1.84215C11.7873 1.86224 11.6976 1.90454 11.6211 1.96566L10.1688 3.12504C10.0563 3.12504 9.94379 3.12504 9.83129 3.12504L8.37504 1.96175C8.29858 1.90064 8.20883 1.85833 8.11303 1.83825C8.01722 1.81816 7.91804 1.82086 7.82347 1.84613C7.10531 2.03756 6.4157 2.32338 5.77269 2.69613C5.68857 2.74498 5.617 2.81279 5.5637 2.89417C5.5104 2.97555 5.47683 3.06824 5.46566 3.16488L5.25941 5.02113C5.17816 5.09873 5.10004 5.17686 5.02504 5.2555L3.16722 5.46879C3.07051 5.48004 2.97777 5.51373 2.89639 5.56717C2.815 5.62061 2.74723 5.69233 2.69847 5.7766C2.32609 6.4197 2.04053 7.10929 1.84925 7.82738C1.8241 7.92201 1.82152 8.02122 1.84174 8.11703C1.86196 8.21284 1.90441 8.30255 1.96566 8.37894L3.12504 9.83129C3.12504 9.94379 3.12504 10.0563 3.12504 10.1688L1.96175 11.625C1.90064 11.7015 1.85833 11.7912 1.83825 11.887C1.81816 11.9828 1.82086 12.082 1.84613 12.1766C2.03756 12.8948 2.32338 13.5844 2.69613 14.2274C2.74498 14.3115 2.81279 14.3831 2.89417 14.4364C2.97555 14.4897 3.06824 14.5232 3.16488 14.5344L5.01801 14.7407C5.09561 14.8219 5.17373 14.9 5.25238 14.975L5.46879 16.8329C5.48004 16.9296 5.51373 17.0223 5.56717 17.1037C5.62061 17.1851 5.69233 17.2528 5.7766 17.3016C6.4197 17.674 7.10929 17.9595 7.82738 18.1508C7.92201 18.176 8.02122 18.1786 8.11703 18.1583C8.21284 18.1381 8.30255 18.0957 8.37894 18.0344L9.83129 16.875C9.94379 16.8782 10.0563 16.8782 10.1688 16.875L11.625 18.0407C11.7015 18.1018 11.7912 18.1441 11.887 18.1642C11.9828 18.1843 12.082 18.1816 12.1766 18.1563C12.8949 17.9652 13.5845 17.6794 14.2274 17.3063C14.3115 17.2574 14.3831 17.1896 14.4364 17.1082C14.4897 17.0269 14.5232 16.9342 14.5344 16.8375L14.7407 14.9844C14.8219 14.9073 14.9 14.8292 14.975 14.75L16.8329 14.5313C16.9296 14.52 17.0223 14.4863 17.1037 14.4329C17.1851 14.3795 17.2528 14.3077 17.3016 14.2235C17.674 13.5804 17.9595 12.8908 18.1508 12.1727C18.176 12.0781 18.1786 11.9788 18.1583 11.883C18.1381 11.7872 18.0957 11.6975 18.0344 11.6211L16.875 10.1688ZM10 13.125C9.38197 13.125 8.77778 12.9418 8.26388 12.5984C7.74998 12.255 7.34944 11.7669 7.11291 11.1959C6.87639 10.6249 6.8145 9.99657 6.93508 9.39038C7.05566 8.78419 7.35329 8.22737 7.79033 7.79033C8.22737 7.35329 8.78419 7.05566 9.39038 6.93508C9.99657 6.8145 10.6249 6.87639 11.1959 7.11291C11.7669 7.34944 12.255 7.74998 12.5984 8.26388C12.9418 8.77778 13.125 9.38197 13.125 10C13.125 10.8288 12.7958 11.6237 12.2097 12.2097C11.6237 12.7958 10.8288 13.125 10 13.125Z" fill="#791836"/>
</svg>
