<svg width="54" height="54" viewBox="0 0 54 54" fill="none" xmlns="http://www.w3.org/2000/svg">
<g filter="url(#filter0_d_3089_12363)">
<rect x="7" y="5.63525" width="40" height="40" rx="6.66667" fill="#FCEAEF" shape-rendering="crispEdges"/>
<path d="M27.8337 19.8018V24.2861L31.6274 22.3893C31.8251 22.2904 32.0539 22.274 32.2637 22.3439C32.4734 22.4137 32.6467 22.564 32.7456 22.7617C32.8445 22.9593 32.8609 23.1882 32.791 23.3979C32.7212 23.6076 32.5709 23.781 32.3732 23.8799L27.3732 26.3799C27.2462 26.4434 27.1051 26.4735 26.9632 26.4672C26.8213 26.4608 26.6834 26.4183 26.5625 26.3437C26.4417 26.2691 26.3419 26.1648 26.2727 26.0408C26.2034 25.9168 26.1671 25.7771 26.167 25.6351V19.8018C26.167 19.5807 26.2548 19.3688 26.4111 19.2125C26.5674 19.0562 26.7793 18.9684 27.0003 18.9684C27.2213 18.9684 27.4333 19.0562 27.5896 19.2125C27.7459 19.3688 27.8337 19.5807 27.8337 19.8018ZM27.0003 34.8018C25.1873 34.8018 23.4151 34.2641 21.9076 33.2569C20.4002 32.2497 19.2252 30.818 18.5314 29.143C17.8376 27.468 17.6561 25.6249 18.0098 23.8468C18.3635 22.0686 19.2365 20.4353 20.5185 19.1533C21.8005 17.8713 23.4338 16.9983 25.212 16.6446C26.9902 16.2909 28.8333 16.4724 30.5083 17.1662C32.1833 17.86 33.6149 19.0349 34.6221 20.5424C35.6294 22.0498 36.167 23.8221 36.167 25.6351C36.167 25.8561 36.2548 26.0681 36.4111 26.2244C36.5674 26.3806 36.7793 26.4684 37.0003 26.4684C37.2213 26.4684 37.4333 26.3806 37.5896 26.2244C37.7459 26.0681 37.8337 25.8561 37.8337 25.6351C37.8337 23.4925 37.1983 21.398 36.0079 19.6164C34.8175 17.8349 33.1256 16.4464 31.1461 15.6264C29.1665 14.8065 26.9883 14.5919 24.8869 15.0099C22.7854 15.4279 20.8551 16.4597 19.34 17.9748C17.8249 19.4898 16.7932 21.4202 16.3752 23.5216C15.9571 25.6231 16.1717 27.8013 16.9916 29.7808C17.8116 31.7604 19.2001 33.4523 20.9817 34.6427C22.7632 35.8331 24.8577 36.4684 27.0003 36.4684C27.2213 36.4684 27.4333 36.3806 27.5896 36.2244C27.7459 36.0681 27.8337 35.8561 27.8337 35.6351C27.8337 35.4141 27.7459 35.2021 27.5896 35.0458C27.4333 34.8896 27.2213 34.8018 27.0003 34.8018ZM37.8055 35.4205C37.8361 35.527 37.8451 35.6385 37.832 35.7486C37.8189 35.8586 37.784 35.9649 37.7294 36.0613C37.6747 36.1576 37.6014 36.2422 37.5137 36.3099C37.426 36.3776 37.3257 36.4271 37.2186 36.4556C37.1115 36.484 36.9998 36.4908 36.8901 36.4756C36.7803 36.4604 36.6747 36.4235 36.5794 36.367C36.4841 36.3105 36.4011 36.2355 36.3351 36.1465C36.2691 36.0575 36.2215 35.9562 36.1951 35.8486C35.9003 34.7413 34.8607 33.9684 33.667 33.9684C32.4732 33.9684 31.4337 34.7413 31.1389 35.8486C31.0918 36.0263 30.9873 36.1834 30.8417 36.2955C30.696 36.4076 30.5174 36.4684 30.3337 36.4684C30.2612 36.4682 30.1891 36.4588 30.1191 36.4403C29.9055 36.3834 29.7233 36.244 29.6126 36.0527C29.5018 35.8615 29.4716 35.6341 29.5285 35.4205C29.7988 34.4168 30.4344 33.5504 31.3107 32.9913C30.8442 32.5253 30.5264 31.9314 30.3975 31.2847C30.2685 30.638 30.3343 29.9676 30.5865 29.3583C30.8387 28.749 31.266 28.2282 31.8142 27.8617C32.3624 27.4953 33.007 27.2997 33.6665 27.2997C34.3259 27.2997 34.9705 27.4953 35.5188 27.8617C36.067 28.2282 36.4942 28.749 36.7464 29.3583C36.9986 29.9676 37.0644 30.638 36.9355 31.2847C36.8066 31.9314 36.4887 32.5253 36.0222 32.9913C36.8989 33.5502 37.535 34.4167 37.8055 35.4205ZM32.0003 30.6351C32.0003 30.9647 32.0981 31.287 32.2812 31.561C32.4643 31.8351 32.7246 32.0487 33.0292 32.1749C33.3337 32.301 33.6688 32.334 33.9921 32.2697C34.3154 32.2054 34.6124 32.0467 34.8455 31.8136C35.0786 31.5805 35.2373 31.2835 35.3016 30.9602C35.3659 30.6369 35.3329 30.3018 35.2068 29.9973C35.0807 29.6927 34.867 29.4324 34.5929 29.2493C34.3189 29.0662 33.9966 28.9684 33.667 28.9684C33.225 28.9684 32.801 29.144 32.4885 29.4566C32.1759 29.7691 32.0003 30.1931 32.0003 30.6351Z" fill="#C82859"/>
</g>
<defs>
<filter id="filter0_d_3089_12363" x="0.333333" y="0.635254" width="53.3333" height="53.3333" filterUnits="userSpaceOnUse" color-interpolation-filters="sRGB">
<feFlood flood-opacity="0" result="BackgroundImageFix"/>
<feColorMatrix in="SourceAlpha" type="matrix" values="0 0 0 0 0 0 0 0 0 0 0 0 0 0 0 0 0 0 127 0" result="hardAlpha"/>
<feOffset dy="1.66667"/>
<feGaussianBlur stdDeviation="3.33333"/>
<feComposite in2="hardAlpha" operator="out"/>
<feColorMatrix type="matrix" values="0 0 0 0 0 0 0 0 0 0 0 0 0 0 0 0 0 0 0.08 0"/>
<feBlend mode="normal" in2="BackgroundImageFix" result="effect1_dropShadow_3089_12363"/>
<feBlend mode="normal" in="SourceGraphic" in2="effect1_dropShadow_3089_12363" result="shape"/>
</filter>
</defs>
</svg>
