<svg width="15" height="14" viewBox="0 0 15 14" fill="none" xmlns="http://www.w3.org/2000/svg">
<path d="M5.52411 2.02343C5.49568 1.91141 5.51274 1.79268 5.57155 1.69319C5.63037 1.59369 5.72616 1.52152 5.83802 1.49242C6.77067 1.25188 7.74911 1.25188 8.68177 1.49242C8.78507 1.51887 8.87516 1.58213 8.9351 1.67033C8.99503 1.75852 9.0207 1.86557 9.00727 1.97136C8.99383 2.07714 8.94223 2.17438 8.86215 2.2448C8.78207 2.31521 8.67903 2.35395 8.57239 2.35374C8.53548 2.35355 8.49875 2.34878 8.46302 2.33953C7.67387 2.13577 6.84591 2.13577 6.05677 2.33953C6.00104 2.35381 5.94303 2.35696 5.88608 2.3488C5.82913 2.34064 5.77435 2.32132 5.72487 2.29196C5.6754 2.2626 5.6322 2.22377 5.59775 2.17769C5.5633 2.13161 5.53827 2.07919 5.52411 2.02343ZM2.08372 6.01562C2.13909 6.031 2.19695 6.03532 2.25399 6.02833C2.31103 6.02135 2.36614 6.00319 2.41616 5.97491C2.46618 5.94662 2.51014 5.90875 2.54553 5.86347C2.58091 5.81819 2.60703 5.76639 2.62239 5.71101C2.84037 4.9259 3.25438 4.2091 3.82552 3.62796C3.90029 3.54409 3.93993 3.43466 3.93621 3.32236C3.9325 3.21005 3.88572 3.10349 3.80556 3.02474C3.72541 2.94599 3.61803 2.9011 3.50568 2.89937C3.39332 2.89765 3.28462 2.93922 3.20208 3.01546C2.52734 3.70211 2.03808 4.5489 1.7802 5.4764C1.76472 5.53174 1.76029 5.58958 1.76717 5.64663C1.77404 5.70367 1.79209 5.75881 1.82027 5.80888C1.84846 5.85895 1.88623 5.90298 1.93143 5.93845C1.97663 5.97393 2.02838 6.00015 2.08372 6.01562ZM8.46302 11.6605C7.67387 11.8642 6.84591 11.8642 6.05677 11.6605C5.94512 11.6334 5.82732 11.6514 5.72881 11.7105C5.6303 11.7696 5.55899 11.8651 5.53027 11.9763C5.50155 12.0875 5.51772 12.2056 5.5753 12.305C5.63288 12.4044 5.72724 12.4772 5.83802 12.5076C6.77067 12.7481 7.74911 12.7481 8.68177 12.5076C8.79254 12.4772 8.8869 12.4044 8.94448 12.305C9.00206 12.2056 9.01824 12.0875 8.98952 11.9763C8.96079 11.8651 8.88948 11.7696 8.79097 11.7105C8.69246 11.6514 8.57467 11.6334 8.46302 11.6605ZM11.8974 5.7121C11.9284 5.82393 12.0026 5.91885 12.1036 5.97597C12.2047 6.0331 12.3242 6.04775 12.4361 6.01671C12.5479 5.98567 12.6428 5.91148 12.6999 5.81046C12.7571 5.70944 12.7717 5.58987 12.7407 5.47804C12.4826 4.55062 11.9934 3.70387 11.3188 3.0171C11.2789 2.97452 11.2309 2.94034 11.1777 2.91657C11.1244 2.89281 11.0669 2.87994 11.0086 2.87872C10.9502 2.87751 10.8923 2.88797 10.838 2.90949C10.7838 2.93101 10.7344 2.96316 10.6928 3.00405C10.6512 3.04493 10.6182 3.09373 10.5957 3.14756C10.5732 3.20139 10.5618 3.25918 10.5619 3.31752C10.5621 3.37585 10.574 3.43357 10.5968 3.48726C10.6196 3.54095 10.6529 3.58953 10.6948 3.63015C11.2649 4.21147 11.6784 4.92774 11.8968 5.7121H11.8974ZM12.7418 8.52249C12.4523 9.56601 11.8701 10.5048 11.064 11.2279C11.0141 11.2729 10.9545 11.3058 10.8899 11.3241C10.8253 11.3424 10.7573 11.3455 10.6912 11.3333C10.6252 11.3211 10.5628 11.2938 10.509 11.2537C10.4552 11.2135 10.4114 11.1614 10.3809 11.1016C10.0883 10.5251 9.64187 10.041 9.09098 9.70282C8.54009 9.36464 7.9063 9.18562 7.25989 9.18562C6.61348 9.18562 5.97969 9.36464 5.4288 9.70282C4.87791 10.041 4.43144 10.5251 4.13888 11.1016C4.10844 11.1614 4.06466 11.2134 4.01091 11.2536C3.95716 11.2937 3.89489 11.321 3.82891 11.3333C3.76293 11.3455 3.69502 11.3425 3.63042 11.3243C3.56582 11.3061 3.50627 11.2733 3.45638 11.2284C2.65019 10.5049 2.06799 9.56578 1.77856 8.52195C1.7476 8.41012 1.76232 8.29057 1.8195 8.18961C1.87668 8.08864 1.97162 8.01452 2.08345 7.98355C2.19527 7.95258 2.31482 7.96731 2.41579 8.02448C2.51676 8.08166 2.59088 8.17661 2.62184 8.28843C2.81754 8.99545 3.17304 9.64807 3.66091 10.1959C4.14905 9.48792 4.83604 8.94042 5.63513 8.62257C5.20634 8.28503 4.89341 7.82225 4.73986 7.2986C4.58631 6.77495 4.59977 6.21646 4.77838 5.70082C4.95699 5.18517 5.29186 4.73801 5.73641 4.42153C6.18096 4.10504 6.7131 3.93497 7.2588 3.93497C7.8045 3.93497 8.33663 4.10504 8.78119 4.42153C9.22574 4.73801 9.56061 5.18517 9.73921 5.70082C9.91782 6.21646 9.93129 6.77495 9.77774 7.2986C9.62419 7.82225 9.31125 8.28503 8.88247 8.62257C9.68156 8.94042 10.3685 9.48792 10.8567 10.1959C11.3446 9.64807 11.7001 8.99545 11.8958 8.28843C11.9111 8.23306 11.9372 8.18126 11.9726 8.13599C12.008 8.09071 12.052 8.05285 12.102 8.02456C12.152 7.99628 12.2071 7.97812 12.2642 7.97113C12.3212 7.96414 12.3791 7.96845 12.4344 7.98382C12.4898 7.99919 12.5416 8.02532 12.5869 8.0607C12.6321 8.09609 12.67 8.14005 12.6983 8.19007C12.7266 8.24009 12.7447 8.29519 12.7517 8.35223C12.7587 8.40927 12.7544 8.46712 12.739 8.52249H12.7418ZM7.25989 8.31249C7.60601 8.31249 7.94435 8.20986 8.23214 8.01757C8.51993 7.82527 8.74423 7.55196 8.87668 7.23219C9.00913 6.91242 9.04379 6.56055 8.97627 6.22109C8.90874 5.88162 8.74207 5.5698 8.49733 5.32506C8.25259 5.08032 7.94077 4.91364 7.6013 4.84612C7.26183 4.7786 6.90997 4.81325 6.5902 4.94571C6.27042 5.07816 5.99711 5.30246 5.80482 5.59025C5.61253 5.87803 5.50989 6.21638 5.50989 6.56249C5.50989 7.02662 5.69427 7.47174 6.02245 7.79993C6.35064 8.12812 6.79576 8.31249 7.25989 8.31249Z" fill="#5A5F63"/>
</svg>
