<svg width="54" height="54" viewBox="0 0 54 54" fill="none" xmlns="http://www.w3.org/2000/svg">
<g filter="url(#filter0_d_3089_12300)">
<rect x="7" y="5.63525" width="40" height="40" rx="6.66667" fill="#FCEAEF" shape-rendering="crispEdges"/>
<path d="M37.8336 15.6351C37.8336 15.4141 37.7458 15.2021 37.5895 15.0458C37.4332 14.8896 37.2213 14.8018 37.0003 14.8018C32.4086 14.8018 27.6971 19.9799 25.0805 23.409C24.1459 23.1228 23.1573 23.0598 22.194 23.225C21.2307 23.3901 20.3196 23.7789 19.5338 24.3601C18.748 24.9412 18.1095 25.6986 17.6695 26.5713C17.2295 27.444 17.0002 28.4077 17.0003 29.3851C17.0003 32.6018 14.9648 34.0445 14.868 34.1111C14.7201 34.2109 14.6082 34.3556 14.5487 34.5237C14.4892 34.6919 14.4852 34.8747 14.5373 35.0453C14.5895 35.2158 14.6949 35.3652 14.8383 35.4714C14.9816 35.5776 15.1552 35.6349 15.3336 35.6351H23.2503C24.2276 35.6351 25.1913 35.4059 26.064 34.9659C26.9368 34.5259 27.6941 33.8873 28.2753 33.1015C28.8564 32.3157 29.2452 31.4046 29.4104 30.4413C29.5755 29.478 29.5125 28.4894 29.2263 27.5549C32.6565 24.9382 37.8336 20.2268 37.8336 15.6351ZM23.2503 33.9684H17.2742C17.9773 32.9695 18.6669 31.4601 18.6669 29.3851C18.6669 28.4786 18.9357 27.5925 19.4394 26.8387C19.943 26.085 20.6588 25.4975 21.4963 25.1506C22.3338 24.8037 23.2553 24.713 24.1444 24.8898C25.0335 25.0667 25.8502 25.5032 26.4912 26.1442C27.1321 26.7852 27.5687 27.6018 27.7455 28.4909C27.9224 29.38 27.8316 30.3016 27.4847 31.1391C27.1378 31.9766 26.5503 32.6924 25.7966 33.196C25.0429 33.6996 24.1567 33.9684 23.2503 33.9684ZM26.6273 24.1299C26.9843 23.6674 27.3346 23.2316 27.6784 22.8226C28.5198 23.391 29.2443 24.1156 29.8128 24.957C29.403 25.3 28.9673 25.6504 28.5055 26.008C28.0199 25.2557 27.3796 24.6155 26.6273 24.1299ZM31.0753 23.8507C30.4461 22.963 29.6713 22.1882 28.7836 21.559C32.094 17.9622 34.5909 16.8715 36.0648 16.5684C35.768 18.0434 34.6721 20.5403 31.0753 23.8507Z" fill="#C82859"/>
</g>
<defs>
<filter id="filter0_d_3089_12300" x="0.333333" y="0.635254" width="53.3333" height="53.3333" filterUnits="userSpaceOnUse" color-interpolation-filters="sRGB">
<feFlood flood-opacity="0" result="BackgroundImageFix"/>
<feColorMatrix in="SourceAlpha" type="matrix" values="0 0 0 0 0 0 0 0 0 0 0 0 0 0 0 0 0 0 127 0" result="hardAlpha"/>
<feOffset dy="1.66667"/>
<feGaussianBlur stdDeviation="3.33333"/>
<feComposite in2="hardAlpha" operator="out"/>
<feColorMatrix type="matrix" values="0 0 0 0 0 0 0 0 0 0 0 0 0 0 0 0 0 0 0.08 0"/>
<feBlend mode="normal" in2="BackgroundImageFix" result="effect1_dropShadow_3089_12300"/>
<feBlend mode="normal" in="SourceGraphic" in2="effect1_dropShadow_3089_12300" result="shape"/>
</filter>
</defs>
</svg>
