<svg width="16" height="16" viewBox="0 0 16 16" fill="none" xmlns="http://www.w3.org/2000/svg">
<path d="M9.64639 7.8598H8.72518V4.17497H9.18578C9.67442 4.17497 10.143 4.36908 10.4886 4.7146C10.8341 5.06012 11.0282 5.52874 11.0282 6.01738C11.0282 6.13954 11.0767 6.2567 11.1631 6.34308C11.2495 6.42946 11.3666 6.47799 11.4888 6.47799C11.611 6.47799 11.7281 6.42946 11.8145 6.34308C11.9009 6.2567 11.9494 6.13954 11.9494 6.01738C11.9486 5.28466 11.6572 4.58216 11.1391 4.06405C10.621 3.54593 9.91851 3.25452 9.18578 3.25376H8.72518V2.33255C8.72518 2.21039 8.67665 2.09324 8.59027 2.00686C8.50389 1.92048 8.38673 1.87195 8.26457 1.87195C8.14241 1.87195 8.02526 1.92048 7.93888 2.00686C7.8525 2.09324 7.80397 2.21039 7.80397 2.33255V3.25376H7.34337C6.61041 3.25376 5.90747 3.54493 5.38919 4.06321C4.87091 4.58149 4.57974 5.28442 4.57974 6.01738C4.57974 6.75034 4.87091 7.45328 5.38919 7.97156C5.90747 8.48984 6.61041 8.781 7.34337 8.781H7.80397V12.4658H6.88276C6.39412 12.4658 5.9255 12.2717 5.57998 11.9262C5.23446 11.5807 5.04035 11.1121 5.04035 10.6234C5.04035 10.5013 4.99182 10.3841 4.90544 10.2977C4.81906 10.2113 4.7019 10.1628 4.57974 10.1628C4.45758 10.1628 4.34043 10.2113 4.25405 10.2977C4.16767 10.3841 4.11914 10.5013 4.11914 10.6234C4.1199 11.3561 4.41131 12.0586 4.92943 12.5768C5.44754 13.0949 6.15004 13.3863 6.88276 13.387H7.80397V14.3083C7.80397 14.4304 7.8525 14.5476 7.93888 14.6339C8.02526 14.7203 8.14241 14.7689 8.26457 14.7689C8.38673 14.7689 8.50389 14.7203 8.59027 14.6339C8.67665 14.5476 8.72518 14.4304 8.72518 14.3083V13.387H9.64639C10.3793 13.387 11.0823 13.0959 11.6006 12.5776C12.1188 12.0593 12.41 11.3564 12.41 10.6234C12.41 9.89046 12.1188 9.18752 11.6006 8.66924C11.0823 8.15096 10.3793 7.8598 9.64639 7.8598ZM7.34337 7.8598C6.85473 7.8598 6.3861 7.66569 6.04058 7.32017C5.69506 6.97465 5.50095 6.50602 5.50095 6.01738C5.50095 5.52874 5.69506 5.06012 6.04058 4.7146C6.3861 4.36908 6.85473 4.17497 7.34337 4.17497H7.80397V7.8598H7.34337ZM9.64639 12.4658H8.72518V8.781H9.64639C10.135 8.781 10.6036 8.97512 10.9492 9.32064C11.2947 9.66616 11.4888 10.1348 11.4888 10.6234C11.4888 11.1121 11.2947 11.5807 10.9492 11.9262C10.6036 12.2717 10.135 12.4658 9.64639 12.4658Z" fill="#C82859"/>
</svg>
