<svg width="29" height="29" viewBox="0 0 29 29" fill="none" xmlns="http://www.w3.org/2000/svg">
<path d="M17.293 13.2754H15.543V6.27539H16.418C17.3462 6.27539 18.2365 6.64414 18.8928 7.30052C19.5492 7.95689 19.918 8.84713 19.918 9.77539C19.918 10.0075 20.0102 10.23 20.1742 10.3941C20.3383 10.5582 20.5609 10.6504 20.793 10.6504C21.025 10.6504 21.2476 10.5582 21.4117 10.3941C21.5758 10.23 21.668 10.0075 21.668 9.77539C21.6665 8.38345 21.1129 7.04893 20.1287 6.06468C19.1444 5.08043 17.8099 4.52684 16.418 4.52539H15.543V2.77539C15.543 2.54333 15.4508 2.32077 15.2867 2.15667C15.1226 1.99258 14.9 1.90039 14.668 1.90039C14.4359 1.90039 14.2133 1.99258 14.0493 2.15667C13.8852 2.32077 13.793 2.54333 13.793 2.77539V4.52539H12.918C11.5256 4.52539 10.1902 5.07851 9.20566 6.06308C8.22109 7.04765 7.66797 8.383 7.66797 9.77539C7.66797 11.1678 8.22109 12.5031 9.20566 13.4877C10.1902 14.4723 11.5256 15.0254 12.918 15.0254H13.793V22.0254H12.043C11.1147 22.0254 10.2245 21.6566 9.56809 21.0003C8.91172 20.3439 8.54297 19.4536 8.54297 18.5254C8.54297 18.2933 8.45078 18.0708 8.28669 17.9067C8.12259 17.7426 7.90003 17.6504 7.66797 17.6504C7.4359 17.6504 7.21334 17.7426 7.04925 17.9067C6.88516 18.0708 6.79297 18.2933 6.79297 18.5254C6.79442 19.9173 7.348 21.2519 8.33226 22.2361C9.31651 23.2204 10.651 23.7739 12.043 23.7754H13.793V25.5254C13.793 25.7575 13.8852 25.98 14.0493 26.1441C14.2133 26.3082 14.4359 26.4004 14.668 26.4004C14.9 26.4004 15.1226 26.3082 15.2867 26.1441C15.4508 25.98 15.543 25.7575 15.543 25.5254V23.7754H17.293C18.6854 23.7754 20.0207 23.2223 21.0053 22.2377C21.9898 21.2531 22.543 19.9178 22.543 18.5254C22.543 17.133 21.9898 15.7976 21.0053 14.8131C20.0207 13.8285 18.6854 13.2754 17.293 13.2754ZM12.918 13.2754C11.9897 13.2754 11.0995 12.9066 10.4431 12.2503C9.78672 11.5939 9.41797 10.7036 9.41797 9.77539C9.41797 8.84713 9.78672 7.95689 10.4431 7.30052C11.0995 6.64414 11.9897 6.27539 12.918 6.27539H13.793V13.2754H12.918ZM17.293 22.0254H15.543V15.0254H17.293C18.2212 15.0254 19.1115 15.3941 19.7678 16.0505C20.4242 16.7069 20.793 17.5971 20.793 18.5254C20.793 19.4536 20.4242 20.3439 19.7678 21.0003C19.1115 21.6566 18.2212 22.0254 17.293 22.0254Z" fill="#C82859"/>
</svg>
