<svg width="29" height="28" viewBox="0 0 29 28" fill="none" xmlns="http://www.w3.org/2000/svg">
<path d="M16.959 13.125H15.209V6.125H16.084C17.0122 6.125 17.9025 6.49375 18.5589 7.15013C19.2152 7.8065 19.584 8.69674 19.584 9.625C19.584 9.85706 19.6762 10.0796 19.8403 10.2437C20.0044 10.4078 20.2269 10.5 20.459 10.5C20.691 10.5 20.9136 10.4078 21.0777 10.2437C21.2418 10.0796 21.334 9.85706 21.334 9.625C21.3325 8.23306 20.7789 6.89854 19.7947 5.91429C18.8104 4.93004 17.4759 4.37645 16.084 4.375H15.209V2.625C15.209 2.39294 15.1168 2.17038 14.9527 2.00628C14.7886 1.84219 14.566 1.75 14.334 1.75C14.1019 1.75 13.8794 1.84219 13.7153 2.00628C13.5512 2.17038 13.459 2.39294 13.459 2.625V4.375H12.584C11.1916 4.375 9.85624 4.92812 8.87167 5.91269C7.88711 6.89726 7.33398 8.23261 7.33398 9.625C7.33398 11.0174 7.88711 12.3527 8.87167 13.3373C9.85624 14.3219 11.1916 14.875 12.584 14.875H13.459V21.875H11.709C10.7807 21.875 9.89049 21.5063 9.23411 20.8499C8.57773 20.1935 8.20898 19.3033 8.20898 18.375C8.20898 18.1429 8.1168 17.9204 7.9527 17.7563C7.78861 17.5922 7.56605 17.5 7.33398 17.5C7.10192 17.5 6.87936 17.5922 6.71527 17.7563C6.55117 17.9204 6.45898 18.1429 6.45898 18.375C6.46043 19.7669 7.01402 21.1015 7.99827 22.0857C8.98253 23.07 10.317 23.6236 11.709 23.625H13.459V25.375C13.459 25.6071 13.5512 25.8296 13.7153 25.9937C13.8794 26.1578 14.1019 26.25 14.334 26.25C14.566 26.25 14.7886 26.1578 14.9527 25.9937C15.1168 25.8296 15.209 25.6071 15.209 25.375V23.625H16.959C18.3514 23.625 19.6867 23.0719 20.6713 22.0873C21.6559 21.1027 22.209 19.7674 22.209 18.375C22.209 16.9826 21.6559 15.6473 20.6713 14.6627C19.6867 13.6781 18.3514 13.125 16.959 13.125ZM12.584 13.125C11.6557 13.125 10.7655 12.7563 10.1091 12.0999C9.45273 11.4435 9.08398 10.5533 9.08398 9.625C9.08398 8.69674 9.45273 7.8065 10.1091 7.15013C10.7655 6.49375 11.6557 6.125 12.584 6.125H13.459V13.125H12.584ZM16.959 21.875H15.209V14.875H16.959C17.8872 14.875 18.7775 15.2437 19.4339 15.9001C20.0902 16.5565 20.459 17.4467 20.459 18.375C20.459 19.3033 20.0902 20.1935 19.4339 20.8499C18.7775 21.5063 17.8872 21.875 16.959 21.875Z" fill="#C82859"/>
</svg>
