<svg width="17" height="16" viewBox="0 0 17 16" fill="none" xmlns="http://www.w3.org/2000/svg">
<path d="M9.25 8C9.25 8.14834 9.20601 8.29334 9.1236 8.41668C9.04119 8.54001 8.92406 8.63614 8.78701 8.69291C8.64997 8.74967 8.49917 8.76453 8.35368 8.73559C8.2082 8.70665 8.07456 8.63522 7.96967 8.53033C7.86478 8.42544 7.79335 8.2918 7.76441 8.14632C7.73547 8.00083 7.75033 7.85003 7.80709 7.71299C7.86386 7.57594 7.95999 7.45881 8.08332 7.3764C8.20666 7.29399 8.35166 7.25 8.5 7.25C8.69891 7.25 8.88968 7.32902 9.03033 7.46967C9.17098 7.61032 9.25 7.80109 9.25 8ZM12.75 7.25C12.6017 7.25 12.4567 7.29399 12.3333 7.3764C12.21 7.45881 12.1139 7.57594 12.0571 7.71299C12.0003 7.85003 11.9855 8.00083 12.0144 8.14632C12.0434 8.2918 12.1148 8.42544 12.2197 8.53033C12.3246 8.63522 12.4582 8.70665 12.6037 8.73559C12.7492 8.76453 12.9 8.74967 13.037 8.69291C13.1741 8.63614 13.2912 8.54001 13.3736 8.41668C13.456 8.29334 13.5 8.14834 13.5 8C13.5 7.80109 13.421 7.61032 13.2803 7.46967C13.1397 7.32902 12.9489 7.25 12.75 7.25ZM4.25 7.25C4.10166 7.25 3.95666 7.29399 3.83332 7.3764C3.70999 7.45881 3.61386 7.57594 3.55709 7.71299C3.50032 7.85003 3.48547 8.00083 3.51441 8.14632C3.54335 8.2918 3.61478 8.42544 3.71967 8.53033C3.82456 8.63522 3.9582 8.70665 4.10368 8.73559C4.24917 8.76453 4.39997 8.74967 4.53701 8.69291C4.67406 8.63614 4.79119 8.54001 4.8736 8.41668C4.95601 8.29334 5 8.14834 5 8C5 7.80109 4.92098 7.61032 4.78033 7.46967C4.63968 7.32902 4.44891 7.25 4.25 7.25Z" fill="#2D3237"/>
</svg>
