<svg width="108" height="22" viewBox="0 0 108 22" fill="none" xmlns="http://www.w3.org/2000/svg">
<path d="M12.8014 4.55629L6.61321 8.50613L12.8014 12.456L6.61321 16.4058L0.425049 12.4231L6.61321 8.47322L0.425049 4.55629L6.61321 0.606445L12.8014 4.55629ZM6.58029 17.6566L12.7684 13.7068L18.9566 17.6566L12.7684 21.6064L6.58029 17.6566ZM12.8014 12.4231L18.9895 8.47322L12.8014 4.55629L18.9566 0.606445L25.1448 4.55629L18.9566 8.50613L25.1448 12.456L18.9566 16.4058L12.8014 12.4231Z" fill="#5A5F63"/>
<path d="M29.9824 4.55671H34.9856C38.1784 4.55671 40.8117 6.39997 40.8117 10.6131V11.5019C40.8117 15.7479 38.343 17.657 35.0844 17.657H29.9824V4.55671ZM32.7803 6.92662V15.2542H34.9198C36.7301 15.2542 37.948 14.0693 37.948 11.436V10.7448C37.948 8.11157 36.6643 6.92662 34.821 6.92662H32.7803ZM42.2929 7.05828H44.5312L44.8932 9.52693C45.3212 7.84825 46.4074 6.95953 48.3823 6.95953H49.0735V9.79025H47.9215C45.6503 9.79025 45.0907 10.5802 45.0907 12.8185V17.6899H42.3258V7.05828H42.2929ZM49.6331 12.5881V12.2918C49.6331 8.73696 51.9043 6.79495 54.9984 6.79495C58.1583 6.79495 60.3636 8.73696 60.3636 12.2918V12.5881C60.3636 16.0771 58.2241 17.9533 54.9984 17.9533C51.5751 17.9203 49.6331 16.0771 49.6331 12.5881ZM57.5329 12.5551V12.2918C57.5329 10.3169 56.5454 9.13194 54.9655 9.13194C53.4184 9.13194 52.398 10.2182 52.398 12.2918V12.5551C52.398 14.4642 53.3855 15.5504 54.9655 15.5504C56.5454 15.5175 57.5329 14.4642 57.5329 12.5551ZM61.8119 7.05828H64.116L64.3794 9.06611C64.9389 7.71659 66.1239 6.79495 67.8684 6.79495C70.5675 6.79495 72.345 8.73696 72.345 12.3247V12.621C72.345 16.11 70.37 17.9533 67.8684 17.9533C66.1897 17.9533 65.0377 17.1962 64.4781 15.9783V21.3435H61.779L61.8119 7.05828ZM69.5471 12.5551V12.3247C69.5471 10.2182 68.4609 9.16486 67.0126 9.16486C65.4656 9.16486 64.4452 10.3498 64.4452 12.3247V12.5222C64.4452 14.3984 65.4327 15.5834 66.9797 15.5834C68.5597 15.5504 69.5471 14.5301 69.5471 12.5551ZM76.4265 15.715L76.1961 17.657H73.8262V3.50342H76.5253V8.93445C77.1177 7.55201 78.3027 6.79495 79.9814 6.79495C82.5159 6.82787 84.3921 8.57238 84.3921 12.0943V12.4235C84.3921 15.9454 82.6147 17.9533 79.9156 17.9533C78.1381 17.9203 76.9861 17.0975 76.4265 15.715ZM81.5614 12.4235V12.1602C81.5614 10.2182 80.5081 9.13194 79.0269 9.13194C77.5127 9.13194 76.4594 10.3498 76.4594 12.1931V12.4235C76.4594 14.3984 77.4798 15.5504 78.9939 15.5504C80.6068 15.5504 81.5614 14.5301 81.5614 12.4235ZM85.5771 12.5881V12.2918C85.5771 8.73696 87.8483 6.79495 90.9424 6.79495C94.1023 6.79495 96.3076 8.73696 96.3076 12.2918V12.5881C96.3076 16.0771 94.1352 17.9533 90.9424 17.9533C87.5191 17.9203 85.5771 16.0771 85.5771 12.5881ZM93.5098 12.5551V12.2918C93.5098 10.3169 92.5223 9.13194 90.9424 9.13194C89.3953 9.13194 88.3749 10.2182 88.3749 12.2918V12.5551C88.3749 14.4642 89.3624 15.5504 90.9424 15.5504C92.5223 15.5175 93.5098 14.4642 93.5098 12.5551ZM99.9283 12.1602L96.2089 7.05828H99.4017L101.541 10.2511L103.714 7.05828H106.874L103.088 12.1272L107.071 17.657H103.944L101.508 14.1351L99.1384 17.657H95.8797L99.9283 12.1602Z" fill="#5A5F63"/>
</svg>
