<svg width="54" height="54" viewBox="0 0 54 54" fill="none" xmlns="http://www.w3.org/2000/svg">
<g filter="url(#filter0_d_3089_12284)">
<rect x="7" y="5.63525" width="40" height="40" rx="6.66667" fill="#FCEAEF" shape-rendering="crispEdges"/>
<path d="M37.6402 18.4339C37.562 18.3403 37.4642 18.265 37.3537 18.2133C37.2432 18.1617 37.1226 18.1349 37.0007 18.1349H20.1965L19.5632 14.6526C19.5283 14.4606 19.4271 14.2869 19.2773 14.1619C19.1275 14.0368 18.9385 13.9683 18.7434 13.9683H16.1673C15.9463 13.9683 15.7343 14.0561 15.5781 14.2123C15.4218 14.3686 15.334 14.5806 15.334 14.8016C15.334 15.0226 15.4218 15.2346 15.5781 15.3909C15.7343 15.5471 15.9463 15.6349 16.1673 15.6349H18.0423L20.7048 30.2485C20.7832 30.6819 20.9748 31.0868 21.26 31.4224C20.8663 31.7902 20.5822 32.2597 20.439 32.7791C20.2959 33.2985 20.2995 33.8473 20.4492 34.3648C20.599 34.8823 20.8892 35.3482 21.2876 35.7108C21.6859 36.0735 22.177 36.3187 22.7062 36.4193C23.2355 36.5199 23.7822 36.472 24.2859 36.2808C24.7896 36.0896 25.2305 35.7627 25.5597 35.3363C25.8889 34.9098 26.0935 34.4005 26.151 33.8649C26.2084 33.3292 26.1163 32.7881 25.885 32.3016H30.6163C30.4298 32.6919 30.3334 33.1191 30.334 33.5516C30.334 34.1285 30.505 34.6924 30.8255 35.172C31.146 35.6517 31.6015 36.0255 32.1345 36.2462C32.6674 36.467 33.2539 36.5248 33.8197 36.4122C34.3854 36.2997 34.9051 36.0219 35.313 35.614C35.7209 35.2061 35.9987 34.6864 36.1113 34.1206C36.2238 33.5548 36.1661 32.9684 35.9453 32.4354C35.7245 31.9025 35.3507 31.447 34.8711 31.1265C34.3914 30.806 33.8275 30.6349 33.2507 30.6349H23.1642C22.969 30.6349 22.7801 30.5664 22.6303 30.4413C22.4805 30.3162 22.3793 30.1426 22.3444 29.9506L22.0142 28.1349H34.0975C34.683 28.1348 35.2499 27.9293 35.6993 27.5541C36.1487 27.1789 36.4522 26.6578 36.5569 26.0818L37.8236 19.1172C37.845 18.9968 37.8397 18.8732 37.808 18.7551C37.7763 18.637 37.7191 18.5274 37.6402 18.4339ZM24.5007 33.5516C24.5007 33.7988 24.4273 34.0405 24.29 34.2461C24.1526 34.4516 23.9574 34.6118 23.729 34.7064C23.5006 34.8011 23.2493 34.8258 23.0068 34.7776C22.7643 34.7293 22.5416 34.6103 22.3668 34.4355C22.192 34.2607 22.0729 34.0379 22.0247 33.7955C21.9764 33.553 22.0012 33.3016 22.0958 33.0732C22.1904 32.8448 22.3506 32.6496 22.5562 32.5123C22.7617 32.3749 23.0034 32.3016 23.2507 32.3016C23.5822 32.3016 23.9001 32.4333 24.1345 32.6677C24.369 32.9021 24.5007 33.2201 24.5007 33.5516ZM34.5007 33.5516C34.5007 33.7988 34.4273 34.0405 34.29 34.2461C34.1526 34.4516 33.9574 34.6118 33.729 34.7064C33.5006 34.8011 33.2493 34.8258 33.0068 34.7776C32.7643 34.7293 32.5416 34.6103 32.3668 34.4355C32.192 34.2607 32.0729 34.0379 32.0247 33.7955C31.9764 33.553 32.0012 33.3016 32.0958 33.0732C32.1904 32.8448 32.3506 32.6496 32.5562 32.5123C32.7617 32.3749 33.0034 32.3016 33.2507 32.3016C33.5822 32.3016 33.9001 32.4333 34.1345 32.6677C34.369 32.9021 34.5007 33.2201 34.5007 33.5516ZM34.9173 25.7839C34.8823 25.9764 34.7807 26.1505 34.6303 26.2756C34.4798 26.4008 34.2901 26.469 34.0944 26.4683H21.7111L20.4996 19.8016H36.0017L34.9173 25.7839Z" fill="#C82859"/>
</g>
<defs>
<filter id="filter0_d_3089_12284" x="0.333333" y="0.635254" width="53.3333" height="53.3333" filterUnits="userSpaceOnUse" color-interpolation-filters="sRGB">
<feFlood flood-opacity="0" result="BackgroundImageFix"/>
<feColorMatrix in="SourceAlpha" type="matrix" values="0 0 0 0 0 0 0 0 0 0 0 0 0 0 0 0 0 0 127 0" result="hardAlpha"/>
<feOffset dy="1.66667"/>
<feGaussianBlur stdDeviation="3.33333"/>
<feComposite in2="hardAlpha" operator="out"/>
<feColorMatrix type="matrix" values="0 0 0 0 0 0 0 0 0 0 0 0 0 0 0 0 0 0 0.08 0"/>
<feBlend mode="normal" in2="BackgroundImageFix" result="effect1_dropShadow_3089_12284"/>
<feBlend mode="normal" in="SourceGraphic" in2="effect1_dropShadow_3089_12284" result="shape"/>
</filter>
</defs>
</svg>
