<svg width="54" height="54" viewBox="0 0 54 54" fill="none" xmlns="http://www.w3.org/2000/svg">
<g filter="url(#filter0_d_3089_12316)">
<rect x="7" y="5.63525" width="40" height="40" rx="6.66667" fill="#FCEAEF" shape-rendering="crispEdges"/>
<path d="M39.8917 21.5662L27.3917 14.8995C27.2712 14.8353 27.1367 14.8018 27.0001 14.8018C26.8635 14.8018 26.729 14.8353 26.6084 14.8995L14.1084 21.5662C13.9751 21.6373 13.8636 21.7432 13.7858 21.8728C13.7081 22.0023 13.667 22.1505 13.667 22.3016C13.667 22.4527 13.7081 22.6009 13.7858 22.7305C13.8636 22.86 13.9751 22.966 14.1084 23.037L17.0001 24.5797V29.6235C16.9992 30.0328 17.1498 30.428 17.423 30.7329C18.7876 32.2527 21.8449 34.8016 27.0001 34.8016C28.7094 34.8158 30.4059 34.5061 32.0001 33.8891V37.3016C32.0001 37.5226 32.0879 37.7346 32.2441 37.8909C32.4004 38.0472 32.6124 38.135 32.8334 38.135C33.0544 38.135 33.2664 38.0472 33.4227 37.8909C33.5789 37.7346 33.6667 37.5226 33.6667 37.3016V33.0839C34.7534 32.4566 35.7354 31.6634 36.5771 30.7329C36.8503 30.428 37.0009 30.0328 37.0001 29.6235V24.5797L39.8917 23.037C40.0251 22.966 40.1366 22.86 40.2143 22.7305C40.2921 22.6009 40.3331 22.4527 40.3331 22.3016C40.3331 22.1505 40.2921 22.0023 40.2143 21.8728C40.1366 21.7432 40.0251 21.6373 39.8917 21.5662ZM27.0001 33.135C22.4928 33.135 19.8417 30.9329 18.6667 29.6235V25.4683L26.6084 29.7037C26.729 29.7679 26.8635 29.8015 27.0001 29.8015C27.1367 29.8015 27.2712 29.7679 27.3917 29.7037L32.0001 27.2464V32.0735C30.6876 32.686 29.0334 33.135 27.0001 33.135ZM35.3334 29.6193C34.8339 30.1736 34.275 30.6714 33.6667 31.1037V26.3568L35.3334 25.4683V29.6193ZM33.2501 24.6912L33.2271 24.6777L27.3938 21.5662C27.1992 21.4668 26.9733 21.4478 26.7648 21.5134C26.5563 21.5789 26.382 21.7237 26.2792 21.9166C26.1765 22.1095 26.1537 22.335 26.2156 22.5446C26.2776 22.7542 26.4194 22.931 26.6105 23.037L31.4792 25.635L27.0001 28.0235L16.2709 22.3016L27.0001 16.5797L37.7292 22.3016L33.2501 24.6912Z" fill="#C82859"/>
</g>
<defs>
<filter id="filter0_d_3089_12316" x="0.333333" y="0.635254" width="53.3333" height="53.3333" filterUnits="userSpaceOnUse" color-interpolation-filters="sRGB">
<feFlood flood-opacity="0" result="BackgroundImageFix"/>
<feColorMatrix in="SourceAlpha" type="matrix" values="0 0 0 0 0 0 0 0 0 0 0 0 0 0 0 0 0 0 127 0" result="hardAlpha"/>
<feOffset dy="1.66667"/>
<feGaussianBlur stdDeviation="3.33333"/>
<feComposite in2="hardAlpha" operator="out"/>
<feColorMatrix type="matrix" values="0 0 0 0 0 0 0 0 0 0 0 0 0 0 0 0 0 0 0.08 0"/>
<feBlend mode="normal" in2="BackgroundImageFix" result="effect1_dropShadow_3089_12316"/>
<feBlend mode="normal" in="SourceGraphic" in2="effect1_dropShadow_3089_12316" result="shape"/>
</filter>
</defs>
</svg>
