<svg width="24" height="23" viewBox="0 0 24 23" fill="none" xmlns="http://www.w3.org/2000/svg">
<path d="M11.6364 23C18.0632 23 23.2728 17.8514 23.2728 11.5V3.45C23.2728 2.535 22.905 1.65748 22.2503 1.01048C21.5956 0.363481 20.7077 0 19.7818 0H12.2182V5.04505C12.2182 6.1962 12.2892 7.38875 12.9001 8.36855C13.3374 9.07074 13.9225 9.67176 14.6156 10.1308C15.3087 10.5899 16.0935 10.8962 16.917 11.0291L17.1398 11.0647C17.2317 11.0958 17.3114 11.1544 17.3679 11.2325C17.4244 11.3105 17.4547 11.4041 17.4547 11.5C17.4547 11.5959 17.4244 11.6895 17.3679 11.7675C17.3114 11.8456 17.2317 11.9042 17.1398 11.9353L16.917 11.9709C15.7139 12.1652 14.6029 12.7279 13.7409 13.5798C12.8789 14.4317 12.3094 15.5297 12.1129 16.7187L12.0768 16.9389C12.0454 17.0297 11.9861 17.1085 11.9071 17.1643C11.8281 17.2201 11.7335 17.2501 11.6364 17.2501C11.5393 17.2501 11.4446 17.2201 11.3657 17.1643C11.2867 17.1085 11.2274 17.0297 11.196 16.9389L11.1599 16.7187C11.0254 15.9049 10.7154 15.1293 10.2509 14.4443C9.78643 13.7594 9.17831 13.1812 8.46781 12.7489C7.47639 12.1452 6.2697 12.075 5.1049 12.075H0.0139915C0.318282 18.1591 5.40512 23 11.6364 23Z" fill="#151719"/>
<path d="M0 10.9251H5.10487C6.26967 10.9251 7.47636 10.8549 8.46778 10.2512C9.24277 9.77926 9.89515 9.13453 10.3727 8.36862C10.9836 7.38882 11.0545 6.19627 11.0545 5.04512V6.94955e-05H3.49091C2.56506 6.94955e-05 1.67714 0.363551 1.02246 1.01055C0.367791 1.65755 0 2.53507 0 3.45007V10.9251Z" fill="#151719"/>
</svg>
