<svg width="32" height="33" viewBox="0 0 32 33" fill="none" xmlns="http://www.w3.org/2000/svg">
<path d="M30.9137 15.7454C30.87 15.6466 29.8112 13.2979 27.4575 10.9441C24.3212 7.80789 20.36 6.15039 16 6.15039C11.64 6.15039 7.67874 7.80789 4.54249 10.9441C2.18874 13.2979 1.12499 15.6504 1.08624 15.7454C1.02938 15.8733 1 16.0117 1 16.1516C1 16.2916 1.02938 16.43 1.08624 16.5579C1.12999 16.6566 2.18874 19.0041 4.54249 21.3579C7.67874 24.4929 11.64 26.1504 16 26.1504C20.36 26.1504 24.3212 24.4929 27.4575 21.3579C29.8112 19.0041 30.87 16.6566 30.9137 16.5579C30.9706 16.43 31 16.2916 31 16.1516C31 16.0117 30.9706 15.8733 30.9137 15.7454ZM16 24.1504C12.1525 24.1504 8.79124 22.7516 6.00874 19.9941C4.86704 18.8588 3.89572 17.5641 3.12499 16.1504C3.89551 14.7366 4.86686 13.4419 6.00874 12.3066C8.79124 9.54914 12.1525 8.15039 16 8.15039C19.8475 8.15039 23.2087 9.54914 25.9912 12.3066C27.1352 13.4416 28.1086 14.7363 28.8812 16.1504C27.98 17.8329 24.0537 24.1504 16 24.1504ZM16 10.1504C14.8133 10.1504 13.6533 10.5023 12.6666 11.1616C11.6799 11.8209 10.9108 12.7579 10.4567 13.8543C10.0026 14.9506 9.88377 16.157 10.1153 17.3209C10.3468 18.4848 10.9182 19.5539 11.7573 20.393C12.5965 21.2321 13.6656 21.8036 14.8294 22.0351C15.9933 22.2666 17.1997 22.1478 18.2961 21.6937C19.3924 21.2395 20.3295 20.4705 20.9888 19.4838C21.6481 18.4971 22 17.3371 22 16.1504C21.9983 14.5596 21.3657 13.0344 20.2408 11.9096C19.1159 10.7847 17.5908 10.152 16 10.1504ZM16 20.1504C15.2089 20.1504 14.4355 19.9158 13.7777 19.4763C13.1199 19.0367 12.6072 18.412 12.3045 17.6811C12.0017 16.9502 11.9225 16.146 12.0768 15.37C12.2312 14.5941 12.6122 13.8814 13.1716 13.322C13.731 12.7626 14.4437 12.3816 15.2196 12.2272C15.9956 12.0729 16.7998 12.1521 17.5307 12.4549C18.2616 12.7576 18.8863 13.2703 19.3259 13.9281C19.7654 14.5859 20 15.3593 20 16.1504C20 17.2113 19.5786 18.2287 18.8284 18.9788C18.0783 19.729 17.0609 20.1504 16 20.1504Z" fill="#C82859"/>
</svg>
