<svg width="103" height="23" viewBox="0 0 103 23" fill="none" xmlns="http://www.w3.org/2000/svg">
<path d="M25.4402 18.7754V2.45557H35.3988V5.61424H29.2131V10.0013H35.3988V13.1161H29.2131V18.7754H25.4402Z" fill="#5A5F63"/>
<path d="M37.8989 18.7761V7.54528H41.4524V9.87042C41.6279 9.08075 42.0228 8.42269 42.5931 7.98399C43.1634 7.54528 43.8215 7.32593 44.5234 7.32593C44.8744 7.32593 45.2253 7.3698 45.4447 7.41367V10.7478C45.006 10.704 44.655 10.6601 44.3918 10.6601C42.4176 10.6601 41.4524 11.9323 41.4524 14.3891V18.7323H37.8989V18.7761Z" fill="#5A5F63"/>
<path d="M51.5882 19.0396C49.965 19.0396 48.6489 18.4693 47.7276 17.3725C46.7624 16.2758 46.3237 14.828 46.3237 13.1171C46.3237 11.4061 46.8063 10.0023 47.7715 8.86166C48.7366 7.7649 50.0527 7.19458 51.6321 7.19458C52.4217 7.19458 53.1237 7.37006 53.7379 7.72103C54.3521 8.07199 54.8346 8.5107 55.1417 9.12488V7.50167H58.6953V18.7325H55.1417V17.1532C54.8346 17.7235 54.3521 18.1622 53.694 18.5132C53.0798 18.908 52.3779 19.0396 51.5882 19.0396ZM52.5972 16.1003C53.4308 16.1003 54.1327 15.8371 54.5714 15.2668C55.0101 14.6964 55.2733 13.9945 55.2733 13.161C55.2733 12.3274 55.054 11.6255 54.5714 11.0552C54.0888 10.4849 53.4308 10.2216 52.5972 10.2216C51.8076 10.2216 51.1495 10.4849 50.6669 11.0552C50.1843 11.5816 49.9211 12.3274 49.9211 13.161C49.9211 14.0384 50.1843 14.7403 50.6669 15.3106C51.1495 15.8371 51.8076 16.1003 52.5972 16.1003Z" fill="#5A5F63"/>
<path d="M61.6335 18.776V7.54513H65.1871V9.16834C65.4503 8.59802 65.8451 8.11545 66.4155 7.76448C66.9858 7.41352 67.6438 7.23804 68.3896 7.23804C70.1445 7.23804 71.329 7.93997 71.8993 9.29995C72.2064 8.68576 72.689 8.15932 73.3031 7.80835C73.9612 7.41352 74.6631 7.23804 75.4528 7.23804C78.1289 7.23804 79.445 8.7735 79.445 11.8006V18.776H75.8476V12.4586C75.8476 10.967 75.2773 10.2651 74.1806 10.2651C72.9083 10.2651 72.2941 11.1864 72.2941 13.0289V18.8199H68.7845V12.4148C68.7845 10.967 68.2141 10.2212 67.1174 10.2212C66.5032 10.2212 66.0206 10.4406 65.7135 10.8354C65.4064 11.2303 65.2309 11.9761 65.2309 12.9851V18.776H61.6335Z" fill="#5A5F63"/>
<path d="M93.3963 12.5464C93.3963 13.0289 93.3524 13.5115 93.3085 14.1257H85.017C85.0608 14.8715 85.2802 15.4418 85.7628 15.8367C86.2454 16.2315 86.8595 16.4508 87.6492 16.4508C88.746 16.4508 89.4479 16.0999 89.755 15.398H93.2647C93.0892 16.4947 92.475 17.416 91.466 18.0741C90.4131 18.776 89.1847 19.1269 87.6931 19.1269C85.7628 19.1269 84.2712 18.6005 83.1744 17.5476C82.0776 16.4947 81.5073 15.047 81.5073 13.1606C81.5073 11.318 82.0776 9.87027 83.1744 8.81738C84.2712 7.76448 85.7628 7.23804 87.5615 7.23804C89.3163 7.23804 90.7202 7.72061 91.8169 8.72963C92.826 9.69479 93.3963 10.967 93.3963 12.5464ZM84.9731 11.8883H89.8427C89.8427 11.1425 89.6234 10.5722 89.2286 10.1774C88.8337 9.78253 88.2634 9.56317 87.4737 9.56317C86.7279 9.56317 86.1137 9.78253 85.675 10.2212C85.2363 10.6599 85.017 11.2303 84.9731 11.8883Z" fill="#5A5F63"/>
<path d="M95.4141 18.7761V7.54528H98.9676V9.87042C99.1431 9.08075 99.5379 8.42269 100.108 7.98399C100.679 7.54528 101.337 7.32593 102.039 7.32593C102.39 7.32593 102.74 7.3698 102.96 7.41367V10.7478C102.521 10.704 102.17 10.6601 101.907 10.6601C99.9327 10.6601 98.9676 11.9323 98.9676 14.3891V18.7323H95.4141V18.7761Z" fill="#5A5F63"/>
<path d="M15.4402 0.106445V7.43978H8.1068L0.773438 0.106445H15.4402ZM0.773438 7.43978H8.1068L15.4402 14.7731H8.1068V22.1064L0.773438 14.7731V7.43978Z" fill="#5A5F63"/>
</svg>
