<svg width="32" height="33" viewBox="0 0 32 33" fill="none" xmlns="http://www.w3.org/2000/svg">
<path d="M16 3.68896C13.4288 3.68896 10.9154 4.4514 8.77759 5.87986C6.63975 7.30832 4.97351 9.33864 3.98957 11.7141C3.00563 14.0895 2.74819 16.7034 3.2498 19.2251C3.75141 21.7469 4.98953 24.0633 6.80762 25.8814C8.6257 27.6994 10.9421 28.9376 13.4638 29.4392C15.9856 29.9408 18.5995 29.6833 20.9749 28.6994C23.3503 27.7155 25.3807 26.0492 26.8091 23.9114C28.2376 21.7735 29 19.2601 29 16.689C28.996 13.2424 27.6251 9.93807 25.188 7.50096C22.7509 5.06385 19.4466 3.69293 16 3.68896ZM26.9525 15.689H21.9738C21.75 11.1252 19.9925 7.89772 18.5513 5.98897C20.7891 6.52636 22.8026 7.75068 24.3095 9.49024C25.8164 11.2298 26.741 13.3974 26.9538 15.689H26.9525ZM12.0288 17.689H19.9713C19.6825 22.8902 17.1925 26.0777 16 27.314C14.8063 26.0765 12.3175 22.889 12.0288 17.689ZM12.0288 15.689C12.3175 10.4877 14.8075 7.30021 16 6.06396C17.1938 7.30521 19.6825 10.4927 19.9713 15.689H12.0288ZM13.4488 5.98897C12.0075 7.89772 10.25 11.1252 10.0263 15.689H5.04626C5.259 13.3974 6.18364 11.2298 7.69051 9.49024C9.19738 7.75068 11.2109 6.52636 13.4488 5.98897ZM5.04626 17.689H10.0263C10.2538 22.2527 12.0075 25.4802 13.4488 27.389C11.2109 26.8516 9.19738 25.6273 7.69051 23.8877C6.18364 22.1481 5.259 19.9806 5.04626 17.689ZM18.5463 27.389C19.9875 25.4802 21.7413 22.2527 21.9688 17.689H26.9488C26.7363 19.9799 25.8124 22.147 24.3065 23.8865C22.8006 25.626 20.7882 26.8507 18.5513 27.389H18.5463Z" fill="#C82859"/>
</svg>
