<svg width="54" height="54" viewBox="0 0 54 54" fill="none" xmlns="http://www.w3.org/2000/svg">
<g filter="url(#filter0_d_2875_19503)">
<rect x="6.66797" y="5.15039" width="40" height="40" rx="6.66667" fill="#FCEAEF" shape-rendering="crispEdges"/>
<path d="M39.8247 23.0577L37.1663 17.739C37.0684 17.5432 36.9329 17.3686 36.7675 17.2253C36.6021 17.0819 36.41 16.9725 36.2024 16.9033C35.9947 16.8342 35.7754 16.8066 35.5571 16.8222C35.3387 16.8378 35.1256 16.8962 34.9299 16.9942L32.3392 18.289L26.882 16.8452C26.7419 16.8088 26.5949 16.8088 26.4549 16.8452L20.9976 18.289L18.407 16.9942C18.2112 16.8962 17.9981 16.8378 17.7797 16.8222C17.5614 16.8066 17.3421 16.8342 17.1345 16.9033C16.9268 16.9725 16.7348 17.0819 16.5694 17.2253C16.404 17.3686 16.2684 17.5432 16.1705 17.739L13.5122 23.0567C13.4142 23.2524 13.3558 23.4655 13.3402 23.6839C13.3246 23.9022 13.3522 24.1215 13.4213 24.3292C13.4905 24.5368 13.5999 24.7289 13.7433 24.8943C13.8866 25.0597 14.0612 25.1952 14.257 25.2931L17.0695 26.7004L22.8497 30.8285C22.9348 30.8891 23.0306 30.9333 23.132 30.9587L29.7986 32.6254C29.9382 32.6604 30.0845 32.6587 30.2233 32.6203C30.362 32.582 30.4885 32.5084 30.5903 32.4067L36.3267 26.6692L39.0788 25.2931C39.4739 25.0953 39.7743 24.7488 39.914 24.3296C40.0536 23.9104 40.0211 23.4529 39.8236 23.0577H39.8247ZM34.107 26.5337L30.5226 23.6629C30.362 23.5343 30.1595 23.4697 29.9541 23.4814C29.7488 23.4931 29.555 23.5804 29.4101 23.7265C27.5549 25.5952 25.4872 25.3587 24.1684 24.5254L28.6726 20.1504H31.9861L34.8205 25.8181L34.107 26.5337ZM17.6611 18.4837L19.7934 19.5483L17.1299 24.866L15.0017 23.8025L17.6611 18.4837ZM29.7445 30.8931L23.6913 29.3806L18.5663 25.7202L21.483 19.8869L26.6684 18.5129L27.6892 18.7827L23.0017 23.3327L22.9934 23.3421C22.817 23.5185 22.6824 23.7323 22.5996 23.9678C22.5168 24.2032 22.488 24.4542 22.5152 24.7022C22.5424 24.9503 22.6249 25.1891 22.7567 25.4009C22.8885 25.6128 23.0663 25.7924 23.2767 25.9265C25.4184 27.2942 28.0028 27.0723 30.0382 25.4056L32.9184 27.7192L29.7445 30.8931ZM36.2028 24.865L33.5445 19.5525L35.6757 18.4837L38.3351 23.8025L36.2028 24.865ZM27.0622 34.5181C27.0171 34.6982 26.9133 34.8581 26.767 34.9725C26.6208 35.0869 26.4405 35.1491 26.2549 35.1494C26.1864 35.1493 26.1182 35.1409 26.0517 35.1244L21.7111 34.039C21.6096 34.0139 21.5138 33.9697 21.4288 33.9087L18.684 31.9483C18.5153 31.8158 18.4041 31.6233 18.3737 31.4109C18.3433 31.1985 18.3961 30.9825 18.5209 30.808C18.6457 30.6335 18.8331 30.5139 19.0439 30.474C19.2548 30.4342 19.4729 30.4772 19.6528 30.5942L22.2684 32.4629L26.4601 33.5087C26.6744 33.5624 26.8587 33.6989 26.9724 33.8884C27.0861 34.0779 27.1199 34.3048 27.0663 34.5192L27.0622 34.5181Z" fill="#C82859"/>
</g>
<defs>
<filter id="filter0_d_2875_19503" x="0.00130177" y="0.15039" width="53.3333" height="53.3333" filterUnits="userSpaceOnUse" color-interpolation-filters="sRGB">
<feFlood flood-opacity="0" result="BackgroundImageFix"/>
<feColorMatrix in="SourceAlpha" type="matrix" values="0 0 0 0 0 0 0 0 0 0 0 0 0 0 0 0 0 0 127 0" result="hardAlpha"/>
<feOffset dy="1.66667"/>
<feGaussianBlur stdDeviation="3.33333"/>
<feComposite in2="hardAlpha" operator="out"/>
<feColorMatrix type="matrix" values="0 0 0 0 0 0 0 0 0 0 0 0 0 0 0 0 0 0 0.08 0"/>
<feBlend mode="normal" in2="BackgroundImageFix" result="effect1_dropShadow_2875_19503"/>
<feBlend mode="normal" in="SourceGraphic" in2="effect1_dropShadow_2875_19503" result="shape"/>
</filter>
</defs>
</svg>
