<svg width="29" height="29" viewBox="0 0 29 29" fill="none" xmlns="http://www.w3.org/2000/svg">
<path d="M22.4137 6.12883C21.367 5.07159 20.1221 4.23119 18.7501 3.65576C17.3782 3.08032 15.9062 2.78116 14.4184 2.77539H14.332C11.3152 2.77539 8.42192 3.97382 6.28869 6.10705C4.15547 8.24028 2.95703 11.1336 2.95703 14.1504V20.2754C2.95703 20.9716 3.23359 21.6393 3.72588 22.1315C4.21816 22.6238 4.88584 22.9004 5.58203 22.9004H7.33203C8.02822 22.9004 8.6959 22.6238 9.18819 22.1315C9.68047 21.6393 9.95703 20.9716 9.95703 20.2754V15.9004C9.95703 15.2042 9.68047 14.5365 9.18819 14.0442C8.6959 13.552 8.02822 13.2754 7.33203 13.2754H4.74641C4.91515 11.4509 5.60045 9.71239 6.72196 8.2635C7.84348 6.81462 9.35476 5.71542 11.0787 5.09476C12.8026 4.47409 14.6677 4.35767 16.4554 4.75913C18.2431 5.1606 19.8793 6.06332 21.1723 7.36148C22.7527 8.94994 23.7248 11.0431 23.9187 13.2754H21.332C20.6358 13.2754 19.9682 13.552 19.4759 14.0442C18.9836 14.5365 18.707 15.2042 18.707 15.9004V20.2754C18.707 20.9716 18.9836 21.6393 19.4759 22.1315C19.9682 22.6238 20.6358 22.9004 21.332 22.9004H23.957C23.957 23.5966 23.6805 24.2643 23.1882 24.7565C22.6959 25.2488 22.0282 25.5254 21.332 25.5254H15.207C14.975 25.5254 14.7524 25.6176 14.5883 25.7817C14.4242 25.9458 14.332 26.1683 14.332 26.4004C14.332 26.6325 14.4242 26.855 14.5883 27.0191C14.7524 27.1832 14.975 27.2754 15.207 27.2754H21.332C22.4924 27.2754 23.6052 26.8145 24.4256 25.994C25.2461 25.1735 25.707 24.0607 25.707 22.9004V14.1504C25.7127 12.6624 25.4248 11.188 24.8596 9.81147C24.2945 8.43499 23.4634 7.18354 22.4137 6.12883ZM7.33203 15.0254C7.5641 15.0254 7.78666 15.1176 7.95075 15.2817C8.11484 15.4458 8.20703 15.6683 8.20703 15.9004V20.2754C8.20703 20.5075 8.11484 20.73 7.95075 20.8941C7.78666 21.0582 7.5641 21.1504 7.33203 21.1504H5.58203C5.34997 21.1504 5.12741 21.0582 4.96331 20.8941C4.79922 20.73 4.70703 20.5075 4.70703 20.2754V15.0254H7.33203ZM21.332 21.1504C21.1 21.1504 20.8774 21.0582 20.7133 20.8941C20.5492 20.73 20.457 20.5075 20.457 20.2754V15.9004C20.457 15.6683 20.5492 15.4458 20.7133 15.2817C20.8774 15.1176 21.1 15.0254 21.332 15.0254H23.957V21.1504H21.332Z" fill="#C82859"/>
</svg>
