<svg width="54" height="54" viewBox="0 0 54 54" fill="none" xmlns="http://www.w3.org/2000/svg">
<g filter="url(#filter0_d_3089_12268)">
<rect x="7" y="5.63525" width="40" height="40" rx="6.66667" fill="#FCEAEF" shape-rendering="crispEdges"/>
<path d="M36.584 28.9686C36.584 29.2158 36.5107 29.4575 36.3733 29.663C36.236 29.8686 36.0407 30.0288 35.8123 30.1234C35.5839 30.218 35.3326 30.2428 35.0901 30.1946C34.8476 30.1463 34.6249 30.0273 34.4501 29.8525C34.2753 29.6777 34.1562 29.4549 34.108 29.2124C34.0598 28.97 34.0845 28.7186 34.1791 28.4902C34.2737 28.2618 34.434 28.0666 34.6395 27.9293C34.8451 27.7919 35.0868 27.7186 35.334 27.7186C35.6655 27.7186 35.9834 27.8503 36.2179 28.0847C36.4523 28.3191 36.584 28.6371 36.584 28.9686ZM36.11 33.0613C35.927 34.2413 35.3283 35.3171 34.422 36.0947C33.5157 36.8722 32.3615 37.3004 31.1673 37.3019H28.6673C27.3417 37.3005 26.0707 36.7733 25.1333 35.8359C24.1959 34.8985 23.6687 33.6276 23.6673 32.3019V28.0821C22.0564 27.8792 20.5749 27.0953 19.5009 25.8776C18.4269 24.66 17.8342 23.0922 17.834 21.4686V16.4686C17.834 16.2476 17.9218 16.0356 18.0781 15.8793C18.2343 15.7231 18.4463 15.6353 18.6673 15.6353H21.1673C21.3883 15.6353 21.6003 15.7231 21.7566 15.8793C21.9129 16.0356 22.0007 16.2476 22.0007 16.4686C22.0007 16.6896 21.9129 16.9016 21.7566 17.0578C21.6003 17.2141 21.3883 17.3019 21.1673 17.3019H19.5007V21.4686C19.5006 22.1308 19.6321 22.7865 19.8875 23.3975C20.143 24.0085 20.5172 24.5627 20.9886 25.0279C21.46 25.4931 22.0191 25.86 22.6334 26.1073C23.2478 26.3546 23.9051 26.4774 24.5673 26.4686C27.2871 26.4332 29.5007 24.1509 29.5007 21.3821V17.3019H27.834C27.613 17.3019 27.401 17.2141 27.2447 17.0578C27.0884 16.9016 27.0007 16.6896 27.0007 16.4686C27.0007 16.2476 27.0884 16.0356 27.2447 15.8793C27.401 15.7231 27.613 15.6353 27.834 15.6353H30.334C30.555 15.6353 30.767 15.7231 30.9232 15.8793C31.0795 16.0356 31.1673 16.2476 31.1673 16.4686V21.3821C31.1673 24.803 28.6121 27.6623 25.334 28.0811V32.3019C25.334 33.186 25.6852 34.0338 26.3103 34.6589C26.9354 35.2841 27.7833 35.6353 28.6673 35.6353H31.1673C31.9243 35.634 32.6584 35.3756 33.2492 34.9025C33.8401 34.4293 34.2527 33.7695 34.4194 33.0311C33.413 32.805 32.5262 32.2137 31.9306 31.3715C31.335 30.5293 31.073 29.4961 31.1953 28.4719C31.3175 27.4477 31.8153 26.5052 32.5924 25.8268C33.3695 25.1485 34.3705 24.7825 35.4019 24.7996C36.4332 24.8168 37.4216 25.2159 38.1756 25.9197C38.9297 26.6235 39.3959 27.5821 39.484 28.6098C39.5721 29.6375 39.2759 30.6614 38.6526 31.4833C38.0294 32.3052 37.1234 32.8667 36.11 33.0592V33.0613ZM37.834 28.9686C37.834 28.4741 37.6874 27.9908 37.4127 27.5797C37.138 27.1685 36.7475 26.8481 36.2907 26.6589C35.8339 26.4697 35.3312 26.4202 34.8463 26.5166C34.3613 26.6131 33.9158 26.8512 33.5662 27.2008C33.2166 27.5505 32.9785 27.9959 32.882 28.4809C32.7856 28.9658 32.8351 29.4685 33.0243 29.9253C33.2135 30.3821 33.5339 30.7726 33.9451 31.0473C34.3562 31.322 34.8395 31.4686 35.334 31.4686C35.997 31.4686 36.6329 31.2052 37.1018 30.7364C37.5706 30.2675 37.834 29.6316 37.834 28.9686Z" fill="#C82859"/>
</g>
<defs>
<filter id="filter0_d_3089_12268" x="0.333333" y="0.635254" width="53.3333" height="53.3333" filterUnits="userSpaceOnUse" color-interpolation-filters="sRGB">
<feFlood flood-opacity="0" result="BackgroundImageFix"/>
<feColorMatrix in="SourceAlpha" type="matrix" values="0 0 0 0 0 0 0 0 0 0 0 0 0 0 0 0 0 0 127 0" result="hardAlpha"/>
<feOffset dy="1.66667"/>
<feGaussianBlur stdDeviation="3.33333"/>
<feComposite in2="hardAlpha" operator="out"/>
<feColorMatrix type="matrix" values="0 0 0 0 0 0 0 0 0 0 0 0 0 0 0 0 0 0 0.08 0"/>
<feBlend mode="normal" in2="BackgroundImageFix" result="effect1_dropShadow_3089_12268"/>
<feBlend mode="normal" in="SourceGraphic" in2="effect1_dropShadow_3089_12268" result="shape"/>
</filter>
</defs>
</svg>
