<svg width="54" height="54" viewBox="0 0 54 54" fill="none" xmlns="http://www.w3.org/2000/svg">
<g filter="url(#filter0_d_3089_12347)">
<rect x="7" y="5.63525" width="40" height="40" rx="6.66667" fill="#FCEAEF" shape-rendering="crispEdges"/>
<path d="M35.0898 17.5437C35.1673 17.621 35.2287 17.713 35.2707 17.8141C35.3126 17.9153 35.3342 18.0237 35.3342 18.1332C35.3342 18.2427 35.3126 18.3512 35.2707 18.4524C35.2287 18.5535 35.1673 18.6454 35.0898 18.7228L29.2565 24.5562C29.1002 24.7125 28.8883 24.8004 28.6672 24.8005C28.4462 24.8006 28.2342 24.7129 28.0778 24.5567C27.9214 24.4004 27.8335 24.1885 27.8334 23.9675C27.8333 23.7464 27.9211 23.5344 28.0773 23.378L33.9106 17.5447C33.9879 17.4671 34.0798 17.4056 34.1809 17.3636C34.2821 17.3215 34.3905 17.2999 34.5 17.2998C34.6095 17.2997 34.718 17.3212 34.8192 17.363C34.9204 17.4049 35.0123 17.4662 35.0898 17.5437ZM39.5002 18.3864C39.5019 19.0765 39.3669 19.7601 39.1028 20.3977C38.8387 21.0352 38.4508 21.6142 37.9617 22.1009L32.4169 27.6457C32.2628 27.8014 32.0792 27.9248 31.877 28.0088C31.6747 28.0929 31.4578 28.1359 31.2387 28.1353H29.5002V29.8884C29.5001 30.2518 29.3812 30.6051 29.1617 30.8947C29.1387 30.9252 29.1136 30.9541 29.0867 30.9812L28.2533 31.8145C27.9408 32.1268 27.517 32.3023 27.0752 32.3023C26.6334 32.3023 26.2096 32.1268 25.8971 31.8145L23.9481 29.8645L15.9273 37.8916C15.8499 37.969 15.7579 38.0304 15.6568 38.0723C15.5556 38.1142 15.4472 38.1358 15.3377 38.1358C15.2282 38.1358 15.1198 38.1142 15.0186 38.0723C14.9175 38.0304 14.8255 37.969 14.7481 37.8916C14.6707 37.8141 14.6093 37.7222 14.5674 37.6211C14.5255 37.5199 14.5039 37.4115 14.5039 37.302C14.5039 37.1925 14.5255 37.0841 14.5674 36.9829C14.6093 36.8817 14.6707 36.7898 14.7481 36.7124L22.7742 28.6864L20.8262 26.7374C20.6714 26.5826 20.5486 26.3989 20.4649 26.1966C20.3811 25.9944 20.338 25.7777 20.338 25.5588C20.338 25.3399 20.3811 25.1231 20.4649 24.9209C20.5486 24.7186 20.6714 24.5349 20.8262 24.3801L21.6596 23.5468C21.6863 23.5199 21.7148 23.4948 21.745 23.4718C22.0342 23.2548 22.3856 23.1368 22.7471 23.1353H24.5002V21.3957C24.4999 21.1771 24.5427 20.9605 24.6264 20.7585C24.7101 20.5565 24.8329 20.373 24.9877 20.2187L30.5335 14.6739C31.2681 13.9397 32.2039 13.4397 33.2225 13.2371C34.2412 13.0345 35.297 13.1385 36.2566 13.5358C37.2162 13.9331 38.0365 14.6059 38.6138 15.4693C39.1912 16.3326 39.4996 17.3478 39.5002 18.3864ZM37.8335 18.3864C37.8335 17.6771 37.6232 16.9838 37.2292 16.3941C36.8351 15.8043 36.2751 15.3447 35.6199 15.0732C34.9646 14.8017 34.2436 14.7306 33.548 14.8688C32.8523 15.0071 32.2133 15.3485 31.7117 15.8499L26.1669 21.3957V23.1353C26.1669 23.5773 25.9913 24.0013 25.6787 24.3138C25.3662 24.6264 24.9422 24.802 24.5002 24.802H22.7585L22.0002 25.5593L27.0752 30.6353L27.8335 29.877V28.1353C27.8335 27.6933 28.0091 27.2694 28.3217 26.9568C28.6343 26.6442 29.0582 26.4687 29.5002 26.4687H31.2387L36.7835 20.9228C37.1176 20.5905 37.3824 20.1951 37.5626 19.7598C37.7428 19.3244 37.8349 18.8576 37.8335 18.3864Z" fill="#C82859"/>
</g>
<defs>
<filter id="filter0_d_3089_12347" x="0.333333" y="0.635254" width="53.3333" height="53.3333" filterUnits="userSpaceOnUse" color-interpolation-filters="sRGB">
<feFlood flood-opacity="0" result="BackgroundImageFix"/>
<feColorMatrix in="SourceAlpha" type="matrix" values="0 0 0 0 0 0 0 0 0 0 0 0 0 0 0 0 0 0 127 0" result="hardAlpha"/>
<feOffset dy="1.66667"/>
<feGaussianBlur stdDeviation="3.33333"/>
<feComposite in2="hardAlpha" operator="out"/>
<feColorMatrix type="matrix" values="0 0 0 0 0 0 0 0 0 0 0 0 0 0 0 0 0 0 0.08 0"/>
<feBlend mode="normal" in2="BackgroundImageFix" result="effect1_dropShadow_3089_12347"/>
<feBlend mode="normal" in="SourceGraphic" in2="effect1_dropShadow_3089_12347" result="shape"/>
</filter>
</defs>
</svg>
