<svg width="92" height="27" viewBox="0 0 92 27" fill="none" xmlns="http://www.w3.org/2000/svg">
<path d="M10.0611 4.50732V11.8055H3.35615V4.50732H0.175049V21.9292H3.35701V14.8678H10.0602V21.9292H13.2431V4.50732H10.0611ZM23.4279 16.2981C23.4279 16.9964 23.1505 17.6661 22.6568 18.1599C22.163 18.6537 21.4933 18.9311 20.795 18.9311C20.0967 18.9311 19.4269 18.6537 18.9332 18.1599C18.4394 17.6661 18.162 16.9964 18.162 16.2981V8.83544H15.1436V16.2981C15.1436 17.7955 15.7385 19.2315 16.7972 20.2902C17.856 21.349 19.292 21.9438 20.7894 21.9438C22.2867 21.9438 23.7227 21.349 24.7815 20.2902C25.8403 19.2315 26.4351 17.7955 26.4351 16.2981V8.83544H23.4279V16.2981ZM45.793 9.60445C45.793 8.07419 46.8048 7.58937 47.9131 7.58937C48.807 7.58937 49.9868 8.26967 50.7593 9.09465L52.7356 6.76439C51.7487 5.42961 49.7474 4.50732 48.1086 4.50732C44.8337 4.50732 42.4655 6.4251 42.4655 9.60445C42.4655 15.5033 49.6751 13.6312 49.6751 16.9328C49.6751 17.9507 48.6865 18.8497 47.5549 18.8497C45.7697 18.8497 45.191 17.9774 44.3712 17.0542L42.177 19.3354C43.5807 21.0577 45.3116 21.9326 47.3844 21.9326C50.4957 21.9326 52.9983 19.9916 52.9983 16.9569C52.9983 10.4088 45.7878 12.4436 45.7878 9.60445M90.3956 19.1459C88.6122 19.1459 88.1049 18.3744 88.1049 17.1929V11.9614H90.8779V9.3108H88.1049V5.81368L85.0444 7.18721V17.843C85.0444 20.5686 86.9252 21.9421 89.5035 21.9421C89.9082 21.949 90.313 21.9163 90.7108 21.8456L91.4574 19.0969C91.1207 19.1201 90.734 19.1434 90.3956 19.1434M34.9175 8.92242C33.4225 8.92242 32.3788 9.35644 31.3695 10.3459V4.61152H28.3469V15.2407C28.3469 19.2191 31.2231 21.9455 34.4559 21.9455C38.0417 21.9455 41.1961 19.1709 41.1961 15.4353C41.1961 11.7461 38.2932 8.925 34.9175 8.925M34.8985 18.9031C34.448 18.9031 34.002 18.8144 33.5858 18.642C33.1696 18.4696 32.7914 18.2169 32.4729 17.8984C32.1543 17.5798 31.9016 17.2017 31.7292 16.7855C31.5568 16.3693 31.4681 15.9232 31.4681 15.4727C31.4681 15.0222 31.5568 14.5762 31.7292 14.16C31.9016 13.7438 32.1543 13.3656 32.4729 13.0471C32.7914 12.7285 33.1696 12.4759 33.5858 12.3035C34.002 12.1311 34.448 12.0424 34.8985 12.0424C35.8083 12.0424 36.6809 12.4038 37.3242 13.0471C37.9675 13.6904 38.3289 14.5629 38.3289 15.4727C38.3289 16.3825 37.9675 17.2551 37.3242 17.8984C36.6809 18.5417 35.8083 18.9031 34.8985 18.9031ZM67.7447 15.2768C67.7447 11.5343 64.5972 8.76655 61.0044 8.76655C57.7725 8.76655 54.8954 11.4921 54.8954 15.4714V26.1066H57.918V20.3645C58.9256 21.3522 59.971 21.7879 61.4643 21.7879C64.84 21.7879 67.7438 18.9668 67.7438 15.2768M64.8822 15.2389C64.8822 16.1487 64.5208 17.0213 63.8774 17.6646C63.2341 18.3079 62.3616 18.6693 61.4518 18.6693C60.542 18.6693 59.6694 18.3079 59.0261 17.6646C58.3828 17.0213 58.0214 16.1487 58.0214 15.2389C58.0214 14.3291 58.3828 13.4566 59.0261 12.8133C59.6694 12.17 60.542 11.8086 61.4518 11.8086C62.3616 11.8086 63.2341 12.17 63.8774 12.8133C64.5208 13.4566 64.8822 14.3291 64.8822 15.2389Z" fill="#5A5F63"/>
<path d="M77.4809 8.50434V5.46708C77.8823 5.2795 78.2221 4.98177 78.4608 4.60857C78.6996 4.23536 78.8274 3.80202 78.8295 3.35899V3.28924C78.8295 1.99752 77.7823 0.950368 76.4906 0.950368H76.4208C75.8005 0.950368 75.2056 1.19678 74.767 1.63541C74.3283 2.07403 74.0819 2.66893 74.0819 3.28924V3.35899C74.084 3.80202 74.2118 4.23536 74.4505 4.60857C74.6893 4.98177 75.0291 5.2795 75.4305 5.46708V8.50434C74.2769 8.68097 73.1905 9.15926 72.2812 9.89079L63.9513 3.40291C64.0107 3.18849 64.0417 2.96803 64.0452 2.74672C64.0462 2.22547 63.8926 1.71563 63.6038 1.28169C63.315 0.84774 62.9041 0.509187 62.4228 0.308848C61.9416 0.10851 61.4118 0.055388 60.9004 0.156201C60.389 0.257014 59.9189 0.507233 59.5498 0.875209C59.1806 1.24318 58.9288 1.71238 58.8263 2.22346C58.7239 2.73453 58.7752 3.26452 58.974 3.74638C59.1728 4.22825 59.51 4.64034 59.943 4.93053C60.376 5.22072 60.8853 5.37598 61.4066 5.37666C61.8626 5.37451 62.3101 5.25277 62.7043 5.02359L70.9068 11.4064C70.17 12.5196 69.7856 13.8289 69.8037 15.1638C69.8218 16.4986 70.2416 17.797 71.0085 18.8898L68.5137 21.3854C68.312 21.3209 68.1019 21.2866 67.8902 21.2838C67.4623 21.2841 67.0442 21.4113 66.6886 21.6492C66.333 21.8871 66.0558 22.2251 65.8923 22.6205C65.7287 23.0158 65.686 23.4508 65.7695 23.8704C65.8531 24.29 66.0592 24.6755 66.3617 24.978C66.6643 25.2806 67.0497 25.4867 67.4693 25.5702C67.889 25.6538 68.3239 25.6111 68.7193 25.4475C69.1147 25.2839 69.4527 25.0068 69.6906 24.6512C69.9285 24.2956 70.0557 23.8774 70.056 23.4495C70.0532 23.2378 70.019 23.0277 69.9544 22.8261L72.4225 20.3572C73.2273 20.9768 74.1633 21.4039 75.1587 21.6059C76.1541 21.8079 77.1825 21.7794 78.1652 21.5225C79.1479 21.2657 80.0587 20.7873 80.828 20.124C81.5972 19.4608 82.2044 18.6303 82.6031 17.6961C83.0018 16.7619 83.1814 15.7489 83.128 14.7346C83.0747 13.7203 82.7899 12.7317 82.2955 11.8444C81.8011 10.9572 81.1102 10.1949 80.2756 9.61596C79.4411 9.03701 78.4851 8.65676 77.4809 8.50434ZM76.4578 18.4936C76.0017 18.5062 75.5477 18.4272 75.1226 18.2613C74.6975 18.0954 74.31 17.846 73.983 17.5278C73.6559 17.2097 73.3959 16.8292 73.2184 16.4088C73.0409 15.9884 72.9495 15.5368 72.9495 15.0805C72.9495 14.6242 73.0409 14.1725 73.2184 13.7522C73.3959 13.3318 73.6559 12.9513 73.983 12.6331C74.31 12.3149 74.6975 12.0655 75.1226 11.8997C75.5477 11.7338 76.0017 11.6548 76.4578 11.6673C77.3419 11.6983 78.1794 12.0711 78.794 12.7073C79.4086 13.3435 79.7524 14.1934 79.7528 15.078C79.7533 15.9625 79.4104 16.8128 78.7964 17.4496C78.1824 18.0864 77.3453 18.4601 76.4613 18.4919" fill="#5A5F63"/>
</svg>
