<svg width="24" height="25" viewBox="0 0 24 25" fill="none" xmlns="http://www.w3.org/2000/svg">
<rect y="0.849609" width="24" height="24" rx="4" fill="#DC2C62"/>
<path d="M12 6.84961C14.3966 6.84961 15.5949 6.84986 16.458 7.4209C16.8435 7.67593 17.1737 8.00616 17.4287 8.3916C17.9998 9.25475 18 10.453 18 12.8496C18 15.2463 17.9998 16.4445 17.4287 17.3076C17.1737 17.6931 16.8435 18.0233 16.458 18.2783C15.5949 18.8494 14.3966 18.8496 12 18.8496C9.60336 18.8496 8.40514 18.8494 7.54199 18.2783C7.15655 18.0233 6.82633 17.6931 6.57129 17.3076C6.00025 16.4445 6 15.2463 6 12.8496C6 10.453 6.00025 9.25475 6.57129 8.3916C6.82633 8.00616 7.15655 7.67593 7.54199 7.4209C8.40514 6.84986 9.60336 6.84961 12 6.84961ZM12 9.74316C10.2845 9.74316 8.89364 11.1341 8.89355 12.8496C8.89355 14.5652 10.2845 15.9561 12 15.9561C13.7155 15.956 15.1064 14.5651 15.1064 12.8496C15.1064 11.1342 13.7154 9.74322 12 9.74316ZM12 10.7939C13.135 10.794 14.0556 11.7146 14.0557 12.8496C14.0557 13.9847 13.1351 14.9052 12 14.9053C10.8649 14.9053 9.94434 13.9847 9.94434 12.8496C9.94442 11.7145 10.8649 10.7939 12 10.7939ZM15.2285 8.85742C14.8256 8.8576 14.499 9.1849 14.499 9.58789C14.4993 9.99067 14.8257 10.3172 15.2285 10.3174C15.6315 10.3174 15.9587 9.99078 15.959 9.58789C15.959 9.18479 15.6316 8.85742 15.2285 8.85742Z" fill="white"/>
</svg>
