<svg width="64" height="65" viewBox="0 0 64 65" fill="none" xmlns="http://www.w3.org/2000/svg">
<g filter="url(#filter0_d_3071_11934)">
<rect x="8" y="6.63525" width="48" height="48" rx="8" fill="#FCEAEF" shape-rendering="crispEdges"/>
<path d="M33 29.6353V41.6353C33 41.9005 32.8946 42.1548 32.7071 42.3424C32.5196 42.5299 32.2652 42.6353 32 42.6353C31.7348 42.6353 31.4804 42.5299 31.2929 42.3424C31.1054 42.1548 31 41.9005 31 41.6353V29.6353C31 29.37 31.1054 29.1157 31.2929 28.9281C31.4804 28.7406 31.7348 28.6353 32 28.6353C32.2652 28.6353 32.5196 28.7406 32.7071 28.9281C32.8946 29.1157 33 29.37 33 29.6353ZM41 38.6353C40.7348 38.6353 40.4804 38.7406 40.2929 38.9281C40.1054 39.1157 40 39.37 40 39.6353V41.6353C40 41.9005 40.1054 42.1548 40.2929 42.3424C40.4804 42.5299 40.7348 42.6353 41 42.6353C41.2652 42.6353 41.5196 42.5299 41.7071 42.3424C41.8946 42.1548 42 41.9005 42 41.6353V39.6353C42 39.37 41.8946 39.1157 41.7071 38.9281C41.5196 38.7406 41.2652 38.6353 41 38.6353ZM44 32.6353H42V19.6353C42 19.37 41.8946 19.1157 41.7071 18.9281C41.5196 18.7406 41.2652 18.6353 41 18.6353C40.7348 18.6353 40.4804 18.7406 40.2929 18.9281C40.1054 19.1157 40 19.37 40 19.6353V32.6353H38C37.7348 32.6353 37.4804 32.7406 37.2929 32.9281C37.1054 33.1157 37 33.37 37 33.6353V35.6353C37 35.9005 37.1054 36.1548 37.2929 36.3424C37.4804 36.5299 37.7348 36.6353 38 36.6353H44C44.2652 36.6353 44.5196 36.5299 44.7071 36.3424C44.8946 36.1548 45 35.9005 45 35.6353V33.6353C45 33.37 44.8946 33.1157 44.7071 32.9281C44.5196 32.7406 44.2652 32.6353 44 32.6353ZM23 34.6353C22.7348 34.6353 22.4804 34.7406 22.2929 34.9281C22.1054 35.1157 22 35.37 22 35.6353V41.6353C22 41.9005 22.1054 42.1548 22.2929 42.3424C22.4804 42.5299 22.7348 42.6353 23 42.6353C23.2652 42.6353 23.5196 42.5299 23.7071 42.3424C23.8946 42.1548 24 41.9005 24 41.6353V35.6353C24 35.37 23.8946 35.1157 23.7071 34.9281C23.5196 34.7406 23.2652 34.6353 23 34.6353ZM26 28.6353H24V19.6353C24 19.37 23.8946 19.1157 23.7071 18.9281C23.5196 18.7406 23.2652 18.6353 23 18.6353C22.7348 18.6353 22.4804 18.7406 22.2929 18.9281C22.1054 19.1157 22 19.37 22 19.6353V28.6353H20C19.7348 28.6353 19.4804 28.7406 19.2929 28.9281C19.1054 29.1157 19 29.37 19 29.6353V31.6353C19 31.9005 19.1054 32.1548 19.2929 32.3424C19.4804 32.5299 19.7348 32.6353 20 32.6353H26C26.2652 32.6353 26.5196 32.5299 26.7071 32.3424C26.8946 32.1548 27 31.9005 27 31.6353V29.6353C27 29.37 26.8946 29.1157 26.7071 28.9281C26.5196 28.7406 26.2652 28.6353 26 28.6353ZM35 22.6353H33V19.6353C33 19.37 32.8946 19.1157 32.7071 18.9281C32.5196 18.7406 32.2652 18.6353 32 18.6353C31.7348 18.6353 31.4804 18.7406 31.2929 18.9281C31.1054 19.1157 31 19.37 31 19.6353V22.6353H29C28.7348 22.6353 28.4804 22.7406 28.2929 22.9281C28.1054 23.1157 28 23.37 28 23.6353V25.6353C28 25.9005 28.1054 26.1548 28.2929 26.3424C28.4804 26.5299 28.7348 26.6353 29 26.6353H35C35.2652 26.6353 35.5196 26.5299 35.7071 26.3424C35.8946 26.1548 36 25.9005 36 25.6353V23.6353C36 23.37 35.8946 23.1157 35.7071 22.9281C35.5196 22.7406 35.2652 22.6353 35 22.6353Z" fill="#C82859"/>
</g>
<defs>
<filter id="filter0_d_3071_11934" x="0" y="0.635254" width="64" height="64" filterUnits="userSpaceOnUse" color-interpolation-filters="sRGB">
<feFlood flood-opacity="0" result="BackgroundImageFix"/>
<feColorMatrix in="SourceAlpha" type="matrix" values="0 0 0 0 0 0 0 0 0 0 0 0 0 0 0 0 0 0 127 0" result="hardAlpha"/>
<feOffset dy="2"/>
<feGaussianBlur stdDeviation="4"/>
<feComposite in2="hardAlpha" operator="out"/>
<feColorMatrix type="matrix" values="0 0 0 0 0 0 0 0 0 0 0 0 0 0 0 0 0 0 0.08 0"/>
<feBlend mode="normal" in2="BackgroundImageFix" result="effect1_dropShadow_3071_11934"/>
<feBlend mode="normal" in="SourceGraphic" in2="effect1_dropShadow_3071_11934" result="shape"/>
</filter>
</defs>
</svg>
