<svg width="14" height="14" viewBox="0 0 14 14" fill="none" xmlns="http://www.w3.org/2000/svg">
<path d="M12.1335 4.54779C12.7406 5.81752 12.8559 7.26713 12.457 8.61685C12.0582 9.96656 11.1735 11.1207 9.97375 11.8565C8.774 12.5923 7.34422 12.8576 5.96036 12.6012C4.5765 12.3448 3.33666 11.5849 2.48013 10.4682C1.62359 9.35143 1.21109 7.95697 1.32223 6.55396C1.43337 5.15095 2.06027 3.83883 3.08195 2.87085C4.10362 1.90287 5.44764 1.34765 6.85461 1.31234C8.26157 1.27703 9.63175 1.76414 10.7007 2.67966L11.9405 1.43935C12.0225 1.35726 12.1339 1.31114 12.25 1.31114C12.3661 1.31114 12.4774 1.35726 12.5595 1.43935C12.6416 1.52144 12.6877 1.63278 12.6877 1.74888C12.6877 1.86498 12.6416 1.97632 12.5595 2.05841L7.30951 7.30841C7.22742 7.3905 7.11608 7.43662 6.99998 7.43662C6.88389 7.43662 6.77254 7.3905 6.69045 7.30841C6.60836 7.22632 6.56224 7.11498 6.56224 6.99888C6.56224 6.88278 6.60836 6.77144 6.69045 6.68935L8.20639 5.17341C7.79555 4.9017 7.30504 4.77659 6.81425 4.81835C6.32346 4.86011 5.86113 5.06628 5.5021 5.40349C5.14307 5.74071 4.90835 6.18922 4.83595 6.67643C4.76355 7.16364 4.8577 7.66103 5.10315 8.08807C5.34861 8.51512 5.73101 8.84682 6.18845 9.02949C6.64588 9.21216 7.15158 9.23509 7.62368 9.09459C8.09578 8.95409 8.50663 8.65836 8.78975 8.2553C9.07286 7.85223 9.21165 7.36541 9.18365 6.87365C9.18042 6.81619 9.18854 6.75866 9.20754 6.70435C9.22654 6.65003 9.25605 6.59999 9.29439 6.55708C9.33273 6.51417 9.37915 6.47923 9.43099 6.45426C9.48284 6.42928 9.53909 6.41477 9.59655 6.41154C9.71258 6.40501 9.82645 6.44484 9.91311 6.52228C9.95602 6.56062 9.99096 6.60703 10.0159 6.65888C10.0409 6.71072 10.0554 6.76697 10.0587 6.82443C10.0985 7.52048 9.89973 8.2093 9.49509 8.77706C9.09045 9.34481 8.5042 9.7575 7.83324 9.94693C7.16227 10.1364 6.44675 10.0912 5.80495 9.81884C5.16314 9.54651 4.63346 9.06335 4.30346 8.4492C3.97346 7.83506 3.86288 7.12669 3.99002 6.44119C4.11715 5.75569 4.47437 5.13408 5.00265 4.67911C5.53093 4.22413 6.19864 3.96303 6.89541 3.93896C7.59219 3.91488 8.27633 4.12927 8.83475 4.54669L10.0789 3.30255C9.16714 2.54557 8.00786 2.15212 6.8237 2.1978C5.63954 2.24347 4.51401 2.72503 3.66327 3.54999C2.81254 4.37496 2.29659 5.48515 2.21452 6.66734C2.13245 7.84954 2.49006 9.02037 3.21865 9.95497C3.94724 10.8896 4.99544 11.522 6.16193 11.7309C7.32842 11.9397 8.53094 11.7102 9.53854 11.0865C10.5461 10.4627 11.2878 9.48872 11.621 8.35149C11.9542 7.21426 11.8555 5.99402 11.3438 4.92513C11.2938 4.82041 11.2874 4.7001 11.326 4.59067C11.3647 4.48124 11.4453 4.39165 11.55 4.34161C11.6547 4.29158 11.775 4.28519 11.8844 4.32385C11.9939 4.36251 12.0835 4.44307 12.1335 4.54779Z" fill="#5A5F63"/>
</svg>
