<svg width="15" height="16" viewBox="0 0 15 16" fill="none" xmlns="http://www.w3.org/2000/svg">
<path d="M6.80171 9.56435C7.41904 9.15337 7.88772 8.55464 8.13844 7.85669C8.38917 7.15874 8.40863 6.39864 8.19395 5.68877C7.97927 4.97891 7.54184 4.35698 6.94636 3.91495C6.35087 3.47291 5.62894 3.23425 4.88733 3.23425C4.14571 3.23425 3.42378 3.47291 2.8283 3.91495C2.23281 4.35698 1.79539 4.97891 1.58071 5.68877C1.36602 6.39864 1.38549 7.15874 1.63621 7.85669C1.88694 8.55464 2.35562 9.15337 2.97294 9.56435C1.85626 9.97592 0.90259 10.7375 0.254229 11.7355C0.220154 11.7862 0.196485 11.8431 0.184598 11.903C0.172712 11.9628 0.172845 12.0245 0.18499 12.0843C0.197135 12.1441 0.221049 12.2009 0.255343 12.2514C0.289637 12.3019 0.333627 12.3451 0.384754 12.3784C0.435882 12.4118 0.493129 12.4346 0.553166 12.4457C0.613203 12.4567 0.674834 12.4557 0.734476 12.4427C0.794117 12.4297 0.85058 12.405 0.900582 12.3699C0.950584 12.3349 0.993128 12.2903 1.02574 12.2387C1.44396 11.5955 2.01624 11.0669 2.69061 10.701C3.36498 10.3351 4.12008 10.1434 4.88733 10.1434C5.65458 10.1434 6.40967 10.3351 7.08404 10.701C7.75841 11.0669 8.33069 11.5955 8.74892 12.2387C8.81647 12.3391 8.92083 12.4089 9.03943 12.433C9.15803 12.4571 9.28134 12.4335 9.3827 12.3674C9.48406 12.3013 9.55534 12.1979 9.58111 12.0797C9.60688 11.9615 9.58508 11.8378 9.52043 11.7355C8.87207 10.7375 7.91839 9.97592 6.80171 9.56435ZM2.35401 6.69018C2.35401 6.18914 2.50258 5.69935 2.78095 5.28275C3.05931 4.86614 3.45496 4.54144 3.91787 4.3497C4.38077 4.15796 4.89014 4.10779 5.38155 4.20554C5.87297 4.30329 6.32436 4.54456 6.67866 4.89885C7.03295 5.25315 7.27422 5.70454 7.37197 6.19596C7.46972 6.68737 7.41955 7.19674 7.22781 7.65964C7.03607 8.12255 6.71137 8.5182 6.29477 8.79656C5.87816 9.07493 5.38837 9.2235 4.88733 9.2235C4.21568 9.22274 3.57177 8.95559 3.09684 8.48067C2.62192 8.00575 2.35477 7.36183 2.35401 6.69018ZM14.4529 12.3729C14.3506 12.4396 14.226 12.4629 14.1065 12.4378C13.9869 12.4126 13.8823 12.341 13.8156 12.2387C13.3978 11.5951 12.8256 11.0663 12.1511 10.7005C11.4766 10.3348 10.7213 10.1437 9.95397 10.1447C9.83181 10.1447 9.71465 10.0962 9.62827 10.0098C9.54189 9.92342 9.49337 9.80627 9.49337 9.68411C9.49337 9.56195 9.54189 9.44479 9.62827 9.35841C9.71465 9.27203 9.83181 9.2235 9.95397 9.2235C10.327 9.22315 10.6954 9.14041 11.0328 8.98118C11.3702 8.82195 11.6683 8.59017 11.9057 8.3024C12.1431 8.01463 12.314 7.67797 12.4063 7.31648C12.4985 6.95498 12.5097 6.57758 12.4392 6.21124C12.3687 5.8449 12.2181 5.49865 11.9983 5.19725C11.7784 4.89584 11.4947 4.64672 11.1674 4.46767C10.8401 4.28863 10.4773 4.18408 10.1049 4.16151C9.7325 4.13893 9.35972 4.19888 9.01319 4.33707C8.95669 4.3615 8.89586 4.37435 8.83431 4.37487C8.77276 4.37539 8.71173 4.36357 8.65482 4.3401C8.59791 4.31664 8.54629 4.282 8.503 4.23825C8.4597 4.19449 8.42562 4.1425 8.40276 4.08535C8.3799 4.0282 8.36872 3.96704 8.3699 3.9055C8.37107 3.84396 8.38457 3.78327 8.40959 3.72703C8.43462 3.6708 8.47066 3.62014 8.51559 3.57807C8.56052 3.536 8.61343 3.50336 8.67119 3.48208C9.46427 3.16579 10.3464 3.15441 11.1474 3.45013C11.9483 3.74585 12.6114 4.32772 13.0087 5.08349C13.406 5.83926 13.5093 6.71538 13.2987 7.54283C13.0881 8.37028 12.5786 9.09043 11.8684 9.56435C12.985 9.97592 13.9387 10.7375 14.5871 11.7355C14.6538 11.8378 14.6771 11.9625 14.652 12.082C14.6268 12.2015 14.5552 12.3061 14.4529 12.3729Z" fill="#C82859"/>
</svg>
