<svg width="29" height="29" viewBox="0 0 29 29" fill="none" xmlns="http://www.w3.org/2000/svg">
<path d="M23.9334 13.5601C23.9002 13.4199 23.833 13.29 23.7376 13.182C23.6422 13.074 23.5216 12.9912 23.3865 12.941L17.0854 10.5775L18.6888 2.55698C18.7251 2.37063 18.6999 2.17753 18.6168 2.00681C18.5337 1.83609 18.3974 1.69702 18.2283 1.61059C18.0593 1.52415 17.8667 1.49504 17.6797 1.52765C17.4927 1.56026 17.3213 1.65282 17.1915 1.79136L4.94149 14.9164C4.842 15.0212 4.77002 15.149 4.732 15.2885C4.69397 15.4279 4.69108 15.5746 4.72358 15.7154C4.75608 15.8563 4.82296 15.9869 4.91824 16.0955C5.01352 16.2042 5.13424 16.2876 5.26962 16.3382L11.5729 18.7018L9.97383 26.7135C9.93753 26.8999 9.96281 27.093 10.0459 27.2637C10.129 27.4344 10.2653 27.5735 10.4343 27.6599C10.6034 27.7464 10.7959 27.7755 10.983 27.7429C11.17 27.7103 11.3414 27.6177 11.4712 27.4792L23.7212 14.3542C23.8189 14.2493 23.8893 14.1221 23.9263 13.9836C23.9633 13.8451 23.9657 13.6997 23.9334 13.5601ZM12.2937 24.0415L13.4388 18.3125C13.4798 18.1093 13.4473 17.8981 13.3472 17.7167C13.247 17.5352 13.0857 17.3952 12.892 17.3215L7.11258 15.1504L16.3679 5.23448L15.2238 10.9635C15.1828 11.1667 15.2153 11.3779 15.3155 11.5593C15.4156 11.7408 15.577 11.8808 15.7707 11.9545L21.5457 14.1201L12.2937 24.0415Z" fill="#C82859"/>
</svg>
