<svg width="54" height="54" viewBox="0 0 54 54" fill="none" xmlns="http://www.w3.org/2000/svg">
<g filter="url(#filter0_d_2875_19496)">
<rect x="7" y="5.15039" width="40" height="40" rx="6.66667" fill="#FCEAEF" shape-rendering="crispEdges"/>
<path d="M32.0027 35.9839C32.0027 36.2049 31.9149 36.4168 31.7587 36.5731C31.6024 36.7294 31.3904 36.8172 31.1694 36.8172H22.8361C22.6151 36.8172 22.4031 36.7294 22.2468 36.5731C22.0905 36.4168 22.0027 36.2049 22.0027 35.9839C22.0027 35.7629 22.0905 35.5509 22.2468 35.3946C22.4031 35.2383 22.6151 35.1505 22.8361 35.1505H31.1694C31.3904 35.1505 31.6024 35.2383 31.7587 35.3946C31.9149 35.5509 32.0027 35.7629 32.0027 35.9839ZM36.1694 22.6505C36.173 24.0397 35.8592 25.4114 35.2519 26.6609C34.6446 27.9103 33.7599 29.0045 32.6652 29.8599C32.4606 30.0168 32.2945 30.2184 32.1797 30.4493C32.0648 30.6802 32.0043 30.9343 32.0027 31.1922V31.8172C32.0027 32.2592 31.8271 32.6831 31.5146 32.9957C31.202 33.3083 30.7781 33.4839 30.3361 33.4839H23.6694C23.2274 33.4839 22.8035 33.3083 22.4909 32.9957C22.1783 32.6831 22.0027 32.2592 22.0027 31.8172V31.1922C22.0026 30.9374 21.944 30.686 21.8315 30.4574C21.719 30.2288 21.5556 30.029 21.3538 29.8734C20.2619 29.0231 19.3778 27.9355 18.7683 26.6929C18.1589 25.4504 17.8401 24.0855 17.8361 22.7016C17.809 17.737 21.8215 13.6026 26.7819 13.4839C28.0041 13.4544 29.2199 13.6698 30.3577 14.1172C31.4955 14.5647 32.5322 15.2352 33.407 16.0894C34.2817 16.9435 34.9767 17.964 35.4511 19.0908C35.9255 20.2176 36.1698 21.4279 36.1694 22.6505ZM34.5027 22.6505C34.503 21.6502 34.3032 20.6599 33.915 19.7379C33.5268 18.816 32.9581 17.981 32.2424 17.2821C31.5266 16.5832 30.6783 16.0346 29.7473 15.6686C28.8163 15.3025 27.8216 15.1264 26.8215 15.1505C22.759 15.2464 19.4809 18.6287 19.5027 22.6912C19.5065 23.823 19.7677 24.9392 20.2665 25.9552C20.7654 26.9712 21.4887 27.8605 22.3819 28.5557C22.7834 28.8679 23.1082 29.2677 23.3313 29.7247C23.5545 30.1817 23.6701 30.6836 23.6694 31.1922V31.8172H30.3361V31.1922C30.3372 30.6822 30.4549 30.1792 30.68 29.7216C30.9051 29.2639 31.2317 28.8638 31.635 28.5516C32.531 27.8514 33.2551 26.9558 33.7521 25.9331C34.2491 24.9104 34.5058 23.7876 34.5027 22.6505ZM32.8246 21.6776C32.6085 20.4706 32.0278 19.3588 31.1607 18.4919C30.2936 17.6249 29.1816 17.0445 27.9746 16.8287C27.8667 16.8105 27.7562 16.8137 27.6496 16.8382C27.5429 16.8627 27.4421 16.908 27.3529 16.9714C27.2637 17.0349 27.1879 17.1153 27.1298 17.208C27.0717 17.3008 27.0324 17.4041 27.0142 17.512C26.996 17.6199 26.9992 17.7304 27.0237 17.8371C27.0482 17.9437 27.0935 18.0445 27.157 18.1337C27.2204 18.2229 27.3008 18.2987 27.3936 18.3568C27.4863 18.4149 27.5896 18.4542 27.6975 18.4724C29.4236 18.763 30.8882 20.2276 31.1809 21.9568C31.2138 22.1509 31.3145 22.327 31.4649 22.454C31.6153 22.581 31.8059 22.6506 32.0027 22.6505C32.0498 22.6502 32.0968 22.6464 32.1434 22.6391C32.3612 22.6019 32.5553 22.4797 32.6831 22.2994C32.8108 22.1191 32.8617 21.8954 32.8246 21.6776Z" fill="#C82859"/>
</g>
<defs>
<filter id="filter0_d_2875_19496" x="0.333333" y="0.15039" width="53.3333" height="53.3333" filterUnits="userSpaceOnUse" color-interpolation-filters="sRGB">
<feFlood flood-opacity="0" result="BackgroundImageFix"/>
<feColorMatrix in="SourceAlpha" type="matrix" values="0 0 0 0 0 0 0 0 0 0 0 0 0 0 0 0 0 0 127 0" result="hardAlpha"/>
<feOffset dy="1.66667"/>
<feGaussianBlur stdDeviation="3.33333"/>
<feComposite in2="hardAlpha" operator="out"/>
<feColorMatrix type="matrix" values="0 0 0 0 0 0 0 0 0 0 0 0 0 0 0 0 0 0 0.08 0"/>
<feBlend mode="normal" in2="BackgroundImageFix" result="effect1_dropShadow_2875_19496"/>
<feBlend mode="normal" in="SourceGraphic" in2="effect1_dropShadow_2875_19496" result="shape"/>
</filter>
</defs>
</svg>
