<svg width="24" height="25" viewBox="0 0 24 25" fill="none" xmlns="http://www.w3.org/2000/svg">
<rect y="0.849609" width="24" height="24" rx="4" fill="#DC2C62"/>
<path d="M6 8.4633C6 8.0785 6.13514 7.76103 6.40541 7.51092C6.67567 7.2608 7.02703 7.13574 7.45946 7.13574C7.88417 7.13574 8.2278 7.25887 8.49035 7.50515C8.76061 7.75912 8.89575 8.09004 8.89575 8.49794C8.89575 8.86734 8.76448 9.17518 8.50193 9.42146C8.23166 9.67542 7.87645 9.80241 7.43629 9.80241H7.42471C7 9.80241 6.65637 9.67542 6.39382 9.42146C6.13127 9.16749 6 8.8481 6 8.4633ZM6.15058 18.5643V10.8529H8.72201V18.5643H6.15058ZM10.1467 18.5643H12.7181V14.2584C12.7181 13.989 12.749 13.7812 12.8108 13.635C12.9189 13.3733 13.083 13.1521 13.3031 12.9712C13.5232 12.7904 13.7992 12.7 14.1313 12.7C14.9961 12.7 15.4286 13.281 15.4286 14.4431V18.5643H18V14.143C18 13.0039 17.7297 12.1401 17.1892 11.5513C16.6486 10.9626 15.9344 10.6682 15.0463 10.6682C14.0502 10.6682 13.2741 11.0953 12.7181 11.9496V11.9727H12.7066L12.7181 11.9496V10.8529H10.1467C10.1622 11.0992 10.1699 11.8649 10.1699 13.1502C10.1699 14.4354 10.1622 16.2401 10.1467 18.5643Z" fill="white"/>
</svg>
