<svg width="15" height="14" viewBox="0 0 15 14" fill="none" xmlns="http://www.w3.org/2000/svg">
<path d="M4.63501 3.5C4.63501 3.38397 4.6811 3.27269 4.76315 3.19064C4.8452 3.10859 4.95648 3.0625 5.07251 3.0625H12.0725C12.1885 3.0625 12.2998 3.10859 12.3819 3.19064C12.4639 3.27269 12.51 3.38397 12.51 3.5C12.51 3.61603 12.4639 3.72731 12.3819 3.80936C12.2998 3.89141 12.1885 3.9375 12.0725 3.9375H5.07251C4.95648 3.9375 4.8452 3.89141 4.76315 3.80936C4.6811 3.72731 4.63501 3.61603 4.63501 3.5ZM12.0725 6.5625H5.07251C4.95648 6.5625 4.8452 6.60859 4.76315 6.69064C4.6811 6.77269 4.63501 6.88397 4.63501 7C4.63501 7.11603 4.6811 7.22731 4.76315 7.30936C4.8452 7.39141 4.95648 7.4375 5.07251 7.4375H12.0725C12.1885 7.4375 12.2998 7.39141 12.3819 7.30936C12.4639 7.22731 12.51 7.11603 12.51 7C12.51 6.88397 12.4639 6.77269 12.3819 6.69064C12.2998 6.60859 12.1885 6.5625 12.0725 6.5625ZM12.0725 10.0625H5.07251C4.95648 10.0625 4.8452 10.1086 4.76315 10.1906C4.6811 10.2727 4.63501 10.384 4.63501 10.5C4.63501 10.616 4.6811 10.7273 4.76315 10.8094C4.8452 10.8914 4.95648 10.9375 5.07251 10.9375H12.0725C12.1885 10.9375 12.2998 10.8914 12.3819 10.8094C12.4639 10.7273 12.51 10.616 12.51 10.5C12.51 10.384 12.4639 10.2727 12.3819 10.1906C12.2998 10.1086 12.1885 10.0625 12.0725 10.0625ZM2.66626 2.84375C2.53647 2.84375 2.40959 2.88224 2.30167 2.95435C2.19375 3.02646 2.10963 3.12895 2.05996 3.24886C2.01029 3.36878 1.9973 3.50073 2.02262 3.62803C2.04794 3.75533 2.11044 3.87226 2.20222 3.96404C2.294 4.05582 2.41093 4.11832 2.53823 4.14364C2.66553 4.16896 2.79748 4.15597 2.9174 4.1063C3.03731 4.05663 3.1398 3.97251 3.21191 3.86459C3.28402 3.75667 3.32251 3.62979 3.32251 3.5C3.32251 3.32595 3.25337 3.15903 3.1303 3.03596C3.00723 2.91289 2.84031 2.84375 2.66626 2.84375ZM2.66626 6.34375C2.53647 6.34375 2.40959 6.38224 2.30167 6.45435C2.19375 6.52646 2.10963 6.62895 2.05996 6.74886C2.01029 6.86878 1.9973 7.00073 2.02262 7.12803C2.04794 7.25533 2.11044 7.37226 2.20222 7.46404C2.294 7.55582 2.41093 7.61832 2.53823 7.64364C2.66553 7.66896 2.79748 7.65597 2.9174 7.6063C3.03731 7.55663 3.1398 7.47251 3.21191 7.36459C3.28402 7.25667 3.32251 7.12979 3.32251 7C3.32251 6.82595 3.25337 6.65903 3.1303 6.53596C3.00723 6.41289 2.84031 6.34375 2.66626 6.34375ZM2.66626 9.84375C2.53647 9.84375 2.40959 9.88224 2.30167 9.95435C2.19375 10.0265 2.10963 10.129 2.05996 10.2489C2.01029 10.3688 1.9973 10.5007 2.02262 10.628C2.04794 10.7553 2.11044 10.8723 2.20222 10.964C2.294 11.0558 2.41093 11.1183 2.53823 11.1436C2.66553 11.169 2.79748 11.156 2.9174 11.1063C3.03731 11.0566 3.1398 10.9725 3.21191 10.8646C3.28402 10.7567 3.32251 10.6298 3.32251 10.5C3.32251 10.326 3.25337 10.159 3.1303 10.036C3.00723 9.91289 2.84031 9.84375 2.66626 9.84375Z" fill="#5A5F63"/>
</svg>
