<svg width="32" height="33" viewBox="0 0 32 33" fill="none" xmlns="http://www.w3.org/2000/svg">
<path d="M16.0009 3.15039C13.7565 3.1499 11.5502 3.7305 9.5967 4.83568C7.64324 5.94085 6.00919 7.53296 4.8536 9.45702C3.69801 11.3811 3.06024 13.5715 3.00237 15.8152C2.9445 18.0589 3.46851 20.2793 4.52338 22.2604L3.10463 26.5166C2.98712 26.869 2.97006 27.2472 3.05538 27.6087C3.1407 27.9703 3.32503 28.3009 3.5877 28.5636C3.85037 28.8262 4.181 29.0106 4.54254 29.0959C4.90408 29.1812 5.28224 29.1642 5.63463 29.0466L9.89088 27.6279C11.6343 28.5552 13.5662 29.0731 15.5397 29.1424C17.5132 29.2116 19.4765 28.8304 21.2807 28.0276C23.0849 27.2247 24.6825 26.0214 25.9521 24.509C27.2218 22.9966 28.1303 21.2148 28.6085 19.2988C29.0868 17.3829 29.1223 15.3831 28.7123 13.4514C28.3023 11.5197 27.4577 9.70681 26.2424 8.15029C25.0272 6.59376 23.4733 5.33454 21.6988 4.46821C19.9242 3.60188 17.9756 3.1512 16.0009 3.15039ZM16.0009 27.1504C14.0671 27.1517 12.1673 26.6425 10.4934 25.6741C10.3708 25.6031 10.2346 25.5588 10.0936 25.5444C9.9527 25.53 9.81031 25.5456 9.67588 25.5904L5.00088 27.1504L6.55963 22.4754C6.60457 22.3411 6.62045 22.1987 6.60622 22.0578C6.592 21.9168 6.548 21.7805 6.47713 21.6579C5.2646 19.5615 4.77777 17.1236 5.09217 14.7223C5.40657 12.3211 6.50463 10.0907 8.21599 8.37713C9.92736 6.6636 12.1564 5.56273 14.5573 5.24529C16.9581 4.92786 19.3967 5.41161 21.4945 6.6215C23.5924 7.83138 25.2324 9.69978 26.1601 11.9368C27.0877 14.1739 27.2512 16.6546 26.6252 18.994C25.9991 21.3335 24.6185 23.4009 22.6976 24.8757C20.7766 26.3504 18.4227 27.15 16.0009 27.1504Z" fill="#C82859"/>
</svg>
