<svg width="16" height="16" viewBox="0 0 16 16" fill="none" xmlns="http://www.w3.org/2000/svg">
<path d="M13.4272 3.20654H2.37271C2.25055 3.20654 2.1334 3.25507 2.04702 3.34145C1.96064 3.42783 1.91211 3.54499 1.91211 3.66715V11.4974C1.91211 11.7417 2.00916 11.976 2.18192 12.1488C2.35468 12.3216 2.589 12.4186 2.83332 12.4186H12.9666C13.2109 12.4186 13.4452 12.3216 13.618 12.1488C13.7908 11.976 13.8878 11.7417 13.8878 11.4974V3.66715C13.8878 3.54499 13.8393 3.42783 13.7529 3.34145C13.6665 3.25507 13.5494 3.20654 13.4272 3.20654ZM7.89996 8.10909L3.55704 4.12775H12.2429L7.89996 8.10909ZM6.21357 7.81258L2.83332 10.9107V4.71444L6.21357 7.81258ZM6.89527 8.43727L7.58617 9.07348C7.67115 9.15149 7.7823 9.19477 7.89766 9.19477C8.01301 9.19477 8.12416 9.15149 8.20914 9.07348L8.90004 8.43727L12.2394 11.4974H3.55704L6.89527 8.43727ZM9.58634 7.81258L12.9666 4.71387V10.9113L9.58634 7.81258Z" fill="#C82859"/>
</svg>
