<svg width="27" height="28" viewBox="0 0 27 28" fill="none" xmlns="http://www.w3.org/2000/svg">
<path d="M23.1191 5.91418H3.34164C3.12308 5.91418 2.91348 6.00101 2.75894 6.15555C2.6044 6.31009 2.51758 6.51969 2.51758 6.73824V20.7473C2.51758 21.1844 2.69122 21.6036 3.0003 21.9127C3.30938 22.2217 3.72859 22.3954 4.1657 22.3954H22.295C22.7321 22.3954 23.1513 22.2217 23.4604 21.9127C23.7695 21.6036 23.9431 21.1844 23.9431 20.7473V6.73824C23.9431 6.51969 23.8563 6.31009 23.7018 6.15555C23.5472 6.00101 23.3376 5.91418 23.1191 5.91418ZM13.2304 14.6853L5.4605 7.5623H21.0002L13.2304 14.6853ZM10.2133 14.1548L4.1657 19.6976V8.61195L10.2133 14.1548ZM11.4329 15.2724L12.669 16.4107C12.821 16.5502 13.0199 16.6276 13.2262 16.6276C13.4326 16.6276 13.6315 16.5502 13.7835 16.4107L15.0196 15.2724L20.994 20.7473H5.4605L11.4329 15.2724ZM16.2474 14.1548L22.295 8.61092V19.6987L16.2474 14.1548Z" fill="#C82859"/>
</svg>
