<svg width="32" height="33" viewBox="0 0 32 33" fill="none" xmlns="http://www.w3.org/2000/svg">
<path d="M28 6.15039H4C3.73478 6.15039 3.48043 6.25575 3.29289 6.44328C3.10536 6.63082 3 6.88517 3 7.15039V24.1504C3 24.6808 3.21071 25.1895 3.58579 25.5646C3.96086 25.9397 4.46957 26.1504 5 26.1504H27C27.5304 26.1504 28.0391 25.9397 28.4142 25.5646C28.7893 25.1895 29 24.6808 29 24.1504V7.15039C29 6.88517 28.8946 6.63082 28.7071 6.44328C28.5196 6.25575 28.2652 6.15039 28 6.15039ZM16 16.7941L6.57125 8.15039H25.4287L16 16.7941ZM12.3387 16.1504L5 22.8766V9.42414L12.3387 16.1504ZM13.8188 17.5066L15.3188 18.8879C15.5032 19.0572 15.7446 19.1512 15.995 19.1512C16.2454 19.1512 16.4868 19.0572 16.6712 18.8879L18.1712 17.5066L25.4212 24.1504H6.57125L13.8188 17.5066ZM19.6612 16.1504L27 9.42289V22.8779L19.6612 16.1504Z" fill="#C82859"/>
</svg>
