<svg width="19" height="27" viewBox="0 0 19 27" fill="none" xmlns="http://www.w3.org/2000/svg">
<path d="M9.50044 18.5227C10.9647 18.5212 12.3685 17.9389 13.4039 16.9035C14.4393 15.8681 15.0216 14.4643 15.0232 13V5.63637C15.0232 4.17166 14.4413 2.76693 13.4056 1.73122C12.3699 0.695505 10.9652 0.113647 9.50044 0.113647C8.03573 0.113647 6.631 0.695505 5.59529 1.73122C4.55957 2.76693 3.97772 4.17166 3.97772 5.63637V13C3.97924 14.4643 4.56159 15.8681 5.59697 16.9035C6.63235 17.9389 8.03619 18.5212 9.50044 18.5227ZM5.81863 5.63637C5.81863 4.6599 6.20653 3.72341 6.89701 3.03294C7.58748 2.34246 8.52397 1.95456 9.50044 1.95456C10.4769 1.95456 11.4134 2.34246 12.1039 3.03294C12.7944 3.72341 13.1823 4.6599 13.1823 5.63637V13C13.1823 13.9765 12.7944 14.913 12.1039 15.6034C11.4134 16.2939 10.4769 16.6818 9.50044 16.6818C8.52397 16.6818 7.58748 16.2939 6.89701 15.6034C6.20653 14.913 5.81863 13.9765 5.81863 13V5.63637ZM10.4209 22.1585V25.8864C10.4209 26.1305 10.3239 26.3646 10.1513 26.5372C9.97869 26.7099 9.74456 26.8068 9.50044 26.8068C9.25632 26.8068 9.0222 26.7099 8.84959 26.5372C8.67697 26.3646 8.57999 26.1305 8.57999 25.8864V22.1585C6.31066 21.9276 4.20756 20.8634 2.67739 19.1717C1.14723 17.48 0.298701 15.2811 0.295898 13C0.295898 12.7559 0.392875 12.5218 0.565494 12.3492C0.738112 12.1765 0.972233 12.0796 1.21635 12.0796C1.46047 12.0796 1.69459 12.1765 1.86721 12.3492C2.03983 12.5218 2.13681 12.7559 2.13681 13C2.13681 14.953 2.91262 16.8259 4.29357 18.2069C5.67452 19.5878 7.54749 20.3636 9.50044 20.3636C11.4534 20.3636 13.3264 19.5878 14.7073 18.2069C16.0883 16.8259 16.8641 14.953 16.8641 13C16.8641 12.7559 16.9611 12.5218 17.1337 12.3492C17.3063 12.1765 17.5404 12.0796 17.7845 12.0796C18.0287 12.0796 18.2628 12.1765 18.4354 12.3492C18.608 12.5218 18.705 12.7559 18.705 13C18.7022 15.2811 17.8537 17.48 16.3235 19.1717C14.7933 20.8634 12.6902 21.9276 10.4209 22.1585Z" fill="#DC2C62"/>
</svg>
