<svg width="15" height="14" viewBox="0 0 15 14" fill="none" xmlns="http://www.w3.org/2000/svg">
<path d="M9.88501 0.875H4.63501C4.28691 0.875 3.95307 1.01328 3.70693 1.25942C3.46079 1.50556 3.32251 1.8394 3.32251 2.1875V11.8125C3.32251 12.1606 3.46079 12.4944 3.70693 12.7406C3.95307 12.9867 4.28691 13.125 4.63501 13.125H9.88501C10.2331 13.125 10.5669 12.9867 10.8131 12.7406C11.0592 12.4944 11.1975 12.1606 11.1975 11.8125V2.1875C11.1975 1.8394 11.0592 1.50556 10.8131 1.25942C10.5669 1.01328 10.2331 0.875 9.88501 0.875ZM10.3225 11.8125C10.3225 11.9285 10.2764 12.0398 10.1944 12.1219C10.1123 12.2039 10.001 12.25 9.88501 12.25H4.63501C4.51898 12.25 4.4077 12.2039 4.32565 12.1219C4.2436 12.0398 4.19751 11.9285 4.19751 11.8125V2.1875C4.19751 2.07147 4.2436 1.96019 4.32565 1.87814C4.4077 1.79609 4.51898 1.75 4.63501 1.75H9.88501C10.001 1.75 10.1123 1.79609 10.1944 1.87814C10.2764 1.96019 10.3225 2.07147 10.3225 2.1875V11.8125ZM7.91626 3.28125C7.91626 3.41104 7.87777 3.53792 7.80566 3.64584C7.73355 3.75376 7.63106 3.83788 7.51115 3.88755C7.39123 3.93722 7.25928 3.95021 7.13198 3.92489C7.00468 3.89957 6.88775 3.83707 6.79597 3.74529C6.70419 3.65351 6.64169 3.53658 6.61637 3.40928C6.59105 3.28198 6.60404 3.15003 6.65371 3.03011C6.70338 2.9102 6.7875 2.80771 6.89542 2.7356C7.00334 2.66349 7.13022 2.625 7.26001 2.625C7.43406 2.625 7.60098 2.69414 7.72405 2.81721C7.84712 2.94028 7.91626 3.1072 7.91626 3.28125Z" fill="#5A5F63"/>
</svg>
