<svg width="64" height="64" viewBox="0 0 64 64" fill="none" xmlns="http://www.w3.org/2000/svg">
<g filter="url(#filter0_d_3170_14736)">
<rect x="8" y="6" width="48" height="48" rx="8" fill="#FCEAEF" shape-rendering="crispEdges"/>
<path d="M46.0006 21V29C46.0006 29.2652 45.8952 29.5196 45.7077 29.7071C45.5201 29.8946 45.2658 30 45.0006 30C44.7353 30 44.481 29.8946 44.2934 29.7071C44.1059 29.5196 44.0006 29.2652 44.0006 29V23.4137L33.7081 33.7075C33.6152 33.8005 33.5049 33.8742 33.3835 33.9246C33.2621 33.9749 33.132 34.0008 33.0006 34.0008C32.8691 34.0008 32.739 33.9749 32.6176 33.9246C32.4962 33.8742 32.3859 33.8005 32.2931 33.7075L28.0006 29.4137L19.7081 37.7075C19.5204 37.8951 19.2659 38.0006 19.0006 38.0006C18.7352 38.0006 18.4807 37.8951 18.2931 37.7075C18.1054 37.5199 18 37.2654 18 37C18 36.7346 18.1054 36.4801 18.2931 36.2925L27.2931 27.2925C27.3859 27.1995 27.4962 27.1258 27.6176 27.0754C27.739 27.0251 27.8691 26.9992 28.0006 26.9992C28.132 26.9992 28.2621 27.0251 28.3835 27.0754C28.5049 27.1258 28.6152 27.1995 28.7081 27.2925L33.0006 31.5863L42.5868 22H37.0006C36.7353 22 36.481 21.8946 36.2934 21.7071C36.1059 21.5196 36.0006 21.2652 36.0006 21C36.0006 20.7348 36.1059 20.4804 36.2934 20.2929C36.481 20.1054 36.7353 20 37.0006 20H45.0006C45.2658 20 45.5201 20.1054 45.7077 20.2929C45.8952 20.4804 46.0006 20.7348 46.0006 21Z" fill="#C82859"/>
</g>
<defs>
<filter id="filter0_d_3170_14736" x="0" y="0" width="64" height="64" filterUnits="userSpaceOnUse" color-interpolation-filters="sRGB">
<feFlood flood-opacity="0" result="BackgroundImageFix"/>
<feColorMatrix in="SourceAlpha" type="matrix" values="0 0 0 0 0 0 0 0 0 0 0 0 0 0 0 0 0 0 127 0" result="hardAlpha"/>
<feOffset dy="2"/>
<feGaussianBlur stdDeviation="4"/>
<feComposite in2="hardAlpha" operator="out"/>
<feColorMatrix type="matrix" values="0 0 0 0 0 0 0 0 0 0 0 0 0 0 0 0 0 0 0.08 0"/>
<feBlend mode="normal" in2="BackgroundImageFix" result="effect1_dropShadow_3170_14736"/>
<feBlend mode="normal" in="SourceGraphic" in2="effect1_dropShadow_3170_14736" result="shape"/>
</filter>
</defs>
</svg>
