<svg width="83" height="23" viewBox="0 0 83 23" fill="none" xmlns="http://www.w3.org/2000/svg">
<path d="M55.0503 0.106445H51.6023V19.3908C54.7359 19.4986 57.8563 19.6567 60.9641 19.8639V16.4664C58.9982 16.3353 57.0271 16.2241 55.0503 16.1321V0.106445ZM82.4531 0.108396H78.6653L76.1686 5.89542L73.9256 0.108396H70.1946L74.2039 10.449L69.8273 20.5935C71.0381 20.7116 72.2454 20.8376 73.4516 20.9707L75.9971 15.0724L78.5179 21.5745C79.8307 21.7433 81.1402 21.9194 82.4474 22.106L82.4531 22.1037L77.9612 10.5189L82.4531 0.108396ZM39.7659 19.2223L43.2142 19.2215V11.3772H47.8885V7.97965H43.2142V3.53668H49.3919V0.108569H39.7659V19.2223ZM26.8894 3.53645H30.4984V19.4243C31.6458 19.3809 32.7955 19.3452 33.9465 19.3151V3.53645H37.5553V0.108396H26.8894V3.53645ZM15.1009 20.4117C18.279 20.1229 21.4717 19.8849 24.679 19.7002V16.3023C22.6298 16.4207 20.5864 16.5609 18.549 16.7212V11.5774C19.8859 11.5641 21.6462 11.5233 23.2056 11.5427V8.14485C21.9598 8.14181 19.9574 8.16224 18.549 8.18025V3.53668H24.679V0.108569H15.1009V20.4117ZM8.33693 12.5571L3.84593 0.108396H0.568848V22.1064C1.71603 21.9431 2.86539 21.7868 4.01699 21.6368V9.67431L8.01026 21.1456C9.26623 21 10.5244 20.862 11.7851 20.7323V0.108396H8.33693V12.5571ZM63.8068 20.0685C64.9579 20.1566 66.1073 20.2511 67.2555 20.3532V0.108396H63.8068V20.0685Z" fill="#5A5F63"/>
</svg>
