<svg width="15" height="14" viewBox="0 0 15 14" fill="none" xmlns="http://www.w3.org/2000/svg">
<path d="M11.635 2.625H2.88501C2.53691 2.625 2.20307 2.76328 1.95693 3.00942C1.71079 3.25556 1.57251 3.5894 1.57251 3.9375V10.0625C1.57251 10.4106 1.71079 10.7444 1.95693 10.9906C2.20307 11.2367 2.53691 11.375 2.88501 11.375H11.635C11.9831 11.375 12.3169 11.2367 12.5631 10.9906C12.8092 10.7444 12.9475 10.4106 12.9475 10.0625V3.9375C12.9475 3.5894 12.8092 3.25556 12.5631 3.00942C12.3169 2.76328 11.9831 2.625 11.635 2.625ZM2.44751 5.25H12.0725V6.125H9.01001C8.89398 6.125 8.7827 6.17109 8.70065 6.25314C8.6186 6.33519 8.57251 6.44647 8.57251 6.5625C8.57251 6.9106 8.43423 7.24444 8.18809 7.49058C7.94195 7.73672 7.60811 7.875 7.26001 7.875C6.91191 7.875 6.57807 7.73672 6.33193 7.49058C6.08579 7.24444 5.94751 6.9106 5.94751 6.5625C5.94751 6.44647 5.90142 6.33519 5.81937 6.25314C5.73732 6.17109 5.62604 6.125 5.51001 6.125H2.44751V5.25ZM2.88501 3.5H11.635C11.751 3.5 11.8623 3.54609 11.9444 3.62814C12.0264 3.71019 12.0725 3.82147 12.0725 3.9375V4.375H2.44751V3.9375C2.44751 3.82147 2.4936 3.71019 2.57565 3.62814C2.6577 3.54609 2.76898 3.5 2.88501 3.5ZM11.635 10.5H2.88501C2.76898 10.5 2.6577 10.4539 2.57565 10.3719C2.4936 10.2898 2.44751 10.1785 2.44751 10.0625V7H5.11626C5.21667 7.4945 5.48495 7.93908 5.87565 8.25842C6.26634 8.57775 6.75542 8.75219 7.26001 8.75219C7.7646 8.75219 8.25368 8.57775 8.64437 8.25842C9.03507 7.93908 9.30335 7.4945 9.40376 7H12.0725V10.0625C12.0725 10.1785 12.0264 10.2898 11.9444 10.3719C11.8623 10.4539 11.751 10.5 11.635 10.5Z" fill="#5A5F63"/>
</svg>
