<svg width="15" height="14" viewBox="0 0 15 14" fill="none" xmlns="http://www.w3.org/2000/svg">
<path d="M12.51 10.9375H12.0725V2.1875C12.0725 2.07147 12.0264 1.96019 11.9444 1.87814C11.8623 1.79609 11.751 1.75 11.635 1.75H8.57251C8.45648 1.75 8.3452 1.79609 8.26315 1.87814C8.1811 1.96019 8.13501 2.07147 8.13501 2.1875V4.375H5.51001C5.39398 4.375 5.2827 4.42109 5.20065 4.50314C5.1186 4.58519 5.07251 4.69647 5.07251 4.8125V7H2.88501C2.76898 7 2.6577 7.04609 2.57565 7.12814C2.4936 7.21019 2.44751 7.32147 2.44751 7.4375V10.9375H2.01001C1.89398 10.9375 1.7827 10.9836 1.70065 11.0656C1.6186 11.1477 1.57251 11.259 1.57251 11.375C1.57251 11.491 1.6186 11.6023 1.70065 11.6844C1.7827 11.7664 1.89398 11.8125 2.01001 11.8125H12.51C12.626 11.8125 12.7373 11.7664 12.8194 11.6844C12.9014 11.6023 12.9475 11.491 12.9475 11.375C12.9475 11.259 12.9014 11.1477 12.8194 11.0656C12.7373 10.9836 12.626 10.9375 12.51 10.9375ZM9.01001 2.625H11.1975V10.9375H9.01001V2.625ZM5.94751 5.25H8.13501V10.9375H5.94751V5.25ZM3.32251 7.875H5.07251V10.9375H3.32251V7.875Z" fill="#5A5F63"/>
</svg>
