<svg width="32" height="33" viewBox="0 0 32 33" fill="none" xmlns="http://www.w3.org/2000/svg">
<path d="M18.0338 5.89188C18.0677 5.76497 18.1263 5.64599 18.2063 5.54174C18.2862 5.43749 18.3859 5.35002 18.4997 5.28431C18.6134 5.21861 18.739 5.17597 18.8693 5.15882C18.9995 5.14167 19.1319 5.15036 19.2588 5.18438C21.1126 5.66806 22.804 6.63718 24.1587 7.99192C25.5135 9.34666 26.4826 11.038 26.9663 12.8919C27.0003 13.0188 27.009 13.1511 26.9918 13.2814C26.9747 13.4116 26.932 13.5372 26.8663 13.651C26.8006 13.7647 26.7131 13.8644 26.6089 13.9444C26.5047 14.0243 26.3857 14.0829 26.2588 14.1169C26.1743 14.1391 26.0873 14.1504 26 14.1506C25.7796 14.1506 25.5655 14.0778 25.3907 13.9436C25.216 13.8093 25.0905 13.6211 25.0338 13.4081C24.6393 11.8948 23.8483 10.514 22.7425 9.40815C21.6366 8.3023 20.2559 7.51136 18.7425 7.11688C18.6155 7.08307 18.4964 7.02454 18.392 6.94466C18.2876 6.86477 18.2 6.76509 18.1342 6.65132C18.0683 6.53754 18.0256 6.4119 18.0084 6.28159C17.9911 6.15128 17.9998 6.01885 18.0338 5.89188ZM17.7425 11.1169C19.4663 11.5769 20.5738 12.6844 21.0338 14.4081C21.0905 14.6211 21.216 14.8093 21.3907 14.9436C21.5655 15.0778 21.7796 15.1506 22 15.1506C22.0873 15.1504 22.1743 15.1391 22.2588 15.1169C22.3857 15.0829 22.5047 15.0243 22.6089 14.9444C22.7131 14.8644 22.8006 14.7647 22.8663 14.651C22.932 14.5372 22.9747 14.4116 22.9918 14.2814C23.009 14.1511 23.0003 14.0188 22.9663 13.8919C22.3263 11.4969 20.6538 9.82438 18.2588 9.18438C18.0025 9.11592 17.7295 9.15206 17.4999 9.28486C17.2703 9.41766 17.1028 9.63624 17.0344 9.8925C16.9659 10.1488 17.0021 10.4217 17.1349 10.6513C17.2677 10.881 17.4862 11.0484 17.7425 11.1169ZM27.985 23.0356C27.7621 24.7294 26.9303 26.2842 25.6449 27.4095C24.3595 28.5348 22.7084 29.1537 21 29.1506C11.075 29.1506 3.00001 21.0756 3.00001 11.1506C2.99695 9.44224 3.61587 7.79115 4.74118 6.50575C5.86649 5.22034 7.42122 4.38851 9.11501 4.16563C9.54333 4.11333 9.97707 4.20095 10.3515 4.41542C10.7259 4.62989 11.0209 4.95971 11.1925 5.35563L13.8325 11.2494V11.2644C13.9639 11.5674 14.0181 11.8983 13.9904 12.2275C13.9627 12.5566 13.8539 12.8738 13.6738 13.1506C13.6513 13.1844 13.6275 13.2156 13.6025 13.2469L11 16.3319C11.9363 18.2344 13.9263 20.2069 15.8538 21.1456L18.8963 18.5569C18.9261 18.5318 18.9574 18.5084 18.99 18.4869C19.2666 18.3024 19.5849 18.1898 19.916 18.1592C20.2471 18.1286 20.5806 18.1811 20.8863 18.3119L20.9025 18.3194L26.7913 20.9581C27.1879 21.1291 27.5185 21.4238 27.7337 21.7983C27.9489 22.1728 28.037 22.6069 27.985 23.0356ZM26 22.7856C26 22.7856 25.9913 22.7856 25.9863 22.7856L20.1113 20.1544L17.0675 22.7431C17.038 22.7681 17.0071 22.7915 16.975 22.8131C16.6872 23.0051 16.3545 23.1192 16.0094 23.1442C15.6644 23.1692 15.3187 23.1042 15.0063 22.9556C12.665 21.8244 10.3313 19.5081 9.19876 17.1919C9.0488 16.8817 8.9815 16.538 9.0034 16.1942C9.0253 15.8504 9.13565 15.518 9.32376 15.2294C9.34496 15.1955 9.36879 15.1633 9.39501 15.1331L12 12.0444L9.37501 6.16938C9.37452 6.16439 9.37452 6.15936 9.37501 6.15438C8.16283 6.3125 7.04986 6.90708 6.24453 7.82677C5.43919 8.74646 4.99674 9.92818 5.00001 11.1506C5.00464 15.3927 6.69184 19.4596 9.69142 22.4592C12.691 25.4588 16.758 27.146 21 27.1506C22.2217 27.1548 23.4031 26.7139 24.3233 25.9103C25.2436 25.1067 25.8396 23.9955 26 22.7844V22.7856Z" fill="#C82859"/>
</svg>
