<svg width="14" height="14" viewBox="0 0 14 14" fill="none" xmlns="http://www.w3.org/2000/svg">
<path d="M12.6652 4.92904C9.59447 1.85943 4.40572 1.85943 1.33502 4.92904C0.241266 6.02279 0.136266 7.63552 1.07853 8.85068C1.16043 8.95569 1.26522 9.04062 1.38492 9.099C1.50462 9.15738 1.63606 9.18767 1.76923 9.18755C1.87681 9.18761 1.98346 9.16758 2.08369 9.12849L4.76337 8.17857L4.77923 8.17255C4.91448 8.11846 5.03409 8.03146 5.1272 7.91944C5.22031 7.80742 5.28398 7.67393 5.31244 7.53107L5.63509 5.91669C6.51484 5.61258 7.47088 5.61046 8.35197 5.91068L8.69158 7.53763C8.72103 7.67893 8.78498 7.81074 8.87773 7.92133C8.97047 8.03192 9.08914 8.11785 9.22314 8.17146L9.239 8.17748L11.9187 9.12849C12.0937 9.1963 12.286 9.20601 12.467 9.15618C12.648 9.10635 12.8082 8.99962 12.9238 8.85177C13.8639 7.63552 13.7584 6.02279 12.6652 4.92904ZM12.232 8.31255L12.2156 8.30599L9.5458 7.35826L9.20619 5.73185C9.17537 5.58468 9.10714 5.44794 9.0081 5.33481C8.90905 5.22168 8.78252 5.13599 8.64072 5.08599C7.57086 4.7197 6.40915 4.7222 5.34088 5.0931C5.19797 5.14416 5.07081 5.2315 4.97186 5.34655C4.87291 5.46161 4.80559 5.60042 4.7765 5.74935L4.45384 7.36318L1.78455 8.3049C1.77908 8.3049 1.77525 8.31201 1.76978 8.31419C1.09548 7.44412 1.16822 6.33287 1.95353 5.5481C3.32072 4.18091 5.16095 3.49568 7.00009 3.49568C8.83923 3.49568 10.6789 4.17982 12.0467 5.5481C12.8303 6.33287 12.9063 7.44412 12.232 8.31255ZM12.2495 10.9376C12.2495 11.0536 12.2035 11.1649 12.1214 11.2469C12.0394 11.329 11.9281 11.3751 11.812 11.3751H2.18759C2.07156 11.3751 1.96028 11.329 1.87823 11.2469C1.79619 11.1649 1.75009 11.0536 1.75009 10.9376C1.75009 10.8215 1.79619 10.7102 1.87823 10.6282C1.96028 10.5461 2.07156 10.5001 2.18759 10.5001H11.8126C11.9286 10.5001 12.0399 10.5461 12.122 10.6282C12.204 10.7102 12.2501 10.8215 12.2501 10.9376H12.2495Z" fill="#5A5F63"/>
</svg>
