<svg width="59" height="59" viewBox="0 0 59 59" fill="none" xmlns="http://www.w3.org/2000/svg">
<rect x="0.0703125" y="0.772461" width="57.9771" height="57.9771" rx="28.9886" fill="#FCEAEF"/>
<path d="M41.8915 35.577C41.6713 37.2508 40.8492 38.7873 39.5789 39.8994C38.3086 41.0115 36.6769 41.6231 34.9886 41.6201C25.1803 41.6201 17.2002 33.64 17.2002 23.8317C17.1972 22.1434 17.8088 20.5117 18.9209 19.2414C20.033 17.9711 21.5695 17.149 23.2433 16.9288C23.6666 16.8771 24.0953 16.9637 24.4653 17.1756C24.8353 17.3876 25.1269 17.7135 25.2964 18.1048L27.9054 23.9292V23.9441C28.0352 24.2436 28.0888 24.5706 28.0614 24.8958C28.0341 25.2211 27.9265 25.5346 27.7485 25.8081C27.7263 25.8415 27.7028 25.8724 27.6781 25.9033L25.1062 28.952C26.0314 30.8321 27.998 32.7815 29.9029 33.7092L32.9096 31.1509C32.9391 31.126 32.9701 31.1029 33.0023 31.0817C33.2756 30.8993 33.5901 30.7881 33.9173 30.7579C34.2445 30.7277 34.5741 30.7795 34.8762 30.9087L34.8923 30.9161L40.7118 33.5239C41.1038 33.6928 41.4305 33.9841 41.6432 34.3542C41.8558 34.7243 41.9429 35.1532 41.8915 35.577Z" fill="#DC2C62"/>
</svg>
