<svg width="27" height="27" viewBox="0 0 27 27" fill="none" xmlns="http://www.w3.org/2000/svg">
<path d="M23.9832 12.3753L9.14186 3.29617C8.89164 3.14295 8.60506 3.0593 8.3117 3.05387C8.01835 3.04844 7.72886 3.12142 7.47314 3.26527C7.21985 3.40689 7.00886 3.61341 6.86186 3.86361C6.71485 4.11381 6.63714 4.39864 6.63672 4.68883V22.8449C6.63863 23.2802 6.81331 23.6969 7.12236 24.0035C7.43142 24.31 7.84955 24.4813 8.28484 24.4797C8.58866 24.4795 8.88659 24.3958 9.14598 24.2376L23.9832 15.1585C24.2217 15.0132 24.4188 14.8089 24.5555 14.5654C24.6923 14.3218 24.7641 14.0472 24.7641 13.7679C24.7641 13.4886 24.6923 13.214 24.5555 12.9705C24.4188 12.7269 24.2217 12.5227 23.9832 12.3773V12.3753ZM8.28484 22.8254V4.70222L23.1004 13.7669L8.28484 22.8254Z" fill="#C82859"/>
</svg>
