<svg width="54" height="54" viewBox="0 0 54 54" fill="none" xmlns="http://www.w3.org/2000/svg">
<g filter="url(#filter0_d_3089_12252)">
<rect x="7" y="5.63525" width="40" height="40" rx="6.66667" fill="#FCEAEF" shape-rendering="crispEdges"/>
<path d="M36.167 18.1351H32.0003V17.3018C32.0003 16.6387 31.7369 16.0028 31.2681 15.534C30.7993 15.0651 30.1634 14.8018 29.5003 14.8018H24.5003C23.8373 14.8018 23.2014 15.0651 22.7326 15.534C22.2637 16.0028 22.0003 16.6387 22.0003 17.3018V18.1351H17.8337C17.3916 18.1351 16.9677 18.3107 16.6551 18.6232C16.3426 18.9358 16.167 19.3597 16.167 19.8018V33.1351C16.167 33.5771 16.3426 34.001 16.6551 34.3136C16.9677 34.6262 17.3916 34.8018 17.8337 34.8018H36.167C36.609 34.8018 37.0329 34.6262 37.3455 34.3136C37.6581 34.001 37.8337 33.5771 37.8337 33.1351V19.8018C37.8337 19.3597 37.6581 18.9358 37.3455 18.6232C37.0329 18.3107 36.609 18.1351 36.167 18.1351ZM23.667 17.3018C23.667 17.0807 23.7548 16.8688 23.9111 16.7125C24.0674 16.5562 24.2793 16.4684 24.5003 16.4684H29.5003C29.7213 16.4684 29.9333 16.5562 30.0896 16.7125C30.2459 16.8688 30.3337 17.0807 30.3337 17.3018V18.1351H23.667V17.3018ZM30.3337 19.8018V33.1351H23.667V19.8018H30.3337ZM17.8337 19.8018H22.0003V33.1351H17.8337V19.8018ZM36.167 33.1351H32.0003V19.8018H36.167V33.1351Z" fill="#C82859"/>
</g>
<defs>
<filter id="filter0_d_3089_12252" x="0.333333" y="0.635254" width="53.3333" height="53.3333" filterUnits="userSpaceOnUse" color-interpolation-filters="sRGB">
<feFlood flood-opacity="0" result="BackgroundImageFix"/>
<feColorMatrix in="SourceAlpha" type="matrix" values="0 0 0 0 0 0 0 0 0 0 0 0 0 0 0 0 0 0 127 0" result="hardAlpha"/>
<feOffset dy="1.66667"/>
<feGaussianBlur stdDeviation="3.33333"/>
<feComposite in2="hardAlpha" operator="out"/>
<feColorMatrix type="matrix" values="0 0 0 0 0 0 0 0 0 0 0 0 0 0 0 0 0 0 0.08 0"/>
<feBlend mode="normal" in2="BackgroundImageFix" result="effect1_dropShadow_3089_12252"/>
<feBlend mode="normal" in="SourceGraphic" in2="effect1_dropShadow_3089_12252" result="shape"/>
</filter>
</defs>
</svg>
