<svg width="14" height="14" viewBox="0 0 14 14" fill="none" xmlns="http://www.w3.org/2000/svg">
<path d="M12.0461 8.67022C11.9837 8.63087 11.9124 8.60793 11.8388 8.60353C11.7651 8.59914 11.6916 8.61342 11.625 8.64506C11.4583 8.7239 11.2743 8.75931 11.0903 8.748C10.9062 8.73669 10.728 8.67902 10.5722 8.58036C10.4164 8.4817 10.2881 8.34525 10.1992 8.18369C10.1103 8.02214 10.0636 7.84072 10.0636 7.65631C10.0636 7.4719 10.1103 7.29048 10.1992 7.12893C10.2881 6.96737 10.4164 6.83092 10.5722 6.73226C10.728 6.6336 10.9062 6.57593 11.0903 6.56462C11.2743 6.55331 11.4583 6.58872 11.625 6.66756C11.6917 6.69921 11.7653 6.71347 11.839 6.70901C11.9127 6.70455 11.9841 6.68152 12.0464 6.64205C12.1088 6.60259 12.1602 6.54798 12.1958 6.4833C12.2314 6.41863 12.2501 6.346 12.2501 6.27217V3.93756C12.2501 3.7055 12.1579 3.48294 11.9938 3.31884C11.8297 3.15475 11.6071 3.06256 11.3751 3.06256H9.39429C9.40243 2.98993 9.40645 2.9169 9.40632 2.84381C9.40592 2.57493 9.35061 2.30895 9.24378 2.0622C9.13696 1.81545 8.98086 1.59311 8.78507 1.40881C8.51397 1.15419 8.17628 0.981575 7.81113 0.910947C7.44597 0.840319 7.06828 0.87457 6.72178 1.00973C6.37529 1.1449 6.07417 1.37545 5.85329 1.67468C5.63242 1.97391 5.50082 2.32959 5.47374 2.70053C5.46534 2.82119 5.4679 2.94236 5.4814 3.06256H3.50007C3.268 3.06256 3.04544 3.15475 2.88135 3.31884C2.71726 3.48294 2.62507 3.7055 2.62507 3.93756V5.69959C2.55244 5.69145 2.4794 5.68743 2.40632 5.68756C2.13744 5.68799 1.87148 5.74332 1.62473 5.85014C1.37798 5.95697 1.15563 6.11304 0.971318 6.30881C0.785681 6.5049 0.642739 6.73737 0.551526 6.99152C0.460313 7.24568 0.422814 7.51599 0.441397 7.78537C0.472748 8.25972 0.674298 8.7068 1.00898 9.0444C1.34367 9.38199 1.78898 9.58741 2.26304 9.62287C2.38369 9.63155 2.50489 9.62899 2.62507 9.61522V11.3751C2.62507 11.6071 2.71726 11.8297 2.88135 11.9938C3.04544 12.1579 3.268 12.2501 3.50007 12.2501H11.3751C11.6071 12.2501 11.8297 12.1579 11.9938 11.9938C12.1579 11.8297 12.2501 11.6071 12.2501 11.3751V9.04045C12.2501 8.96653 12.2314 8.89381 12.1958 8.82906C12.1601 8.76432 12.1086 8.70967 12.0461 8.67022ZM11.3751 11.3751H3.50007V9.04045C3.50009 8.96663 3.48143 8.89399 3.44583 8.82932C3.41023 8.76465 3.35884 8.71003 3.29645 8.67057C3.23405 8.6311 3.16269 8.60807 3.089 8.60361C3.01531 8.59915 2.94169 8.61341 2.87499 8.64506C2.70828 8.7239 2.52435 8.75931 2.34029 8.748C2.15622 8.73669 1.97801 8.67902 1.82221 8.58036C1.66641 8.4817 1.53809 8.34525 1.44917 8.18369C1.36025 8.02214 1.31363 7.84072 1.31363 7.65631C1.31363 7.4719 1.36025 7.29048 1.44917 7.12893C1.53809 6.96737 1.66641 6.83092 1.82221 6.73226C1.97801 6.6336 2.15622 6.57593 2.34029 6.56462C2.52435 6.55331 2.70828 6.58872 2.87499 6.66756C2.94169 6.69921 3.01531 6.71347 3.089 6.70901C3.16269 6.70455 3.23405 6.68152 3.29645 6.64205C3.35884 6.60259 3.41023 6.54798 3.44583 6.4833C3.48143 6.41863 3.50009 6.346 3.50007 6.27217V3.93756H6.05343C6.12725 3.93758 6.19988 3.91893 6.26456 3.88332C6.32923 3.84772 6.38384 3.79633 6.42331 3.73394C6.46278 3.67155 6.48581 3.60018 6.49027 3.52649C6.49473 3.4528 6.48047 3.37918 6.44882 3.31248C6.36998 3.14578 6.33457 2.96184 6.34588 2.77778C6.35719 2.59372 6.41486 2.4155 6.51352 2.2597C6.61218 2.10391 6.74863 1.97558 6.91019 1.88666C7.07174 1.79775 7.25316 1.75112 7.43757 1.75112C7.62198 1.75112 7.80339 1.79775 7.96495 1.88666C8.12651 1.97558 8.26296 2.10391 8.36162 2.2597C8.46028 2.4155 8.51795 2.59372 8.52926 2.77778C8.54057 2.96184 8.50516 3.14578 8.42632 3.31248C8.39467 3.37918 8.3804 3.4528 8.38486 3.52649C8.38933 3.60018 8.41236 3.67155 8.45183 3.73394C8.49129 3.79633 8.5459 3.84772 8.61058 3.88332C8.67525 3.91893 8.74788 3.93758 8.82171 3.93756H11.3751V5.70014C11.2549 5.68637 11.1337 5.68381 11.013 5.69248C10.5038 5.72854 10.0286 5.96096 9.68746 6.34071C9.34634 6.72047 9.16607 7.21787 9.18465 7.728C9.20324 8.23812 9.41924 8.72109 9.78708 9.07501C10.1549 9.42894 10.6459 9.62616 11.1563 9.62506C11.2294 9.62519 11.3024 9.62117 11.3751 9.61303V11.3751Z" fill="#5A5F63"/>
</svg>
