<svg width="54" height="54" viewBox="0 0 54 54" fill="none" xmlns="http://www.w3.org/2000/svg">
<g filter="url(#filter0_d_3089_12332)">
<rect x="7" y="5.63525" width="40" height="40" rx="6.66667" fill="#FCEAEF" shape-rendering="crispEdges"/>
<path d="M38.6667 33.9682H37V26.4682L37.2437 26.712C37.4004 26.8683 37.6127 26.9561 37.8341 26.9559C38.0554 26.9557 38.2676 26.8676 38.424 26.7109C38.5803 26.5543 38.6681 26.3419 38.6679 26.1206C38.6677 25.8993 38.5796 25.6871 38.4229 25.5307L28.1781 15.289C27.8656 14.9767 27.4418 14.8013 27 14.8013C26.5582 14.8013 26.1344 14.9767 25.8219 15.289L15.5771 25.5307C15.4209 25.6871 15.3331 25.8991 15.3332 26.1201C15.3333 26.3412 15.4212 26.5531 15.5776 26.7094C15.734 26.8656 15.946 26.9533 16.167 26.9532C16.3881 26.9531 16.6 26.8652 16.7562 26.7088L17 26.4682V33.9682H15.3333C15.1123 33.9682 14.9004 34.056 14.7441 34.2123C14.5878 34.3686 14.5 34.5805 14.5 34.8015C14.5 35.0226 14.5878 35.2345 14.7441 35.3908C14.9004 35.5471 15.1123 35.6349 15.3333 35.6349H38.6667C38.8877 35.6349 39.0996 35.5471 39.2559 35.3908C39.4122 35.2345 39.5 35.0226 39.5 34.8015C39.5 34.5805 39.4122 34.3686 39.2559 34.2123C39.0996 34.056 38.8877 33.9682 38.6667 33.9682ZM18.6667 24.8015L27 16.4682L35.3333 24.8015V33.9682H30.3333V28.1349C30.3333 27.9139 30.2455 27.7019 30.0893 27.5456C29.933 27.3893 29.721 27.3015 29.5 27.3015H24.5C24.279 27.3015 24.067 27.3893 23.9107 27.5456C23.7545 27.7019 23.6667 27.9139 23.6667 28.1349V33.9682H18.6667V24.8015ZM28.6667 33.9682H25.3333V28.9682H28.6667V33.9682Z" fill="#C82859"/>
</g>
<defs>
<filter id="filter0_d_3089_12332" x="0.333333" y="0.635254" width="53.3333" height="53.3333" filterUnits="userSpaceOnUse" color-interpolation-filters="sRGB">
<feFlood flood-opacity="0" result="BackgroundImageFix"/>
<feColorMatrix in="SourceAlpha" type="matrix" values="0 0 0 0 0 0 0 0 0 0 0 0 0 0 0 0 0 0 127 0" result="hardAlpha"/>
<feOffset dy="1.66667"/>
<feGaussianBlur stdDeviation="3.33333"/>
<feComposite in2="hardAlpha" operator="out"/>
<feColorMatrix type="matrix" values="0 0 0 0 0 0 0 0 0 0 0 0 0 0 0 0 0 0 0.08 0"/>
<feBlend mode="normal" in2="BackgroundImageFix" result="effect1_dropShadow_3089_12332"/>
<feBlend mode="normal" in="SourceGraphic" in2="effect1_dropShadow_3089_12332" result="shape"/>
</filter>
</defs>
</svg>
