<svg width="29" height="29" viewBox="0 0 29 29" fill="none" xmlns="http://www.w3.org/2000/svg">
<path d="M16.9564 24.6503C16.9564 24.8824 16.8642 25.1049 16.7002 25.269C16.5361 25.4331 16.3135 25.5253 16.0814 25.5253H12.5814C12.3494 25.5253 12.1268 25.4331 11.9627 25.269C11.7986 25.1049 11.7064 24.8824 11.7064 24.6503C11.7064 24.4182 11.7986 24.1957 11.9627 24.0316C12.1268 23.8675 12.3494 23.7753 12.5814 23.7753H16.0814C16.3135 23.7753 16.5361 23.8675 16.7002 24.0316C16.8642 24.1957 16.9564 24.4182 16.9564 24.6503ZM14.3314 12.4003C14.591 12.4003 14.8448 12.3233 15.0606 12.1791C15.2765 12.0349 15.4447 11.8299 15.544 11.5901C15.6434 11.3502 15.6694 11.0863 15.6187 10.8317C15.5681 10.5771 15.4431 10.3433 15.2595 10.1597C15.076 9.97616 14.8421 9.85115 14.5875 9.80051C14.3329 9.74987 14.069 9.77586 13.8292 9.8752C13.5893 9.97454 13.3843 10.1428 13.2401 10.3586C13.0959 10.5744 13.0189 10.8282 13.0189 11.0878C13.0189 11.4359 13.1572 11.7697 13.4034 12.0159C13.6495 12.262 13.9833 12.4003 14.3314 12.4003ZM24.7899 17.1942L23.438 23.2787C23.3739 23.5677 23.2375 23.8356 23.0416 24.0575C22.8458 24.2794 22.5969 24.448 22.3181 24.5476C22.0394 24.6471 21.74 24.6743 21.4479 24.6267C21.1557 24.579 20.8805 24.4581 20.6478 24.2751L17.6685 22.0253H10.9966L8.01503 24.2751C7.78237 24.4581 7.50712 24.579 7.215 24.6267C6.92289 24.6743 6.62347 24.6471 6.34474 24.5476C6.06601 24.448 5.81708 24.2794 5.62123 24.0575C5.42538 23.8356 5.28901 23.5677 5.22487 23.2787L3.87299 17.1942C3.81565 16.9331 3.81855 16.6623 3.88147 16.4025C3.94439 16.1427 4.06567 15.9006 4.23612 15.6947L7.35987 11.9475C7.46471 10.5704 7.78086 9.21762 8.29721 7.9367C9.70815 4.39951 12.2347 2.18029 13.2596 1.3906C13.5663 1.15291 13.9434 1.02393 14.3314 1.02393C14.7195 1.02393 15.0966 1.15291 15.4033 1.3906C16.4249 2.18029 18.9547 4.39951 20.3657 7.9367C20.882 9.21762 21.1982 10.5704 21.303 11.9475L24.4267 15.6947C24.5972 15.9006 24.7185 16.1427 24.7814 16.4025C24.8443 16.6623 24.8472 16.9331 24.7899 17.1942ZM11.2066 20.2753H17.4563C19.7663 16.1694 20.1983 12.2384 18.7403 8.58529C17.4541 5.36092 15.0413 3.32216 14.3314 2.77529C13.6194 3.32216 11.2066 5.36092 9.92034 8.58529C8.46456 12.2384 8.89659 16.1694 11.2066 20.2753ZM9.56596 20.9151C8.38836 18.775 7.67378 16.6717 7.42221 14.6053L5.58143 16.8147L6.93331 22.9003L6.95299 22.8861L9.56596 20.9151ZM23.0814 16.8147L21.2407 14.6053C20.9913 16.6674 20.2782 18.7707 19.1013 20.9151L21.7099 22.8839L21.7296 22.8981L23.0814 16.8147Z" fill="#C82859"/>
</svg>
