<svg width="54" height="54" viewBox="0 0 54 54" fill="none" xmlns="http://www.w3.org/2000/svg">
<g filter="url(#filter0_d_2875_19510)">
<rect x="7.33203" y="5.15039" width="40" height="40" rx="6.66667" fill="#FCEAEF" shape-rendering="crispEdges"/>
<path d="M37.3167 16.7256C37.292 16.3192 37.1194 15.936 36.8316 15.6482C36.5437 15.3603 36.1605 15.1878 35.7542 15.1631C34.4438 15.0849 31.0948 15.2047 28.3156 17.9829L27.8208 18.4839H21.7448C21.5251 18.4827 21.3073 18.5251 21.1042 18.6088C20.901 18.6925 20.7166 18.8158 20.5615 18.9714L16.9886 22.5464C16.7694 22.7654 16.6157 23.0411 16.5445 23.3426C16.4734 23.6441 16.4877 23.9594 16.5858 24.2532C16.6839 24.5471 16.862 24.8077 17.1 25.006C17.3381 25.2042 17.6266 25.3322 17.9333 25.3756L21.9406 25.9349L26.5458 30.5401L27.1052 34.5495C27.1482 34.8563 27.2762 35.1449 27.4746 35.3827C27.6731 35.6205 27.9341 35.7981 28.2281 35.8954C28.3994 35.9526 28.5788 35.9818 28.7594 35.9818C28.978 35.9822 29.1946 35.9394 29.3966 35.8557C29.5987 35.772 29.7821 35.6492 29.9365 35.4943L33.5115 31.9214C33.6671 31.7663 33.7904 31.5818 33.8741 31.3787C33.9577 31.1755 34.0002 30.9578 33.999 30.7381V24.662L34.4958 24.1651C37.275 21.386 37.3948 18.037 37.3167 16.7256ZM21.7448 20.1506H26.1542L22.0365 24.2672L18.1656 23.7276L21.7448 20.1506ZM29.4958 19.1662C30.2966 18.3605 31.2601 17.7349 32.3219 17.3313C33.3837 16.9277 34.5194 16.7553 35.6531 16.8256C35.7262 17.9599 35.5555 19.0968 35.1527 20.1597C34.7499 21.2226 34.1242 22.187 33.3177 22.9881L27.3323 28.9714L23.5115 25.1506L29.4958 19.1662ZM32.3323 30.7381L28.7563 34.3172L28.2156 30.4454L32.3323 26.3287V30.7381ZM24.6073 31.7276C24.1386 32.7547 22.5708 35.1506 18.1656 35.1506C17.9446 35.1506 17.7327 35.0628 17.5764 34.9065C17.4201 34.7502 17.3323 34.5382 17.3323 34.3172C17.3323 29.912 19.7281 28.3443 20.7552 27.8745C20.8548 27.8291 20.9624 27.8038 21.0718 27.7999C21.1811 27.7961 21.2902 27.8138 21.3927 27.8521C21.4953 27.8904 21.5893 27.9485 21.6693 28.0231C21.7494 28.0978 21.814 28.1874 21.8594 28.287C21.9048 28.3866 21.9302 28.4942 21.934 28.6035C21.9379 28.7129 21.9201 28.822 21.8818 28.9245C21.8435 29.0271 21.7854 29.1211 21.7108 29.2011C21.6361 29.2812 21.5465 29.3458 21.4469 29.3912C20.7771 29.6964 19.299 30.6787 19.0386 33.4443C21.8042 33.1839 22.7886 31.7058 23.0917 31.036C23.1371 30.9364 23.2017 30.8467 23.2818 30.7721C23.3618 30.6975 23.4558 30.6394 23.5583 30.601C23.6609 30.5627 23.7699 30.545 23.8793 30.5489C23.9887 30.5527 24.0963 30.5781 24.1958 30.6235C24.2954 30.6689 24.3851 30.7335 24.4597 30.8136C24.5344 30.8936 24.5925 30.9876 24.6308 31.0901C24.6691 31.1927 24.6868 31.3017 24.683 31.4111C24.6791 31.5205 24.6538 31.6281 24.6083 31.7276H24.6073Z" fill="#C82859"/>
</g>
<defs>
<filter id="filter0_d_2875_19510" x="0.665364" y="0.15039" width="53.3333" height="53.3333" filterUnits="userSpaceOnUse" color-interpolation-filters="sRGB">
<feFlood flood-opacity="0" result="BackgroundImageFix"/>
<feColorMatrix in="SourceAlpha" type="matrix" values="0 0 0 0 0 0 0 0 0 0 0 0 0 0 0 0 0 0 127 0" result="hardAlpha"/>
<feOffset dy="1.66667"/>
<feGaussianBlur stdDeviation="3.33333"/>
<feComposite in2="hardAlpha" operator="out"/>
<feColorMatrix type="matrix" values="0 0 0 0 0 0 0 0 0 0 0 0 0 0 0 0 0 0 0.08 0"/>
<feBlend mode="normal" in2="BackgroundImageFix" result="effect1_dropShadow_2875_19510"/>
<feBlend mode="normal" in="SourceGraphic" in2="effect1_dropShadow_2875_19510" result="shape"/>
</filter>
</defs>
</svg>
