<svg width="64" height="64" viewBox="0 0 64 64" fill="none" xmlns="http://www.w3.org/2000/svg">
<g filter="url(#filter0_d_3170_14725)">
<rect x="8" y="6" width="48" height="48" rx="8" fill="#FCEAEF" shape-rendering="crispEdges"/>
<path d="M29 19H23C22.4696 19 21.9609 19.2107 21.5858 19.5858C21.2107 19.9609 21 20.4696 21 21V27C21 27.5304 21.2107 28.0391 21.5858 28.4142C21.9609 28.7893 22.4696 29 23 29H29C29.5304 29 30.0391 28.7893 30.4142 28.4142C30.7893 28.0391 31 27.5304 31 27V21C31 20.4696 30.7893 19.9609 30.4142 19.5858C30.0391 19.2107 29.5304 19 29 19ZM29 27H23V21H29V27ZM41 19H35C34.4696 19 33.9609 19.2107 33.5858 19.5858C33.2107 19.9609 33 20.4696 33 21V27C33 27.5304 33.2107 28.0391 33.5858 28.4142C33.9609 28.7893 34.4696 29 35 29H41C41.5304 29 42.0391 28.7893 42.4142 28.4142C42.7893 28.0391 43 27.5304 43 27V21C43 20.4696 42.7893 19.9609 42.4142 19.5858C42.0391 19.2107 41.5304 19 41 19ZM41 27H35V21H41V27ZM29 31H23C22.4696 31 21.9609 31.2107 21.5858 31.5858C21.2107 31.9609 21 32.4696 21 33V39C21 39.5304 21.2107 40.0391 21.5858 40.4142C21.9609 40.7893 22.4696 41 23 41H29C29.5304 41 30.0391 40.7893 30.4142 40.4142C30.7893 40.0391 31 39.5304 31 39V33C31 32.4696 30.7893 31.9609 30.4142 31.5858C30.0391 31.2107 29.5304 31 29 31ZM29 39H23V33H29V39ZM41 31H35C34.4696 31 33.9609 31.2107 33.5858 31.5858C33.2107 31.9609 33 32.4696 33 33V39C33 39.5304 33.2107 40.0391 33.5858 40.4142C33.9609 40.7893 34.4696 41 35 41H41C41.5304 41 42.0391 40.7893 42.4142 40.4142C42.7893 40.0391 43 39.5304 43 39V33C43 32.4696 42.7893 31.9609 42.4142 31.5858C42.0391 31.2107 41.5304 31 41 31ZM41 39H35V33H41V39Z" fill="#C82859"/>
</g>
<defs>
<filter id="filter0_d_3170_14725" x="0" y="0" width="64" height="64" filterUnits="userSpaceOnUse" color-interpolation-filters="sRGB">
<feFlood flood-opacity="0" result="BackgroundImageFix"/>
<feColorMatrix in="SourceAlpha" type="matrix" values="0 0 0 0 0 0 0 0 0 0 0 0 0 0 0 0 0 0 127 0" result="hardAlpha"/>
<feOffset dy="2"/>
<feGaussianBlur stdDeviation="4"/>
<feComposite in2="hardAlpha" operator="out"/>
<feColorMatrix type="matrix" values="0 0 0 0 0 0 0 0 0 0 0 0 0 0 0 0 0 0 0.08 0"/>
<feBlend mode="normal" in2="BackgroundImageFix" result="effect1_dropShadow_3170_14725"/>
<feBlend mode="normal" in="SourceGraphic" in2="effect1_dropShadow_3170_14725" result="shape"/>
</filter>
</defs>
</svg>
