<svg width="20" height="20" viewBox="0 0 20 20" fill="none" xmlns="http://www.w3.org/2000/svg">
<path d="M18.1249 7.50009C18.1258 8.43557 17.8934 9.35651 17.4488 10.1795C17.0041 11.0026 16.3612 11.7017 15.5782 12.2137C14.7952 12.7256 13.8969 13.0342 12.9647 13.1115C12.0324 13.1888 11.0955 13.0324 10.239 12.6563L6.17177 17.361C6.16239 17.372 6.15146 17.3837 6.1413 17.3938C5.67241 17.8627 5.03645 18.1262 4.37333 18.1262C3.71022 18.1262 3.07426 17.8627 2.60536 17.3938C2.13647 16.9249 1.87305 16.289 1.87305 15.6259C1.87305 14.9628 2.13647 14.3268 2.60536 13.8579C2.6163 13.8477 2.62724 13.8368 2.63896 13.8274L7.34364 9.76103C6.92213 8.79681 6.77927 7.73377 6.93126 6.69249C7.08325 5.6512 7.52401 4.67335 8.20354 3.86985C8.88308 3.06635 9.77418 2.46936 10.7758 2.14661C11.7774 1.82386 12.8494 1.78825 13.8702 2.04384C13.9754 2.07021 14.072 2.12353 14.1504 2.19853C14.2288 2.27354 14.2863 2.36765 14.3172 2.47162C14.3482 2.57559 14.3516 2.68583 14.3271 2.7915C14.3025 2.89718 14.2509 2.99464 14.1772 3.07431L11.2499 6.25009L11.6921 8.30868L13.7499 8.75009L16.9257 5.81884C17.0053 5.7452 17.1028 5.69357 17.2085 5.66903C17.3142 5.64448 17.4244 5.64786 17.5284 5.67884C17.6323 5.70982 17.7264 5.76732 17.8015 5.84571C17.8765 5.92409 17.9298 6.02064 17.9561 6.12587C18.0683 6.57533 18.125 7.03684 18.1249 7.50009Z" fill="#791836"/>
</svg>
