<svg width="28" height="29" viewBox="0 0 28 29" fill="none" xmlns="http://www.w3.org/2000/svg">
<path d="M26.1794 7.81531C26.0903 7.53718 25.9201 7.292 25.6908 7.11117C25.4614 6.93034 25.1833 6.8221 24.892 6.80031L20.8517 6.48094L19.2975 2.79938C19.184 2.53277 18.9946 2.30543 18.7529 2.14563C18.5111 1.98583 18.2278 1.90063 17.938 1.90063C17.6482 1.90063 17.3648 1.98583 17.1231 2.14563C16.8814 2.30543 16.692 2.53277 16.5785 2.79938L15.0242 6.48094L10.9839 6.80031C10.6938 6.82169 10.4166 6.92899 10.1877 7.10853C9.95879 7.28807 9.78854 7.53172 9.69866 7.80841C9.60878 8.08509 9.60333 8.38228 9.68303 8.66207C9.76272 8.94186 9.92393 9.19157 10.1461 9.37937L13.2152 11.9694L12.2789 15.8402C12.2108 16.1205 12.2275 16.4147 12.3268 16.6856C12.4261 16.9564 12.6036 17.1917 12.8367 17.3616C13.0721 17.535 13.3536 17.6348 13.6456 17.6482C13.9376 17.6617 14.2271 17.5882 14.4774 17.437L17.938 15.3534L21.3997 17.4381C21.6501 17.5888 21.9395 17.6621 22.2314 17.6487C22.5234 17.6352 22.8048 17.5357 23.0403 17.3627C23.2731 17.1924 23.4502 16.9571 23.5492 16.6863C23.6483 16.4155 23.665 16.1215 23.597 15.8413L22.6608 11.9705L25.7299 9.38047C25.9521 9.19399 26.1136 8.94541 26.1937 8.66656C26.2738 8.38772 26.2688 8.09131 26.1794 7.81531ZM21.1186 10.9784C20.9944 11.0834 20.902 11.2208 20.8515 11.3754C20.8011 11.5299 20.7947 11.6955 20.8331 11.8534L21.7388 15.5952L18.3897 13.5816C18.2535 13.4996 18.0975 13.4563 17.9385 13.4563C17.7796 13.4563 17.6236 13.4996 17.4874 13.5816L14.1383 15.5973L15.0439 11.8534C15.0822 11.6954 15.0757 11.5298 15.025 11.3752C14.9744 11.2206 14.8817 11.0832 14.7574 10.9784L11.813 8.49125L15.698 8.18391C15.8579 8.17122 16.0112 8.11482 16.1412 8.02088C16.2712 7.92694 16.3729 7.79907 16.4352 7.65125L17.938 4.07797L19.4463 7.65125C19.5085 7.79907 19.6102 7.92694 19.7402 8.02088C19.8702 8.11482 20.0236 8.17122 20.1835 8.18391L24.0695 8.49125L21.1186 10.9784ZM9.63424 13.6231L3.24455 20.0194C3.08036 20.1836 2.85768 20.2758 2.62549 20.2758C2.39329 20.2758 2.17061 20.1836 2.00642 20.0194C1.84224 19.8552 1.75 19.6325 1.75 19.4003C1.75 19.1681 1.84224 18.9454 2.00642 18.7812L8.39939 12.3883C8.56358 12.2241 8.78626 12.1319 9.01846 12.1319C9.25065 12.1319 9.47333 12.2241 9.63752 12.3883C9.8017 12.5525 9.89394 12.7752 9.89394 13.0073C9.89394 13.2395 9.8017 13.4622 9.63752 13.6264L9.63424 13.6231ZM10.8166 19.0777C10.9806 19.2417 11.0727 19.4642 11.0727 19.6962C11.0727 19.9281 10.9806 20.1506 10.8166 20.3147L4.99455 26.1444C4.91325 26.2257 4.81674 26.2902 4.71052 26.3342C4.6043 26.3782 4.49046 26.4008 4.37549 26.4008C4.26052 26.4008 4.14667 26.3782 4.04045 26.3342C3.93423 26.2902 3.83772 26.2257 3.75642 26.1444C3.67513 26.0631 3.61064 25.9666 3.56664 25.8603C3.52265 25.7541 3.5 25.6403 3.5 25.5253C3.5 25.4103 3.52265 25.2965 3.56664 25.1903C3.61064 25.0841 3.67513 24.9875 3.75642 24.9062L9.58283 19.0809C9.74691 18.917 9.96938 18.8249 10.2013 18.8249C10.4333 18.8249 10.6558 18.917 10.8199 19.0809L10.8166 19.0777ZM18.801 18.9683C18.8823 19.0495 18.9468 19.146 18.9909 19.2523C19.0349 19.3585 19.0576 19.4724 19.0576 19.5873C19.0576 19.7023 19.0349 19.8162 18.9909 19.9224C18.9468 20.0286 18.8823 20.1251 18.801 20.2064L12.8641 26.1433C12.6999 26.3075 12.4772 26.3997 12.245 26.3997C12.0128 26.3997 11.7901 26.3075 11.626 26.1433C11.4618 25.9791 11.3695 25.7564 11.3695 25.5242C11.3695 25.292 11.4618 25.0693 11.626 24.9052L17.5639 18.9683C17.6453 18.8863 17.7422 18.8213 17.8488 18.777C17.9555 18.7327 18.0699 18.7099 18.1854 18.71C18.3009 18.7101 18.4153 18.7331 18.5218 18.7776C18.6284 18.8221 18.7252 18.8873 18.8064 18.9694L18.801 18.9683Z" fill="#C82859"/>
</svg>
