<svg width="64" height="65" viewBox="0 0 64 65" fill="none" xmlns="http://www.w3.org/2000/svg">
<g filter="url(#filter0_d_3071_11923)">
<rect x="8" y="6.63525" width="48" height="48" rx="8" fill="#FCEAEF" shape-rendering="crispEdges"/>
<path d="M34.7071 31.9276C34.6142 31.8346 34.5039 31.7608 34.3825 31.7105C34.2611 31.6602 34.131 31.6343 33.9996 31.6343C33.8682 31.6343 33.738 31.6602 33.6166 31.7105C33.4952 31.7608 33.385 31.8346 33.2921 31.9276L30.9996 34.2213L28.4133 31.6351L30.7071 29.3426C30.8947 29.1549 31.0001 28.9004 31.0001 28.6351C31.0001 28.3697 30.8947 28.1152 30.7071 27.9276C30.5194 27.7399 30.2649 27.6345 29.9996 27.6345C29.7342 27.6345 29.4797 27.7399 29.2921 27.9276L26.9996 30.2213L24.7071 27.9276C24.5194 27.7399 24.2649 27.6345 23.9996 27.6345C23.7342 27.6345 23.4797 27.7399 23.2921 27.9276C23.1044 28.1152 22.999 28.3697 22.999 28.6351C22.999 28.9004 23.1044 29.1549 23.2921 29.3426L24.0858 30.1351L21.1708 33.0488C20.7993 33.4203 20.5046 33.8613 20.3035 34.3466C20.1024 34.832 19.9989 35.3522 19.9989 35.8776C19.9989 36.4029 20.1024 36.9231 20.3035 37.4085C20.5046 37.8939 20.7993 38.3349 21.1708 38.7063L21.8433 39.3776L18.2921 42.9276C18.1992 43.0205 18.1255 43.1308 18.0752 43.2522C18.0249 43.3736 17.999 43.5037 17.999 43.6351C17.999 43.7665 18.0249 43.8966 18.0752 44.018C18.1255 44.1394 18.1992 44.2497 18.2921 44.3426C18.4797 44.5302 18.7342 44.6356 18.9996 44.6356C19.131 44.6356 19.2611 44.6097 19.3825 44.5595C19.5039 44.5092 19.6142 44.4355 19.7071 44.3426L23.2571 40.7913L23.9283 41.4638C24.2998 41.8353 24.7408 42.1301 25.2261 42.3311C25.7115 42.5322 26.2317 42.6357 26.7571 42.6357C27.2824 42.6357 27.8027 42.5322 28.288 42.3311C28.7734 42.1301 29.2144 41.8353 29.5858 41.4638L32.4996 38.5488L33.2921 39.3426C33.385 39.4355 33.4953 39.5092 33.6167 39.5595C33.7381 39.6097 33.8682 39.6356 33.9996 39.6356C34.131 39.6356 34.2611 39.6097 34.3825 39.5595C34.5039 39.5092 34.6142 39.4355 34.7071 39.3426C34.8 39.2497 34.8737 39.1394 34.924 39.018C34.9743 38.8966 35.0001 38.7665 35.0001 38.6351C35.0001 38.5037 34.9743 38.3736 34.924 38.2522C34.8737 38.1308 34.8 38.0205 34.7071 37.9276L32.4133 35.6351L34.7071 33.3426C34.8001 33.2497 34.8738 33.1394 34.9241 33.018C34.9745 32.8966 35.0004 32.7665 35.0004 32.6351C35.0004 32.5036 34.9745 32.3735 34.9241 32.2521C34.8738 32.1307 34.8001 32.0204 34.7071 31.9276ZM28.1708 40.0526C27.7958 40.4274 27.2873 40.6379 26.7571 40.6379C26.2269 40.6379 25.7184 40.4274 25.3433 40.0526L22.5858 37.2913C22.211 36.9163 22.0005 36.4078 22.0005 35.8776C22.0005 35.3474 22.211 34.8388 22.5858 34.4638L25.4996 31.5488L31.0858 37.1351L28.1708 40.0526ZM45.7071 16.9276C45.6142 16.8346 45.5039 16.7608 45.3825 16.7105C45.2611 16.6602 45.131 16.6343 44.9996 16.6343C44.8682 16.6343 44.738 16.6602 44.6166 16.7105C44.4952 16.7608 44.385 16.8346 44.2921 16.9276L40.7421 20.4788L40.0708 19.8063C39.3198 19.0575 38.3026 18.637 37.2421 18.637C36.1816 18.637 35.1643 19.0575 34.4133 19.8063L31.4996 22.7213L30.7071 21.9276C30.5194 21.7399 30.2649 21.6345 29.9996 21.6345C29.7342 21.6345 29.4797 21.7399 29.2921 21.9276C29.1044 22.1152 28.999 22.3697 28.999 22.6351C28.999 22.9004 29.1044 23.1549 29.2921 23.3426L39.2921 33.3426C39.385 33.4355 39.4953 33.5092 39.6167 33.5595C39.7381 33.6097 39.8682 33.6356 39.9996 33.6356C40.131 33.6356 40.2611 33.6097 40.3825 33.5595C40.5039 33.5092 40.6142 33.4355 40.7071 33.3426C40.8 33.2497 40.8737 33.1394 40.924 33.018C40.9743 32.8966 41.0001 32.7665 41.0001 32.6351C41.0001 32.5037 40.9743 32.3736 40.924 32.2522C40.8737 32.1308 40.8 32.0205 40.7071 31.9276L39.9133 31.1351L42.8283 28.2213C43.1999 27.8499 43.4946 27.4089 43.6957 26.9235C43.8967 26.4381 44.0002 25.9179 44.0002 25.3926C44.0002 24.8672 43.8967 24.347 43.6957 23.8616C43.4946 23.3763 43.1999 22.9353 42.8283 22.5638L42.1558 21.8926L45.7071 18.3426C45.8001 18.2497 45.8738 18.1394 45.9241 18.018C45.9745 17.8966 46.0004 17.7665 46.0004 17.6351C46.0004 17.5036 45.9745 17.3735 45.9241 17.2521C45.8738 17.1307 45.8001 17.0204 45.7071 16.9276ZM41.4133 26.8026L38.4996 29.7213L32.9133 24.1351L35.8283 21.2213C36.2034 20.8465 36.7119 20.636 37.2421 20.636C37.7723 20.636 38.2808 20.8465 38.6558 21.2213L41.4133 23.9713C41.6 24.1572 41.7482 24.378 41.8493 24.6213C41.9504 24.8646 42.0024 25.1254 42.0024 25.3888C42.0024 25.6522 41.9504 25.9131 41.8493 26.1563C41.7482 26.3996 41.6 26.6205 41.4133 26.8063V26.8026Z" fill="#C82859"/>
</g>
<defs>
<filter id="filter0_d_3071_11923" x="0" y="0.635254" width="64" height="64" filterUnits="userSpaceOnUse" color-interpolation-filters="sRGB">
<feFlood flood-opacity="0" result="BackgroundImageFix"/>
<feColorMatrix in="SourceAlpha" type="matrix" values="0 0 0 0 0 0 0 0 0 0 0 0 0 0 0 0 0 0 127 0" result="hardAlpha"/>
<feOffset dy="2"/>
<feGaussianBlur stdDeviation="4"/>
<feComposite in2="hardAlpha" operator="out"/>
<feColorMatrix type="matrix" values="0 0 0 0 0 0 0 0 0 0 0 0 0 0 0 0 0 0 0.08 0"/>
<feBlend mode="normal" in2="BackgroundImageFix" result="effect1_dropShadow_3071_11923"/>
<feBlend mode="normal" in="SourceGraphic" in2="effect1_dropShadow_3071_11923" result="shape"/>
</filter>
</defs>
</svg>
