<svg width="15" height="14" viewBox="0 0 15 14" fill="none" xmlns="http://www.w3.org/2000/svg">
<path d="M8.57251 6.5625H7.69751V3.0625H8.13501C8.59914 3.0625 9.04426 3.24687 9.37245 3.57506C9.70063 3.90325 9.88501 4.34837 9.88501 4.8125C9.88501 4.92853 9.9311 5.03981 10.0132 5.12186C10.0952 5.20391 10.2065 5.25 10.3225 5.25C10.4385 5.25 10.5498 5.20391 10.6319 5.12186C10.7139 5.03981 10.76 4.92853 10.76 4.8125C10.7593 4.11653 10.4825 3.44927 9.99037 2.95714C9.49824 2.46502 8.83098 2.18822 8.13501 2.1875H7.69751V1.3125C7.69751 1.19647 7.65142 1.08519 7.56937 1.00314C7.48732 0.921094 7.37604 0.875 7.26001 0.875C7.14398 0.875 7.0327 0.921094 6.95065 1.00314C6.8686 1.08519 6.82251 1.19647 6.82251 1.3125V2.1875H6.38501C5.68882 2.1875 5.02114 2.46406 4.52885 2.95634C4.03657 3.44863 3.76001 4.11631 3.76001 4.8125C3.76001 5.50869 4.03657 6.17637 4.52885 6.66866C5.02114 7.16094 5.68882 7.4375 6.38501 7.4375H6.82251V10.9375H5.94751C5.48338 10.9375 5.03826 10.7531 4.71007 10.4249C4.38188 10.0967 4.19751 9.65163 4.19751 9.1875C4.19751 9.07147 4.15142 8.96019 4.06937 8.87814C3.98732 8.79609 3.87604 8.75 3.76001 8.75C3.64398 8.75 3.5327 8.79609 3.45065 8.87814C3.3686 8.96019 3.32251 9.07147 3.32251 9.1875C3.32323 9.88347 3.60003 10.5507 4.09215 11.0429C4.58428 11.535 5.25154 11.8118 5.94751 11.8125H6.82251V12.6875C6.82251 12.8035 6.8686 12.9148 6.95065 12.9969C7.0327 13.0789 7.14398 13.125 7.26001 13.125C7.37604 13.125 7.48732 13.0789 7.56937 12.9969C7.65142 12.9148 7.69751 12.8035 7.69751 12.6875V11.8125H8.57251C9.2687 11.8125 9.93638 11.5359 10.4287 11.0437C10.9209 10.5514 11.1975 9.88369 11.1975 9.1875C11.1975 8.49131 10.9209 7.82363 10.4287 7.33134C9.93638 6.83906 9.2687 6.5625 8.57251 6.5625ZM6.38501 6.5625C5.92088 6.5625 5.47576 6.37813 5.14757 6.04994C4.81938 5.72175 4.63501 5.27663 4.63501 4.8125C4.63501 4.34837 4.81938 3.90325 5.14757 3.57506C5.47576 3.24687 5.92088 3.0625 6.38501 3.0625H6.82251V6.5625H6.38501ZM8.57251 10.9375H7.69751V7.4375H8.57251C9.03664 7.4375 9.48176 7.62187 9.80995 7.95006C10.1381 8.27825 10.3225 8.72337 10.3225 9.1875C10.3225 9.65163 10.1381 10.0967 9.80995 10.4249C9.48176 10.7531 9.03664 10.9375 8.57251 10.9375Z" fill="#5A5F63"/>
</svg>
