<svg width="32" height="33" viewBox="0 0 32 33" fill="none" xmlns="http://www.w3.org/2000/svg">
<path d="M16 3.68909C13.4288 3.68909 10.9154 4.45152 8.77759 5.87998C6.63975 7.30844 4.97351 9.33876 3.98957 11.7142C3.00563 14.0896 2.74819 16.7035 3.2498 19.2253C3.75141 21.747 4.98953 24.0634 6.80762 25.8815C8.6257 27.6996 10.9421 28.9377 13.4638 29.4393C15.9856 29.9409 18.5995 29.6835 20.9749 28.6995C23.3503 27.7156 25.3807 26.0493 26.8091 23.9115C28.2376 21.7737 29 19.2602 29 16.6891C28.9964 13.2424 27.6256 9.9379 25.1884 7.50072C22.7512 5.06353 19.4467 3.69273 16 3.68909ZM16 27.6891C13.8244 27.6891 11.6977 27.0439 9.88873 25.8353C8.07979 24.6266 6.66989 22.9086 5.83733 20.8986C5.00477 18.8886 4.78693 16.6769 5.21137 14.5431C5.63581 12.4093 6.68345 10.4493 8.22183 8.91091C9.76021 7.37253 11.7202 6.32489 13.854 5.90045C15.9878 5.47601 18.1995 5.69385 20.2095 6.52641C22.2195 7.35898 23.9375 8.76887 25.1462 10.5778C26.3549 12.3868 27 14.5135 27 16.6891C26.9967 19.6055 25.8367 22.4014 23.7745 24.4636C21.7123 26.5258 18.9164 27.6858 16 27.6891ZM10 14.1891C10 13.8924 10.088 13.6024 10.2528 13.3557C10.4176 13.1091 10.6519 12.9168 10.926 12.8033C11.2001 12.6897 11.5017 12.66 11.7926 12.7179C12.0836 12.7758 12.3509 12.9186 12.5607 13.1284C12.7704 13.3382 12.9133 13.6055 12.9712 13.8965C13.0291 14.1874 12.9994 14.489 12.8858 14.7631C12.7723 15.0372 12.58 15.2715 12.3334 15.4363C12.0867 15.6011 11.7967 15.6891 11.5 15.6891C11.1022 15.6891 10.7206 15.5311 10.4393 15.2497C10.158 14.9684 10 14.5869 10 14.1891ZM23 14.1891C23 14.4543 22.8946 14.7087 22.7071 14.8962C22.5196 15.0837 22.2652 15.1891 22 15.1891H19C18.7348 15.1891 18.4804 15.0837 18.2929 14.8962C18.1054 14.7087 18 14.4543 18 14.1891C18 13.9239 18.1054 13.6695 18.2929 13.482C18.4804 13.2944 18.7348 13.1891 19 13.1891H22C22.2652 13.1891 22.5196 13.2944 22.7071 13.482C22.8946 13.6695 23 13.9239 23 14.1891ZM21.865 20.1891C20.5788 22.4128 18.4413 23.6891 16 23.6891C13.5588 23.6891 11.4213 22.4141 10.1338 20.1891C10.0681 20.0753 10.0255 19.9498 10.0084 19.8195C9.99122 19.6893 9.99991 19.557 10.0339 19.4301C10.0679 19.3032 10.1266 19.1843 10.2066 19.0801C10.2865 18.9759 10.3862 18.8885 10.5 18.8228C10.6138 18.7572 10.7393 18.7146 10.8696 18.6974C10.9998 18.6803 11.1321 18.689 11.259 18.723C11.3859 18.757 11.5048 18.8157 11.609 18.8956C11.7132 18.9756 11.8006 19.0753 11.8663 19.1891C12.7988 20.8028 14.2663 21.6891 16 21.6891C17.7338 21.6891 19.2013 20.8016 20.135 19.1891C20.1975 19.0696 20.2836 18.964 20.388 18.8786C20.4924 18.7932 20.6129 18.7298 20.7425 18.6922C20.872 18.6546 21.0078 18.6436 21.1417 18.6599C21.2756 18.6762 21.4048 18.7193 21.5215 18.7868C21.6383 18.8543 21.7402 18.9448 21.8211 19.0527C21.902 19.1606 21.9603 19.2837 21.9924 19.4147C22.0245 19.5457 22.0297 19.6818 22.0078 19.8149C21.9859 19.948 21.9374 20.0753 21.865 20.1891Z" fill="#C82859"/>
</svg>
