<svg width="14" height="14" viewBox="0 0 14 14" fill="none" xmlns="http://www.w3.org/2000/svg">
<path d="M12.17 4.32618C12.177 4.44118 12.177 4.55618 12.177 4.67218C12.177 8.20918 9.494 12.2872 4.588 12.2872V12.2852C3.13824 12.2869 1.71878 11.8703 0.5 11.0852C1.19858 11.1691 1.90686 11.1143 2.58419 10.9238C3.26152 10.7333 3.89456 10.4109 4.447 9.97518C3.89027 9.96409 3.35092 9.77935 2.90431 9.44677C2.4577 9.11419 2.12615 8.65039 1.956 8.12018C2.356 8.19718 2.767 8.18118 3.16 8.07418C2.55528 7.95093 2.01181 7.62231 1.62176 7.14405C1.23172 6.66579 1.01911 6.06733 1.02 5.45018V5.41618C1.391 5.62318 1.806 5.73818 2.23 5.75118C1.66514 5.37118 1.26571 4.79079 1.11255 4.12745C0.959386 3.46412 1.06392 2.76736 1.405 2.17818C2.07333 3.00434 2.90831 3.68035 3.85547 4.16211C4.80263 4.64388 5.84071 4.92058 6.902 4.97418C6.79627 4.51767 6.8119 4.04143 6.94734 3.59283C7.08278 3.14423 7.33331 2.73891 7.674 2.41718C7.92896 2.17631 8.229 1.98818 8.55688 1.86359C8.88476 1.73901 9.23402 1.68042 9.5846 1.6912C9.93519 1.70198 10.2802 1.78191 10.5998 1.9264C10.9194 2.07089 11.2073 2.2771 11.447 2.53318C12.0446 2.41473 12.6175 2.19489 13.141 1.88318C12.941 2.50318 12.525 3.02918 11.968 3.36318C12.4971 3.30013 13.0135 3.15752 13.5 2.94018C13.1426 3.47755 12.6922 3.94689 12.17 4.32618Z" fill="#A0A3A5"/>
</svg>
