<svg width="28" height="28" viewBox="0 0 28 28" fill="none" xmlns="http://www.w3.org/2000/svg">
<path d="M13.1862 21.875H4.375V9.62501H23.625V13.125C23.625 13.3571 23.7172 13.5796 23.8813 13.7437C24.0454 13.9078 24.2679 14 24.5 14C24.7321 14 24.9546 13.9078 25.1187 13.7437C25.2828 13.5796 25.375 13.3571 25.375 13.125V9.62501C25.375 9.16088 25.1906 8.71576 24.8624 8.38757C24.5342 8.05938 24.0891 7.87501 23.625 7.87501H14.362L11.375 4.88798C11.2131 4.72477 11.0203 4.59537 10.808 4.50731C10.5956 4.41925 10.3679 4.37427 10.138 4.37501H4.375C3.91087 4.37501 3.46575 4.55938 3.13756 4.88757C2.80937 5.21576 2.625 5.66088 2.625 6.12501V21.9428C2.62558 22.3888 2.80299 22.8163 3.11834 23.1317C3.43369 23.447 3.86122 23.6244 4.30719 23.625H13.1862C13.4183 23.625 13.6409 23.5328 13.805 23.3687C13.9691 23.2046 14.0612 22.9821 14.0612 22.75C14.0612 22.5179 13.9691 22.2954 13.805 22.1313C13.6409 21.9672 13.4183 21.875 13.1862 21.875ZM10.138 6.12501L11.888 7.87501H4.375V6.12501H10.138ZM26.2095 17.4125C26.1569 17.2464 26.056 17.0999 25.9196 16.9915C25.7832 16.8832 25.6176 16.818 25.4439 16.8044L22.1802 16.5517L20.93 13.6533C20.8624 13.4961 20.7503 13.3622 20.6074 13.268C20.4645 13.1739 20.2972 13.1238 20.1261 13.1238C19.955 13.1238 19.7877 13.1739 19.6448 13.268C19.5019 13.3622 19.3897 13.4961 19.3222 13.6533L18.072 16.5517L14.8083 16.8044C14.6346 16.8181 14.4689 16.8833 14.3326 16.9917C14.1962 17.1001 14.0952 17.2468 14.0427 17.4129C13.9902 17.5791 13.9885 17.7571 14.0378 17.9242C14.0871 18.0913 14.1851 18.2399 14.3194 18.3509L16.7814 20.3842L16.0322 23.415C15.9911 23.5821 16.0001 23.7576 16.0582 23.9196C16.1163 24.0816 16.2209 24.2228 16.3589 24.3257C16.4969 24.4285 16.6621 24.4884 16.834 24.4978C17.0058 24.5072 17.1766 24.4658 17.325 24.3786L20.125 22.7303L22.9261 24.3786C23.0745 24.4658 23.2453 24.5072 23.4171 24.4978C23.5889 24.4884 23.7542 24.4285 23.8922 24.3257C24.0302 24.2228 24.1347 24.0816 24.1929 23.9196C24.251 23.7576 24.26 23.5821 24.2189 23.415L23.4697 20.3842L25.9317 18.3509C26.0663 18.24 26.1646 18.0914 26.2141 17.9242C26.2636 17.757 26.262 17.5788 26.2095 17.4125ZM21.9308 19.3813C21.8035 19.4861 21.7084 19.6248 21.6566 19.7814C21.6047 19.938 21.5982 20.106 21.6377 20.2661L22.0205 21.8105L20.5691 20.9563C20.4345 20.877 20.2812 20.8352 20.125 20.8352C19.9688 20.8352 19.8155 20.877 19.6809 20.9563L18.2295 21.8105L18.6123 20.2661C18.6518 20.106 18.6453 19.938 18.5934 19.7814C18.5416 19.6248 18.4465 19.4861 18.3192 19.3813L17.1041 18.3772L18.7327 18.2514C18.8915 18.2392 19.044 18.1839 19.1738 18.0914C19.3035 17.9988 19.4055 17.8727 19.4688 17.7264L20.125 16.2039L20.7812 17.7264C20.8445 17.8727 20.9465 17.9988 21.0762 18.0914C21.206 18.1839 21.3585 18.2392 21.5173 18.2514L23.1459 18.3772L21.9308 19.3813Z" fill="#C82859"/>
</svg>
