<svg width="71" height="30" viewBox="0 0 71 30" fill="none" xmlns="http://www.w3.org/2000/svg">
<path fill-rule="evenodd" clip-rule="evenodd" d="M70.4266 15.5904C70.4266 10.6345 68.026 6.72393 63.4377 6.72393C58.8301 6.72393 56.0423 10.6345 56.0423 15.5517C56.0423 21.3788 59.3335 24.3214 64.0573 24.3214C66.3611 24.3214 68.1034 23.7987 69.4199 23.0631V19.1912C68.1034 19.8494 66.5934 20.256 64.6768 20.256C62.7989 20.256 61.1339 19.5978 60.921 17.3134H70.3879C70.3879 17.0617 70.4266 16.055 70.4266 15.5904ZM60.8629 13.7513C60.8629 11.5637 62.1987 10.6538 63.4184 10.6538C64.5993 10.6538 65.8577 11.5637 65.8577 13.7513H60.8629ZM48.5694 6.72393C46.6722 6.72393 45.4525 7.61446 44.7749 8.23395L44.5232 7.03368H40.2641V29.6064L45.104 28.5804L45.1234 23.1018C45.8203 23.6051 46.8464 24.3214 48.5501 24.3214C52.0155 24.3214 55.1711 21.5337 55.1711 15.3968C55.1518 9.78268 51.9574 6.72393 48.5694 6.72393ZM47.4078 20.0624C46.2656 20.0624 45.588 19.6558 45.1234 19.1525L45.104 11.9703C45.6074 11.4088 46.3043 11.0217 47.4078 11.0217C49.1696 11.0217 50.3893 12.9963 50.3893 15.5323C50.3893 18.1265 49.1889 20.0624 47.4078 20.0624ZM33.6043 5.58175L38.4636 4.53635V0.606445L33.6043 1.63248V5.58175ZM33.6043 7.05304H38.4636V23.9923H33.6043V7.05304ZM28.3966 8.48562L28.0868 7.05304H23.9051V23.9923H28.745V12.5123C29.8873 11.0217 31.8232 11.2927 32.4234 11.5056V7.05304C31.8039 6.82073 29.5388 6.39483 28.3966 8.48562ZM18.7167 2.85211L13.9929 3.85878L13.9735 19.3655C13.9735 22.2306 16.1225 24.3408 18.9877 24.3408C20.5752 24.3408 21.7368 24.0504 22.3757 23.7019V19.772C21.7562 20.0237 18.6973 20.9142 18.6973 18.049V11.1765H22.3757V7.05304H18.6973L18.7167 2.85211ZM5.62947 11.9703C5.62947 11.2153 6.24898 10.9249 7.27505 10.9249C8.74639 10.9249 10.6049 11.3701 12.0763 12.1639V7.61446C10.4694 6.9756 8.88191 6.72393 7.27505 6.72393C3.34501 6.72393 0.731445 8.776 0.731445 12.2026C0.731445 17.5457 8.08816 16.6939 8.08816 18.9976C8.08816 19.8882 7.31377 20.1785 6.22962 20.1785C4.62276 20.1785 2.57062 19.5203 0.944402 18.6298V23.2373C2.74486 24.0117 4.56468 24.3408 6.22962 24.3408C10.2565 24.3408 13.0249 22.3468 13.0249 18.8815C13.0055 13.1125 5.62947 14.1385 5.62947 11.9703Z" fill="#5A5F63"/>
</svg>
