<svg width="28" height="29" viewBox="0 0 28 29" fill="none" xmlns="http://www.w3.org/2000/svg">
<path d="M12.883 18.8676C12.9634 18.9479 13.0272 19.0433 13.0707 19.1483C13.1142 19.2532 13.1366 19.3658 13.1366 19.4794C13.1366 19.593 13.1142 19.7056 13.0707 19.8105C13.0272 19.9155 12.9634 20.0109 12.883 20.0912L9.42413 23.5501C9.34382 23.6305 9.24845 23.6942 9.14347 23.7377C9.0385 23.7813 8.92598 23.8037 8.81234 23.8037C8.6987 23.8037 8.58618 23.7813 8.4812 23.7377C8.37623 23.6942 8.28086 23.6305 8.20055 23.5501L4.74169 20.0912C4.66135 20.0108 4.59762 19.9155 4.55414 19.8105C4.51066 19.7055 4.48828 19.593 4.48828 19.4794C4.48828 19.3658 4.51066 19.2533 4.55414 19.1483C4.59762 19.0433 4.66135 18.948 4.74169 18.8676C4.90395 18.7054 5.12401 18.6142 5.35348 18.6142C5.4671 18.6142 5.5796 18.6366 5.68457 18.6801C5.78954 18.7235 5.88492 18.7873 5.96526 18.8676L7.94762 20.8511V5.64396C7.94762 5.41462 8.03873 5.19468 8.20089 5.03251C8.36306 4.87035 8.583 4.77924 8.81234 4.77924C9.04168 4.77924 9.26162 4.87035 9.42378 5.03251C9.58595 5.19468 9.67705 5.41462 9.67705 5.64396V20.8511L11.6594 18.8676C11.7397 18.7872 11.8351 18.7234 11.9401 18.6799C12.045 18.6364 12.1576 18.614 12.2712 18.614C12.3848 18.614 12.4974 18.6364 12.6023 18.6799C12.7073 18.7234 12.8027 18.7872 12.883 18.8676ZM23.2596 8.49103L19.8007 5.03217C19.7204 4.95178 19.625 4.888 19.5201 4.84448C19.4151 4.80096 19.3026 4.77856 19.1889 4.77856C19.0753 4.77856 18.9628 4.80096 18.8578 4.84448C18.7528 4.888 18.6574 4.95178 18.5771 5.03217L15.1183 8.49103C14.956 8.65329 14.8649 8.87336 14.8649 9.10282C14.8649 9.33229 14.956 9.55235 15.1183 9.71461C15.2805 9.87686 15.5006 9.96802 15.7301 9.96802C15.9595 9.96802 16.1796 9.87686 16.3418 9.71461L18.3242 7.73117V22.9383C18.3242 23.1676 18.4153 23.3875 18.5775 23.5497C18.7396 23.7119 18.9596 23.803 19.1889 23.803C19.4183 23.803 19.6382 23.7119 19.8004 23.5497C19.9625 23.3875 20.0536 23.1676 20.0536 22.9383V7.73117L22.036 9.71461C22.1983 9.87686 22.4183 9.96802 22.6478 9.96802C22.8773 9.96802 23.0973 9.87686 23.2596 9.71461C23.4218 9.55235 23.513 9.33229 23.513 9.10282C23.513 8.87336 23.4218 8.65329 23.2596 8.49103Z" fill="#3B4146"/>
</svg>
