<svg width="17" height="16" viewBox="0 0 17 16" fill="none" xmlns="http://www.w3.org/2000/svg">
<path d="M15.7069 8.50001L9.50001 2.29313C9.40748 2.19987 9.29735 2.12593 9.17599 2.0756C9.05464 2.02528 8.9245 1.99959 8.79313 2.00001H3.00001C2.8674 2.00001 2.74022 2.05268 2.64645 2.14645C2.55268 2.24022 2.50001 2.3674 2.50001 2.50001V8.29313C2.49959 8.4245 2.52528 8.55464 2.5756 8.67599C2.62593 8.79735 2.69987 8.90748 2.79313 9.00001L9.00001 15.2069C9.09287 15.2998 9.20312 15.3734 9.32446 15.4237C9.4458 15.474 9.57585 15.4999 9.70719 15.4999C9.83853 15.4999 9.96859 15.474 10.0899 15.4237C10.2113 15.3734 10.3215 15.2998 10.4144 15.2069L15.7069 9.91438C15.7998 9.82152 15.8734 9.71127 15.9237 9.58993C15.974 9.46859 15.9999 9.33853 15.9999 9.20719C15.9999 9.07585 15.974 8.9458 15.9237 8.82446C15.8734 8.70312 15.7998 8.59287 15.7069 8.50001ZM5.75001 6.00001C5.60167 6.00001 5.45666 5.95602 5.33333 5.87361C5.20999 5.7912 5.11386 5.67406 5.0571 5.53702C5.00033 5.39997 4.98548 5.24917 5.01442 5.10369C5.04335 4.9582 5.11479 4.82456 5.21967 4.71967C5.32456 4.61479 5.4582 4.54335 5.60369 4.51442C5.74917 4.48548 5.89997 4.50033 6.03702 4.5571C6.17406 4.61386 6.2912 4.70999 6.37361 4.83333C6.45602 4.95666 6.50001 5.10167 6.50001 5.25001C6.50001 5.44892 6.42099 5.63968 6.28034 5.78034C6.13968 5.92099 5.94892 6.00001 5.75001 6.00001Z" fill="#C82859"/>
</svg>
