<svg width="32" height="33" viewBox="0 0 32 33" fill="none" xmlns="http://www.w3.org/2000/svg">
<path d="M29 15.1504H27.9575C27.7175 12.3247 26.486 9.67489 24.4808 7.66963C22.4755 5.66437 19.8257 4.43286 17 4.19289V3.15039C17 2.88517 16.8946 2.63082 16.7071 2.44328C16.5196 2.25575 16.2652 2.15039 16 2.15039C15.7348 2.15039 15.4804 2.25575 15.2929 2.44328C15.1054 2.63082 15 2.88517 15 3.15039V4.19289C12.1743 4.43286 9.5245 5.66437 7.51924 7.66963C5.51398 9.67489 4.28247 12.3247 4.0425 15.1504H3C2.73478 15.1504 2.48043 15.2557 2.29289 15.4433C2.10536 15.6308 2 15.8852 2 16.1504C2 16.4156 2.10536 16.67 2.29289 16.8575C2.48043 17.045 2.73478 17.1504 3 17.1504H4.0425C4.28247 19.9761 5.51398 22.6259 7.51924 24.6311C9.5245 26.6364 12.1743 27.8679 15 28.1079V29.1504C15 29.4156 15.1054 29.67 15.2929 29.8575C15.4804 30.045 15.7348 30.1504 16 30.1504C16.2652 30.1504 16.5196 30.045 16.7071 29.8575C16.8946 29.67 17 29.4156 17 29.1504V28.1079C19.8257 27.8679 22.4755 26.6364 24.4808 24.6311C26.486 22.6259 27.7175 19.9761 27.9575 17.1504H29C29.2652 17.1504 29.5196 17.045 29.7071 16.8575C29.8946 16.67 30 16.4156 30 16.1504C30 15.8852 29.8946 15.6308 29.7071 15.4433C29.5196 15.2557 29.2652 15.1504 29 15.1504ZM17 26.1004V25.1504C17 24.8852 16.8946 24.6308 16.7071 24.4433C16.5196 24.2557 16.2652 24.1504 16 24.1504C15.7348 24.1504 15.4804 24.2557 15.2929 24.4433C15.1054 24.6308 15 24.8852 15 25.1504V26.1004C12.7061 25.8663 10.5631 24.8482 8.93267 23.2177C7.30221 21.5873 6.28406 19.4443 6.05 17.1504H7C7.26522 17.1504 7.51957 17.045 7.70711 16.8575C7.89464 16.67 8 16.4156 8 16.1504C8 15.8852 7.89464 15.6308 7.70711 15.4433C7.51957 15.2557 7.26522 15.1504 7 15.1504H6.05C6.28406 12.8565 7.30221 10.7135 8.93267 9.08306C10.5631 7.4526 12.7061 6.43445 15 6.20039V7.15039C15 7.41561 15.1054 7.66996 15.2929 7.8575C15.4804 8.04503 15.7348 8.15039 16 8.15039C16.2652 8.15039 16.5196 8.04503 16.7071 7.8575C16.8946 7.66996 17 7.41561 17 7.15039V6.20039C19.2939 6.43445 21.4369 7.4526 23.0673 9.08306C24.6978 10.7135 25.7159 12.8565 25.95 15.1504H25C24.7348 15.1504 24.4804 15.2557 24.2929 15.4433C24.1054 15.6308 24 15.8852 24 16.1504C24 16.4156 24.1054 16.67 24.2929 16.8575C24.4804 17.045 24.7348 17.1504 25 17.1504H25.95C25.7159 19.4443 24.6978 21.5873 23.0673 23.2177C21.4369 24.8482 19.2939 25.8663 17 26.1004ZM16 11.1504C15.0111 11.1504 14.0444 11.4436 13.2221 11.993C12.3999 12.5424 11.759 13.3233 11.3806 14.237C11.0022 15.1506 10.9031 16.1559 11.0961 17.1258C11.289 18.0957 11.7652 18.9867 12.4645 19.6859C13.1637 20.3852 14.0546 20.8614 15.0245 21.0543C15.9945 21.2472 16.9998 21.1482 17.9134 20.7698C18.827 20.3913 19.6079 19.7505 20.1573 18.9282C20.7068 18.106 21 17.1393 21 16.1504C21 14.8243 20.4732 13.5525 19.5355 12.6149C18.5979 11.6772 17.3261 11.1504 16 11.1504ZM16 19.1504C15.4067 19.1504 14.8266 18.9744 14.3333 18.6448C13.8399 18.3152 13.4554 17.8466 13.2284 17.2984C13.0013 16.7503 12.9419 16.1471 13.0576 15.5651C13.1734 14.9832 13.4591 14.4486 13.8787 14.0291C14.2982 13.6095 14.8328 13.3238 15.4147 13.208C15.9967 13.0923 16.5999 13.1517 17.1481 13.3788C17.6962 13.6058 18.1648 13.9903 18.4944 14.4837C18.8241 14.977 19 15.557 19 16.1504C19 16.946 18.6839 17.7091 18.1213 18.2717C17.5587 18.8343 16.7956 19.1504 16 19.1504Z" fill="#C82859"/>
</svg>
