<svg width="14" height="14" viewBox="0 0 14 14" fill="none" xmlns="http://www.w3.org/2000/svg">
<path d="M10.9375 2.625H7.4375V0.875C7.4375 0.758968 7.39141 0.647688 7.30936 0.565641C7.22731 0.483594 7.11603 0.4375 7 0.4375C6.88397 0.4375 6.77269 0.483594 6.69064 0.565641C6.60859 0.647688 6.5625 0.758968 6.5625 0.875V2.625H3.0625C2.59837 2.625 2.15325 2.80937 1.82506 3.13756C1.49687 3.46575 1.3125 3.91087 1.3125 4.375V10.5C1.3125 10.9641 1.49687 11.4092 1.82506 11.7374C2.15325 12.0656 2.59837 12.25 3.0625 12.25H10.9375C11.4016 12.25 11.8467 12.0656 12.1749 11.7374C12.5031 11.4092 12.6875 10.9641 12.6875 10.5V4.375C12.6875 3.91087 12.5031 3.46575 12.1749 3.13756C11.8467 2.80937 11.4016 2.625 10.9375 2.625ZM11.8125 10.5C11.8125 10.7321 11.7203 10.9546 11.5562 11.1187C11.3921 11.2828 11.1696 11.375 10.9375 11.375H3.0625C2.83044 11.375 2.60788 11.2828 2.44378 11.1187C2.27969 10.9546 2.1875 10.7321 2.1875 10.5V4.375C2.1875 4.14294 2.27969 3.92038 2.44378 3.75628C2.60788 3.59219 2.83044 3.5 3.0625 3.5H10.9375C11.1696 3.5 11.3921 3.59219 11.5562 3.75628C11.7203 3.92038 11.8125 4.14294 11.8125 4.375V10.5ZM8.96875 7.4375H5.03125C4.62514 7.4375 4.23566 7.59883 3.94849 7.88599C3.66133 8.17316 3.5 8.56264 3.5 8.96875C3.5 9.37486 3.66133 9.76434 3.94849 10.0515C4.23566 10.3387 4.62514 10.5 5.03125 10.5H8.96875C9.37486 10.5 9.76434 10.3387 10.0515 10.0515C10.3387 9.76434 10.5 9.37486 10.5 8.96875C10.5 8.56264 10.3387 8.17316 10.0515 7.88599C9.76434 7.59883 9.37486 7.4375 8.96875 7.4375ZM7.65625 8.3125V9.625H6.34375V8.3125H7.65625ZM4.375 8.96875C4.375 8.7947 4.44414 8.62778 4.56721 8.50471C4.69028 8.38164 4.8572 8.3125 5.03125 8.3125H5.46875V9.625H5.03125C4.8572 9.625 4.69028 9.55586 4.56721 9.43279C4.44414 9.30972 4.375 9.1428 4.375 8.96875ZM8.96875 9.625H8.53125V8.3125H8.96875C9.1428 8.3125 9.30972 8.38164 9.43279 8.50471C9.55586 8.62778 9.625 8.7947 9.625 8.96875C9.625 9.1428 9.55586 9.30972 9.43279 9.43279C9.30972 9.55586 9.1428 9.625 8.96875 9.625ZM3.9375 5.90625C3.9375 5.77646 3.97599 5.64958 4.0481 5.54166C4.12021 5.43374 4.2227 5.34962 4.34261 5.29995C4.46253 5.25028 4.59448 5.23729 4.72178 5.26261C4.84908 5.28793 4.96601 5.35043 5.05779 5.44221C5.14957 5.53399 5.21207 5.65092 5.23739 5.77822C5.26271 5.90552 5.24972 6.03747 5.20005 6.15739C5.15038 6.2773 5.06626 6.37979 4.95834 6.4519C4.85042 6.52401 4.72354 6.5625 4.59375 6.5625C4.4197 6.5625 4.25278 6.49336 4.12971 6.37029C4.00664 6.24722 3.9375 6.0803 3.9375 5.90625ZM8.75 5.90625C8.75 5.77646 8.78849 5.64958 8.8606 5.54166C8.93271 5.43374 9.0352 5.34962 9.15511 5.29995C9.27503 5.25028 9.40698 5.23729 9.53428 5.26261C9.66158 5.28793 9.77851 5.35043 9.87029 5.44221C9.96207 5.53399 10.0246 5.65092 10.0499 5.77822C10.0752 5.90552 10.0622 6.03747 10.0125 6.15739C9.96288 6.2773 9.87876 6.37979 9.77084 6.4519C9.66292 6.52401 9.53604 6.5625 9.40625 6.5625C9.2322 6.5625 9.06528 6.49336 8.94221 6.37029C8.81914 6.24722 8.75 6.0803 8.75 5.90625Z" fill="#5A5F63"/>
</svg>
