<svg width="32" height="33" viewBox="0 0 32 33" fill="none" xmlns="http://www.w3.org/2000/svg">
<path d="M16 3.68909C13.4288 3.68909 10.9154 4.45152 8.77759 5.87998C6.63975 7.30844 4.97351 9.33876 3.98957 11.7142C3.00563 14.0896 2.74819 16.7035 3.2498 19.2253C3.75141 21.747 4.98953 24.0634 6.80762 25.8815C8.6257 27.6996 10.9421 28.9377 13.4638 29.4393C15.9856 29.9409 18.5995 29.6835 20.9749 28.6995C23.3503 27.7156 25.3807 26.0493 26.8091 23.9115C28.2376 21.7737 29 19.2602 29 16.6891C28.9964 13.2424 27.6256 9.9379 25.1884 7.50072C22.7512 5.06353 19.4467 3.69273 16 3.68909ZM16 27.6891C13.8244 27.6891 11.6977 27.0439 9.88873 25.8353C8.07979 24.6266 6.66989 22.9086 5.83733 20.8986C5.00477 18.8886 4.78693 16.6769 5.21137 14.5431C5.63581 12.4093 6.68345 10.4493 8.22183 8.91091C9.76021 7.37253 11.7202 6.32489 13.854 5.90045C15.9878 5.47601 18.1995 5.69385 20.2095 6.52641C22.2195 7.35898 23.9375 8.76887 25.1462 10.5778C26.3549 12.3868 27 14.5135 27 16.6891C26.9967 19.6055 25.8367 22.4014 23.7745 24.4636C21.7123 26.5258 18.9164 27.6858 16 27.6891ZM24 16.6891C24 16.9543 23.8946 17.2087 23.7071 17.3962C23.5196 17.5837 23.2652 17.6891 23 17.6891H16C15.7348 17.6891 15.4804 17.5837 15.2929 17.3962C15.1054 17.2087 15 16.9543 15 16.6891V9.68909C15 9.42387 15.1054 9.16952 15.2929 8.98198C15.4804 8.79444 15.7348 8.68909 16 8.68909C16.2652 8.68909 16.5196 8.79444 16.7071 8.98198C16.8946 9.16952 17 9.42387 17 9.68909V15.6891H23C23.2652 15.6891 23.5196 15.7944 23.7071 15.982C23.8946 16.1695 24 16.4239 24 16.6891Z" fill="#C82859"/>
</svg>
