<svg width="29" height="29" viewBox="0 0 29 29" fill="none" xmlns="http://www.w3.org/2000/svg">
<path d="M14.667 5.01025C12.5903 5.01025 10.5602 5.62607 8.83351 6.77982C7.10679 7.93358 5.76098 9.57345 4.96626 11.4921C4.17154 13.4107 3.96361 15.5219 4.36875 17.5587C4.7739 19.5955 5.77392 21.4664 7.24238 22.9349C8.71083 24.4033 10.5817 25.4034 12.6185 25.8085C14.6553 26.2136 16.7665 26.0057 18.6852 25.211C20.6038 24.4163 22.2437 23.0705 23.3974 21.3437C24.5512 19.617 25.167 17.587 25.167 15.5103C25.1638 12.7265 24.0565 10.0576 22.0881 8.08915C20.1197 6.12071 17.4508 5.01344 14.667 5.01025ZM14.667 24.2603C12.9364 24.2603 11.2447 23.7471 9.80576 22.7856C8.36683 21.8242 7.24532 20.4576 6.58305 18.8587C5.92078 17.2599 5.74751 15.5005 6.08513 13.8032C6.42275 12.1059 7.2561 10.5468 8.47981 9.32307C9.70352 8.09936 11.2626 7.266 12.96 6.92838C14.6573 6.59076 16.4166 6.76404 18.0155 7.42631C19.6143 8.08857 20.9809 9.21008 21.9424 10.649C22.9038 12.0879 23.417 13.7797 23.417 15.5103C23.4144 17.8301 22.4917 20.0542 20.8513 21.6946C19.2109 23.3349 16.9868 24.2576 14.667 24.2603ZM19.6611 10.5162C19.7424 10.5975 19.807 10.694 19.851 10.8002C19.895 10.9064 19.9177 11.0203 19.9177 11.1353C19.9177 11.2502 19.895 11.3641 19.851 11.4703C19.807 11.5765 19.7424 11.6731 19.6611 11.7543L15.2861 16.1293C15.2048 16.2106 15.1083 16.2751 15.002 16.3191C14.8958 16.3631 14.782 16.3857 14.667 16.3857C14.552 16.3857 14.4382 16.3631 14.332 16.3191C14.2257 16.2751 14.1292 16.2106 14.0479 16.1293C13.9666 16.048 13.9022 15.9515 13.8582 15.8453C13.8142 15.7391 13.7915 15.6252 13.7915 15.5103C13.7915 15.3953 13.8142 15.2814 13.8582 15.1752C13.9022 15.069 13.9666 14.9725 14.0479 14.8912L18.4229 10.5162C18.5042 10.4348 18.6007 10.3703 18.7069 10.3263C18.8131 10.2822 18.927 10.2596 19.042 10.2596C19.157 10.2596 19.2708 10.2822 19.3771 10.3263C19.4833 10.3703 19.5798 10.4348 19.6611 10.5162ZM11.167 2.38525C11.167 2.15319 11.2592 1.93063 11.4233 1.76654C11.5874 1.60244 11.8099 1.51025 12.042 1.51025H17.292C17.5241 1.51025 17.7466 1.60244 17.9107 1.76654C18.0748 1.93063 18.167 2.15319 18.167 2.38525C18.167 2.61732 18.0748 2.83988 17.9107 3.00397C17.7466 3.16807 17.5241 3.26025 17.292 3.26025H12.042C11.8099 3.26025 11.5874 3.16807 11.4233 3.00397C11.2592 2.83988 11.167 2.61732 11.167 2.38525Z" fill="#C82859"/>
</svg>
