<svg width="24" height="25" viewBox="0 0 24 25" fill="none" xmlns="http://www.w3.org/2000/svg">
<rect y="0.849609" width="24" height="24" rx="4" fill="#DC2C62"/>
<path d="M14.018 7.98361V7.98145H14.5807L14.7863 8.02251C14.9234 8.04916 15.0478 8.0841 15.1596 8.12732C15.2714 8.17054 15.3796 8.22097 15.4842 8.2786C15.5888 8.33623 15.6837 8.39494 15.7688 8.45473C15.8532 8.51381 15.929 8.57648 15.996 8.64275C16.0624 8.70974 16.1659 8.72703 16.3066 8.69462C16.4473 8.6622 16.5987 8.61717 16.761 8.55955C16.9234 8.50192 17.0839 8.43709 17.2426 8.36504C17.4013 8.293 17.4979 8.24726 17.5326 8.22781C17.5665 8.20765 17.5845 8.19684 17.5867 8.1954L17.5888 8.19215L17.5996 8.18675L17.6105 8.18135L17.6213 8.17595L17.6321 8.17054L17.6343 8.1673L17.6375 8.16514L17.6408 8.16298L17.6429 8.15974L17.6537 8.1565L17.6646 8.15433L17.6624 8.17054L17.6592 8.18675L17.6537 8.20296L17.6483 8.21917L17.6429 8.22997L17.6375 8.24078L17.6321 8.25699C17.6285 8.26779 17.6249 8.2822 17.6213 8.30021C17.6177 8.31822 17.5834 8.39025 17.5185 8.51632C17.4536 8.64239 17.3724 8.77025 17.275 8.89992C17.1776 9.02959 17.0904 9.12755 17.0132 9.19383C16.9353 9.26083 16.8837 9.30765 16.8584 9.33431C16.8332 9.36168 16.8025 9.38689 16.7665 9.40995L16.7124 9.4456L16.7015 9.45101L16.6907 9.45641L16.6886 9.45965L16.6853 9.46181L16.6821 9.46397L16.6799 9.46722L16.6691 9.47262L16.6583 9.47802L16.6561 9.48126L16.6528 9.48342L16.6496 9.48559L16.6474 9.48883L16.6453 9.49207L16.642 9.49423L16.6388 9.49639L16.6366 9.49963H16.6907L16.9937 9.4348C17.1957 9.39158 17.3886 9.33935 17.5726 9.27812L17.8647 9.18087L17.8972 9.17006L17.9134 9.16466L17.9243 9.15926L17.9351 9.15385L17.9459 9.14845L17.9567 9.14305L17.9784 9.13981L18 9.13765V9.15926L17.9946 9.16142L17.9892 9.16466L17.987 9.1679L17.9838 9.17006L17.9805 9.17222L17.9784 9.17546L17.9762 9.17871L17.9729 9.18087L17.9697 9.18303L17.9675 9.18627L17.9654 9.18951L17.9621 9.19167L17.9567 9.20248L17.9513 9.21328L17.9481 9.21545C17.9466 9.21761 17.9008 9.27883 17.8106 9.39914C17.7205 9.52016 17.6718 9.58139 17.6646 9.58284C17.6574 9.585 17.6472 9.5958 17.6343 9.61525C17.622 9.63542 17.5455 9.71574 17.4049 9.85622C17.2642 9.99669 17.1264 10.1217 16.9915 10.2312C16.8559 10.3414 16.7874 10.4768 16.7859 10.6375C16.7838 10.7974 16.7755 10.9782 16.761 11.1799C16.7466 11.3816 16.7196 11.5995 16.6799 11.8336C16.6402 12.0678 16.5789 12.3325 16.4959 12.6279C16.413 12.9232 16.312 13.2114 16.193 13.4923C16.0739 13.7732 15.9495 14.0254 15.8197 14.2487C15.6898 14.472 15.5708 14.6611 15.4626 14.816C15.3544 14.9709 15.2444 15.1167 15.1326 15.2536C15.0207 15.3905 14.8794 15.5447 14.7084 15.7161C14.5367 15.8868 14.4429 15.9805 14.4271 15.997C14.4105 16.0129 14.3398 16.072 14.215 16.1743C14.0909 16.2773 13.9574 16.3803 13.8146 16.4833C13.6725 16.5856 13.5419 16.671 13.4229 16.7394C13.3039 16.8078 13.1603 16.886 12.9922 16.9739C12.8249 17.0625 12.6438 17.1446 12.4491 17.2202C12.2543 17.2959 12.0487 17.3661 11.8323 17.4309C11.6159 17.4958 11.4067 17.5462 11.2047 17.5822C11.0027 17.6182 10.7737 17.6489 10.5176 17.6741L10.1335 17.7119V17.7173H9.43012V17.7119L9.33814 17.7065C9.27683 17.7029 9.22633 17.6993 9.18665 17.6957C9.14699 17.6921 8.99729 17.6723 8.7376 17.6363C8.47791 17.6002 8.27412 17.5642 8.12624 17.5282C7.97837 17.4922 7.75834 17.4237 7.46619 17.3229C7.17403 17.222 6.92408 17.1201 6.71632 17.0171C6.50929 16.9148 6.37944 16.85 6.32678 16.8226C6.27484 16.7959 6.21641 16.7628 6.15149 16.7232L6.0541 16.6637L6.05195 16.6605L6.04869 16.6583L6.04545 16.6562L6.04328 16.6529L6.03246 16.6475L6.02164 16.6421L6.01949 16.6389L6.01623 16.6367L6.01298 16.6346L6.01082 16.6313L6.00867 16.6281L6.00541 16.6259H6V16.6043L6.01082 16.6065L6.02164 16.6097L6.07033 16.6151C6.1028 16.6187 6.19117 16.6241 6.33544 16.6313C6.47972 16.6385 6.633 16.6385 6.79531 16.6313C6.95762 16.6241 7.12354 16.6079 7.29306 16.5827C7.46258 16.5575 7.66276 16.5143 7.8936 16.453C8.12444 16.3918 8.33653 16.319 8.52986 16.2348C8.72246 16.1498 8.85952 16.0864 8.94104 16.0446C9.02183 16.0035 9.14518 15.9272 9.31109 15.8155L9.55996 15.648L9.56213 15.6448L9.56537 15.6426L9.56863 15.6405L9.57078 15.6372L9.57295 15.634L9.57619 15.6318L9.57945 15.6297L9.58161 15.6264L9.59243 15.6232L9.60325 15.621L9.60541 15.6102L9.60866 15.5994L9.61191 15.5972L9.61407 15.594L9.5275 15.5886C9.4698 15.585 9.41389 15.5814 9.35978 15.5778C9.30568 15.5742 9.22092 15.558 9.1055 15.5292C8.99009 15.5003 8.86565 15.4571 8.73219 15.3995C8.59874 15.3419 8.46889 15.2734 8.34265 15.1942C8.21642 15.1149 8.12516 15.049 8.06889 14.9964C8.01335 14.9446 7.94121 14.8711 7.85248 14.776C7.76448 14.6802 7.68801 14.5819 7.62308 14.481C7.55816 14.3802 7.49613 14.2638 7.43698 14.132L7.34716 13.9353L7.34175 13.9191L7.33634 13.9029L7.33309 13.8921L7.33093 13.8813L7.34716 13.8835L7.36339 13.8867L7.48242 13.9029C7.56177 13.9137 7.68621 13.9173 7.85573 13.9137C8.02525 13.9101 8.14247 13.9029 8.20739 13.8921C8.27232 13.8813 8.312 13.8741 8.32642 13.8705L8.34806 13.8651L8.37511 13.8597L8.40216 13.8543L8.40433 13.851L8.40757 13.8489L8.41083 13.8467L8.41298 13.8435L8.39134 13.8381L8.3697 13.8327L8.34806 13.8273L8.32642 13.8219L8.30478 13.8165C8.29036 13.8129 8.26511 13.8057 8.22904 13.7949C8.19297 13.7841 8.09559 13.7444 7.93688 13.676C7.77819 13.6076 7.65194 13.5409 7.55816 13.4761C7.46415 13.4111 7.3745 13.34 7.28981 13.2632C7.20541 13.1854 7.11272 13.0853 7.01172 12.9628C6.91073 12.8404 6.82057 12.6981 6.74121 12.536C6.66186 12.3739 6.60235 12.219 6.56267 12.0714C6.52315 11.9246 6.49708 11.7745 6.48477 11.6229L6.46528 11.396L6.4761 11.3982L6.48693 11.4014L6.49775 11.4068L6.50857 11.4122L6.51939 11.4176L6.53021 11.423L6.69793 11.4987C6.80975 11.5491 6.94861 11.5923 7.11452 11.6283C7.28044 11.6644 7.37962 11.6842 7.41208 11.6878L7.46078 11.6932H7.55816L7.55601 11.6899L7.55275 11.6878L7.5495 11.6856L7.54734 11.6824L7.54519 11.6791L7.54193 11.677L7.53868 11.6748L7.53652 11.6716L7.5257 11.6662L7.51488 11.6608L7.51272 11.6575L7.50947 11.6554L7.50622 11.6532L7.50406 11.6499L7.49324 11.6445L7.48242 11.6391L7.48026 11.6359C7.4781 11.6345 7.44708 11.6114 7.3872 11.5667C7.32804 11.5214 7.26601 11.4627 7.20108 11.3906C7.13616 11.3186 7.07124 11.2429 7.00631 11.1637C6.94127 11.0843 6.88334 10.9993 6.83318 10.9098C6.78269 10.8197 6.72931 10.7052 6.67304 10.5661C6.6175 10.4278 6.5753 10.2884 6.54644 10.148C6.51759 10.0075 6.50136 9.86883 6.49775 9.73195C6.49414 9.59508 6.49775 9.47802 6.50857 9.38077C6.51939 9.28352 6.54103 9.17366 6.57349 9.0512C6.60595 8.92874 6.65285 8.79907 6.71416 8.6622L6.80613 8.45689L6.81154 8.44068L6.81695 8.42448L6.82021 8.42231L6.82236 8.41907L6.82453 8.41583L6.82777 8.41367L6.83103 8.41583L6.83318 8.41907L6.83535 8.42231L6.83859 8.42448L6.84185 8.42664L6.844 8.42988L6.84617 8.43312L6.84941 8.43528L6.85482 8.44609L6.86023 8.45689L6.86349 8.45905L6.86564 8.46229L7.01172 8.62438C7.10911 8.73243 7.22453 8.8531 7.35798 8.98637C7.49144 9.11963 7.56538 9.18879 7.5798 9.19383C7.59424 9.19959 7.61226 9.21616 7.6339 9.24354C7.65555 9.2702 7.72769 9.33395 7.85032 9.4348C7.97296 9.53565 8.13346 9.65272 8.33183 9.78598C8.53021 9.91925 8.75023 10.0507 8.99188 10.1804C9.23355 10.3101 9.49324 10.4271 9.77096 10.5316C10.0487 10.636 10.2435 10.7045 10.3553 10.7369C10.4671 10.7693 10.6583 10.8107 10.9288 10.8611C11.1993 10.9116 11.4031 10.944 11.5401 10.9584C11.6772 10.9728 11.771 10.9811 11.8215 10.9832L11.8972 10.9854L11.8951 10.9692L11.8918 10.953L11.8702 10.8179C11.8557 10.7279 11.8485 10.6018 11.8485 10.4397C11.8485 10.2776 11.8611 10.1282 11.8864 9.99129C11.9116 9.85441 11.9495 9.71574 12 9.57527C12.0505 9.4348 12.0999 9.32205 12.1482 9.23706C12.1973 9.15277 12.2615 9.0566 12.3408 8.94855C12.4202 8.84049 12.523 8.72884 12.6492 8.61357C12.7755 8.49831 12.9197 8.39566 13.0821 8.30561C13.2444 8.21557 13.3941 8.14713 13.5311 8.10031C13.6682 8.05349 13.7836 8.02286 13.8774 8.00846C13.9711 7.99406 14.018 7.98577 14.018 7.98361Z" fill="white"/>
</svg>
