<svg width="28" height="29" viewBox="0 0 28 29" fill="none" xmlns="http://www.w3.org/2000/svg">
<path d="M21.8755 7.15039V18.5254C21.8755 18.7575 21.7833 18.98 21.6192 19.1441C21.4551 19.3082 21.2326 19.4004 21.0005 19.4004C20.7684 19.4004 20.5459 19.3082 20.3818 19.1441C20.2177 18.98 20.1255 18.7575 20.1255 18.5254V9.26242L7.61955 21.7695C7.45536 21.9336 7.23268 22.0259 7.00049 22.0259C6.76829 22.0259 6.54561 21.9336 6.38142 21.7695C6.21724 21.6053 6.125 21.3826 6.125 21.1504C6.125 20.9182 6.21724 20.6955 6.38142 20.5313L18.8885 8.02539H9.62549C9.39342 8.02539 9.17086 7.9332 9.00677 7.76911C8.84267 7.60501 8.75049 7.38246 8.75049 7.15039C8.75049 6.91833 8.84267 6.69577 9.00677 6.53167C9.17086 6.36758 9.39342 6.27539 9.62549 6.27539H21.0005C21.2326 6.27539 21.4551 6.36758 21.6192 6.53167C21.7833 6.69577 21.8755 6.91833 21.8755 7.15039Z" fill="#C82859"/>
</svg>
