<svg width="64" height="65" viewBox="0 0 64 65" fill="none" xmlns="http://www.w3.org/2000/svg">
<g filter="url(#filter0_d_3209_13736)">
<rect x="8" y="6.12646" width="48" height="48" rx="8" fill="#FCEAEF" shape-rendering="crispEdges"/>
<path d="M47.9997 31.1266C47.9997 31.3918 47.8943 31.6462 47.7068 31.8337C47.5192 32.0212 47.2649 32.1266 46.9997 32.1266H44.9997V34.1266C44.9997 34.3918 44.8943 34.6462 44.7068 34.8337C44.5192 35.0212 44.2649 35.1266 43.9997 35.1266C43.7345 35.1266 43.4801 35.0212 43.2926 34.8337C43.105 34.6462 42.9997 34.3918 42.9997 34.1266V32.1266H40.9997C40.7345 32.1266 40.4801 32.0212 40.2926 31.8337C40.105 31.6462 39.9997 31.3918 39.9997 31.1266C39.9997 30.8614 40.105 30.607 40.2926 30.4195C40.4801 30.2319 40.7345 30.1266 40.9997 30.1266H42.9997V28.1266C42.9997 27.8614 43.105 27.607 43.2926 27.4195C43.4801 27.2319 43.7345 27.1266 43.9997 27.1266C44.2649 27.1266 44.5192 27.2319 44.7068 27.4195C44.8943 27.607 44.9997 27.8614 44.9997 28.1266V30.1266H46.9997C47.2649 30.1266 47.5192 30.2319 47.7068 30.4195C47.8943 30.607 47.9997 30.8614 47.9997 31.1266ZM40.7659 38.4828C40.9367 38.6861 41.0197 38.9488 40.9967 39.2132C40.9737 39.4776 40.8466 39.7221 40.6434 39.8928C40.4402 40.0636 40.1775 40.1466 39.9131 40.1236C39.6486 40.1006 39.4042 39.9736 39.2334 39.7703C36.7184 36.7753 33.2609 35.1266 29.4997 35.1266C25.7384 35.1266 22.2809 36.7753 19.7659 39.7703C19.5952 39.9734 19.3508 40.1003 19.0865 40.1232C18.8222 40.146 18.5596 40.0629 18.3566 39.8922C18.1535 39.7215 18.0266 39.4771 18.0037 39.2128C17.9809 38.9485 18.0639 38.6859 18.2347 38.4828C20.1022 36.2603 22.4247 34.6816 25.0059 33.8366C23.4383 32.8602 22.2313 31.3998 21.5676 29.6764C20.9039 27.953 20.8195 26.0603 21.3272 24.2846C21.835 22.509 22.9072 20.947 24.3818 19.8351C25.8563 18.7231 27.6529 18.1216 29.4997 18.1216C31.3465 18.1216 33.1431 18.7231 34.6176 19.8351C36.0921 20.947 37.1644 22.509 37.6721 24.2846C38.1799 26.0603 38.0955 27.953 37.4318 29.6764C36.768 31.3998 35.561 32.8602 33.9934 33.8366C36.5747 34.6816 38.8972 36.2603 40.7659 38.4828ZM29.4997 33.1266C30.7853 33.1266 32.042 32.7454 33.1109 32.0311C34.1798 31.3169 35.0129 30.3017 35.5049 29.114C35.9969 27.9263 36.1256 26.6194 35.8748 25.3585C35.624 24.0976 35.0049 22.9394 34.0959 22.0304C33.1868 21.1213 32.0286 20.5023 30.7678 20.2515C29.5069 20.0007 28.2 20.1294 27.0122 20.6214C25.8245 21.1133 24.8094 21.9465 24.0951 23.0154C23.3809 24.0843 22.9997 25.341 22.9997 26.6266C23.0017 28.3499 23.6871 30.002 24.9057 31.2206C26.1242 32.4391 27.7764 33.1246 29.4997 33.1266Z" fill="#C82859"/>
</g>
<defs>
<filter id="filter0_d_3209_13736" x="0" y="0.126465" width="64" height="64" filterUnits="userSpaceOnUse" color-interpolation-filters="sRGB">
<feFlood flood-opacity="0" result="BackgroundImageFix"/>
<feColorMatrix in="SourceAlpha" type="matrix" values="0 0 0 0 0 0 0 0 0 0 0 0 0 0 0 0 0 0 127 0" result="hardAlpha"/>
<feOffset dy="2"/>
<feGaussianBlur stdDeviation="4"/>
<feComposite in2="hardAlpha" operator="out"/>
<feColorMatrix type="matrix" values="0 0 0 0 0 0 0 0 0 0 0 0 0 0 0 0 0 0 0.08 0"/>
<feBlend mode="normal" in2="BackgroundImageFix" result="effect1_dropShadow_3209_13736"/>
<feBlend mode="normal" in="SourceGraphic" in2="effect1_dropShadow_3209_13736" result="shape"/>
</filter>
</defs>
</svg>
