<svg width="17" height="16" viewBox="0 0 17 16" fill="none" xmlns="http://www.w3.org/2000/svg">
<path d="M7.8284 9.87006C8.49853 9.42393 9.00729 8.77398 9.27946 8.01634C9.55164 7.25869 9.57276 6.43357 9.33972 5.663C9.10668 4.89242 8.63184 4.21729 7.98542 3.73745C7.339 3.25761 6.55532 2.99854 5.75028 2.99854C4.94523 2.99854 4.16155 3.25761 3.51513 3.73745C2.86871 4.21729 2.39388 4.89242 2.16083 5.663C1.92779 6.43357 1.94892 7.25869 2.22109 8.01634C2.49326 8.77398 3.00202 9.42393 3.67215 9.87006C2.45996 10.3168 1.42472 11.1436 0.7209 12.2269C0.68391 12.2819 0.658217 12.3437 0.645313 12.4087C0.63241 12.4737 0.632555 12.5406 0.645738 12.6055C0.658922 12.6705 0.684882 12.7321 0.722109 12.787C0.759336 12.8418 0.807088 12.8886 0.862589 12.9248C0.91809 12.961 0.980233 12.9858 1.04541 12.9978C1.11058 13.0098 1.17748 13.0087 1.24222 12.9946C1.30697 12.9805 1.36826 12.9536 1.42254 12.9156C1.47682 12.8776 1.523 12.8292 1.5584 12.7732C2.01239 12.0749 2.63362 11.5011 3.36567 11.1039C4.09772 10.7067 4.9174 10.4987 5.75028 10.4987C6.58315 10.4987 7.40283 10.7067 8.13488 11.1039C8.86693 11.5011 9.48816 12.0749 9.94215 12.7732C10.0155 12.8822 10.1288 12.9579 10.2575 12.9841C10.3863 13.0102 10.5201 12.9846 10.6301 12.9129C10.7402 12.8411 10.8175 12.7289 10.8455 12.6005C10.8735 12.4722 10.8498 12.338 10.7797 12.2269C10.0758 11.1436 9.04059 10.3168 7.8284 9.87006ZM3.00028 6.75006C3.00028 6.20616 3.16156 5.67447 3.46373 5.22224C3.76591 4.77 4.1954 4.41753 4.6979 4.20939C5.20039 4.00125 5.75333 3.94679 6.28677 4.0529C6.82022 4.15901 7.31022 4.42092 7.69482 4.80551C8.07941 5.19011 8.34133 5.68011 8.44743 6.21356C8.55354 6.74701 8.49908 7.29994 8.29094 7.80244C8.0828 8.30493 7.73033 8.73442 7.27809 9.0366C6.82586 9.33877 6.29417 9.50006 5.75028 9.50006C5.02118 9.49923 4.32219 9.20923 3.80664 8.69369C3.2911 8.17814 3.0011 7.47915 3.00028 6.75006ZM16.134 12.9188C16.023 12.9912 15.8877 13.0166 15.7579 12.9893C15.6282 12.962 15.5146 12.8842 15.4422 12.7732C14.9887 12.0745 14.3676 11.5005 13.6354 11.1034C12.9032 10.7064 12.0832 10.4989 11.2503 10.5001C11.1177 10.5001 10.9905 10.4474 10.8967 10.3536C10.803 10.2598 10.7503 10.1327 10.7503 10.0001C10.7503 9.86745 10.803 9.74027 10.8967 9.6465C10.9905 9.55273 11.1177 9.50006 11.2503 9.50006C11.6553 9.49967 12.0552 9.40985 12.4214 9.237C12.7876 9.06416 13.1112 8.81255 13.3689 8.50017C13.6266 8.18778 13.8122 7.82233 13.9123 7.42992C14.0124 7.03751 14.0247 6.62783 13.9481 6.23015C13.8715 5.83247 13.7081 5.45661 13.4694 5.12943C13.2307 4.80225 12.9228 4.53181 12.5675 4.33745C12.2122 4.14309 11.8183 4.02961 11.4141 4.0051C11.0099 3.98059 10.6052 4.04567 10.229 4.19568C10.1677 4.2222 10.1017 4.23615 10.0348 4.23671C9.96803 4.23728 9.90178 4.22444 9.84001 4.19897C9.77823 4.1735 9.72219 4.1359 9.6752 4.0884C9.6282 4.0409 9.5912 3.98447 9.56639 3.92243C9.54157 3.86039 9.52944 3.794 9.53071 3.72719C9.53199 3.66039 9.54664 3.59451 9.57381 3.53346C9.60097 3.47242 9.64009 3.41743 9.68887 3.37176C9.73764 3.32609 9.79508 3.29066 9.85778 3.26756C10.7187 2.92421 11.6763 2.91186 12.5457 3.23287C13.4152 3.55389 14.135 4.18553 14.5663 5.00594C14.9975 5.82635 15.1097 6.77741 14.8811 7.67563C14.6525 8.57385 14.0994 9.3556 13.3284 9.87006C14.5406 10.3168 15.5758 11.1436 16.2797 12.2269C16.3521 12.338 16.3774 12.4733 16.3501 12.603C16.3228 12.7328 16.2451 12.8464 16.134 12.9188Z" fill="#3B4146"/>
</svg>
