<svg width="44" height="45" viewBox="0 0 44 45" fill="none" xmlns="http://www.w3.org/2000/svg">
<rect y="0.850098" width="44" height="44" rx="8" fill="#FCEAEF"/>
<path d="M22 13.1001C20.0716 13.1001 18.1866 13.6719 16.5832 14.7433C14.9798 15.8146 13.7301 17.3374 12.9922 19.1189C12.2542 20.9005 12.0611 22.8609 12.4373 24.7522C12.8136 26.6435 13.7422 28.3808 15.1057 29.7444C16.4693 31.108 18.2066 32.0365 20.0979 32.4128C21.9892 32.789 23.9496 32.5959 25.7312 31.8579C27.5127 31.12 29.0355 29.8703 30.1068 28.2669C31.1782 26.6635 31.75 24.7785 31.75 22.8501C31.747 20.2652 30.7188 17.7869 28.891 15.9591C27.0632 14.1313 24.585 13.1031 22 13.1001ZM30.25 22.8501C30.2507 23.6109 30.1456 24.3682 29.9378 25.1001H26.3275C26.5575 23.6089 26.5575 22.0913 26.3275 20.6001H29.9378C30.1456 21.332 30.2507 22.0893 30.25 22.8501ZM19.5625 26.6001H24.4375C23.9572 28.1738 23.1235 29.6168 22 30.8188C20.877 29.6165 20.0433 28.1736 19.5625 26.6001ZM19.1969 25.1001C18.9394 23.6111 18.9394 22.089 19.1969 20.6001H24.8106C25.0681 22.089 25.0681 23.6111 24.8106 25.1001H19.1969ZM13.75 22.8501C13.7494 22.0893 13.8544 21.332 14.0622 20.6001H17.6725C17.4425 22.0913 17.4425 23.6089 17.6725 25.1001H14.0622C13.8544 24.3682 13.7494 23.6109 13.75 22.8501ZM24.4375 19.1001H19.5625C20.0428 17.5264 20.8765 16.0834 22 14.8813C23.1231 16.0837 23.9567 17.5266 24.4375 19.1001ZM29.3434 19.1001H26.0041C25.5832 17.5559 24.8738 16.1054 23.9134 14.8251C25.0738 15.1038 26.1602 15.6302 27.098 16.3681C28.0359 17.106 28.8032 18.0379 29.3472 19.1001H29.3434ZM20.0866 14.8251C19.1262 16.1054 18.4168 17.5559 17.9959 19.1001H14.6528C15.1968 18.0379 15.9641 17.106 16.902 16.3681C17.8399 15.6302 18.9262 15.1038 20.0866 14.8251ZM14.6528 26.6001H17.9959C18.4168 28.1442 19.1262 29.5948 20.0866 30.8751C18.9262 30.5964 17.8399 30.07 16.902 29.3321C15.9641 28.5942 15.1968 27.6623 14.6528 26.6001ZM23.9134 30.8751C24.8738 29.5948 25.5832 28.1442 26.0041 26.6001H29.3472C28.8032 27.6623 28.0359 28.5942 27.098 29.3321C26.1602 30.07 25.0738 30.5964 23.9134 30.8751Z" fill="#DC2C62"/>
</svg>
