<svg width="14" height="14" viewBox="0 0 14 14" fill="none" xmlns="http://www.w3.org/2000/svg">
<path d="M7 1.3125C5.87512 1.3125 4.7755 1.64607 3.8402 2.27102C2.90489 2.89597 2.17591 3.78423 1.74544 4.82349C1.31496 5.86274 1.20233 7.00631 1.42179 8.10958C1.64124 9.21284 2.18292 10.2263 2.97833 11.0217C3.77374 11.8171 4.78716 12.3588 5.89043 12.5782C6.99369 12.7977 8.13726 12.685 9.17651 12.2546C10.2158 11.8241 11.104 11.0951 11.729 10.1598C12.3539 9.2245 12.6875 8.12488 12.6875 7C12.6859 5.49207 12.0862 4.04636 11.0199 2.98009C9.95365 1.91382 8.50793 1.31409 7 1.3125ZM11.8125 7C11.813 7.61741 11.6941 8.22909 11.4625 8.80141L9.01797 7.29805C8.91403 7.23391 8.79777 7.19236 8.67672 7.17609L7.42875 7.00766C7.25679 6.98523 7.08203 7.01406 6.92638 7.09052C6.77073 7.16699 6.64111 7.28769 6.55375 7.4375H6.07688L5.86906 7.00766C5.81161 6.88797 5.72753 6.78301 5.62326 6.70083C5.519 6.61865 5.3973 6.56141 5.2675 6.53352L4.83 6.43891L5.25766 5.6875H6.17149C6.31936 5.68721 6.46476 5.64959 6.59422 5.57812L7.26414 5.20844C7.323 5.17563 7.37803 5.13638 7.42821 5.09141L8.89985 3.76031C9.04739 3.62808 9.14546 3.44951 9.17787 3.25406C9.21028 3.0586 9.1751 2.85793 9.07813 2.68516L9.05844 2.64961C9.88192 3.04008 10.5778 3.65607 11.0653 4.42611C11.5527 5.19614 11.8118 6.08863 11.8125 7ZM2.1875 7C2.18677 6.2847 2.34636 5.57832 2.65453 4.93281L3.27469 6.5882C3.32637 6.72526 3.41163 6.84716 3.52266 6.9427C3.63369 7.03825 3.76693 7.1044 3.91016 7.13508L5.08211 7.38719L5.29047 7.82031C5.36278 7.96762 5.47485 8.09178 5.614 8.17875C5.75316 8.26573 5.91387 8.31205 6.07797 8.3125H6.15891L5.76352 9.20008C5.69385 9.35636 5.67154 9.52965 5.69934 9.69848C5.72714 9.86732 5.80383 10.0243 5.91992 10.15L5.92758 10.1577L7 11.2623L6.89391 11.8092C5.6371 11.78 4.44148 11.2607 3.56219 10.3622C2.68291 9.46371 2.18959 8.25715 2.1875 7Z" fill="#5A5F63"/>
</svg>
