<svg width="29" height="29" viewBox="0 0 29 29" fill="none" xmlns="http://www.w3.org/2000/svg">
<path d="M14.668 2.77539C12.4182 2.77539 10.219 3.44252 8.34836 4.69242C6.47775 5.94232 5.01979 7.71886 4.15884 9.79737C3.2979 11.8759 3.07263 14.163 3.51154 16.3695C3.95045 18.5761 5.03381 20.6029 6.62463 22.1937C8.21546 23.7846 10.2423 24.8679 12.4488 25.3068C14.6554 25.7457 16.9425 25.5205 19.021 24.6595C21.0995 23.7986 22.876 22.3406 24.1259 20.47C25.3758 18.5994 26.043 16.4002 26.043 14.1504C26.0395 11.1346 24.84 8.24336 22.7075 6.11089C20.575 3.97841 17.6837 2.77886 14.668 2.77539ZM24.293 14.1504C24.2937 15.038 24.1712 15.9215 23.9288 16.7754H19.7167C19.9851 15.0357 19.9851 13.2651 19.7167 11.5254H23.9288C24.1712 12.3793 24.2937 13.2627 24.293 14.1504ZM11.8242 18.5254H17.5117C16.9514 20.3613 15.9787 22.0449 14.668 23.4473C13.3577 22.0445 12.3851 20.3611 11.8242 18.5254ZM11.3977 16.7754C11.0973 15.0383 11.0973 13.2625 11.3977 11.5254H17.947C18.2474 13.2625 18.2474 15.0383 17.947 16.7754H11.3977ZM5.04297 14.1504C5.04221 13.2627 5.16479 12.3793 5.40719 11.5254H9.61922C9.35089 13.2651 9.35089 15.0357 9.61922 16.7754H5.40719C5.16479 15.9215 5.04221 15.038 5.04297 14.1504ZM17.5117 9.77539H11.8242C12.3845 7.93943 13.3572 6.2559 14.668 4.85352C15.9782 6.25627 16.9508 7.93968 17.5117 9.77539ZM23.2353 9.77539H19.3394C18.8483 7.97388 18.0208 6.2816 16.9003 4.78789C18.2541 5.11309 19.5215 5.72718 20.6157 6.58805C21.7099 7.44891 22.605 8.53621 23.2397 9.77539H23.2353ZM12.4356 4.78789C11.3152 6.2816 10.4876 7.97388 9.99657 9.77539H6.09626C6.73093 8.53621 7.62605 7.44891 8.72026 6.58805C9.81447 5.72718 11.0819 5.11309 12.4356 4.78789ZM6.09626 18.5254H9.99657C10.4876 20.3269 11.3152 22.0192 12.4356 23.5129C11.0819 23.1877 9.81447 22.5736 8.72026 21.7127C7.62605 20.8519 6.73093 19.7646 6.09626 18.5254ZM16.9003 23.5129C18.0208 22.0192 18.8483 20.3269 19.3394 18.5254H23.2397C22.605 19.7646 21.7099 20.8519 20.6157 21.7127C19.5215 22.5736 18.2541 23.1877 16.9003 23.5129Z" fill="#C82859"/>
</svg>
