<svg width="14" height="14" viewBox="0 0 14 14" fill="none" xmlns="http://www.w3.org/2000/svg">
<path d="M7 1.3125C5.87512 1.3125 4.7755 1.64607 3.8402 2.27102C2.90489 2.89597 2.17591 3.78423 1.74544 4.82349C1.31496 5.86274 1.20233 7.00631 1.42179 8.10958C1.64124 9.21284 2.18292 10.2263 2.97833 11.0217C3.77374 11.8171 4.78716 12.3588 5.89043 12.5782C6.99369 12.7977 8.13726 12.685 9.17651 12.2546C10.2158 11.8241 11.104 11.0951 11.729 10.1598C12.3539 9.2245 12.6875 8.12488 12.6875 7C12.6858 5.49211 12.086 4.04649 11.0198 2.98025C9.95352 1.91401 8.50789 1.31424 7 1.3125ZM11.8125 7C11.8129 7.44382 11.7516 7.88555 11.6304 8.3125H9.52438C9.65855 7.44264 9.65855 6.55736 9.52438 5.6875H11.6304C11.7516 6.11445 11.8129 6.55618 11.8125 7ZM5.57813 9.1875H8.42188C8.14172 10.1055 7.65537 10.9472 7 11.6484C6.34489 10.9471 5.85857 10.1054 5.57813 9.1875ZM5.36485 8.3125C5.21464 7.44395 5.21464 6.55605 5.36485 5.6875H8.63953C8.78974 6.55605 8.78974 7.44395 8.63953 8.3125H5.36485ZM2.1875 7C2.18712 6.55618 2.24841 6.11445 2.36961 5.6875H4.47563C4.34146 6.55736 4.34146 7.44264 4.47563 8.3125H2.36961C2.24841 7.88555 2.18712 7.44382 2.1875 7ZM8.42188 4.8125H5.57813C5.85829 3.89452 6.34464 3.05276 7 2.35156C7.65512 3.05294 8.14143 3.89464 8.42188 4.8125ZM11.2837 4.8125H9.33571C9.09019 3.91175 8.67639 3.0656 8.11617 2.31875C8.79305 2.48135 9.42676 2.78839 9.97386 3.21883C10.521 3.64926 10.9685 4.19291 11.2859 4.8125H11.2837ZM5.88383 2.31875C5.32361 3.0656 4.90982 3.91175 4.6643 4.8125H2.71414C3.03148 4.19291 3.47904 3.64926 4.02614 3.21883C4.57325 2.78839 5.20696 2.48135 5.88383 2.31875ZM2.71414 9.1875H4.6643C4.90982 10.0883 5.32361 10.9344 5.88383 11.6813C5.20696 11.5186 4.57325 11.2116 4.02614 10.7812C3.47904 10.3507 3.03148 9.80709 2.71414 9.1875ZM8.11617 11.6813C8.67639 10.9344 9.09019 10.0883 9.33571 9.1875H11.2859C10.9685 9.80709 10.521 10.3507 9.97386 10.7812C9.42676 11.2116 8.79305 11.5186 8.11617 11.6813Z" fill="#5A5F63"/>
</svg>
