<svg width="38" height="38" viewBox="0 0 38 38" fill="none" xmlns="http://www.w3.org/2000/svg">
<rect width="38" height="38" rx="5.03226" fill="#DC2C62"/>
<path d="M19.7364 27.7717C17.6229 27.7717 16.0528 27.0622 15.0262 25.6431C14.0148 24.2089 13.509 22.1935 13.509 19.5968C13.509 17.0002 14.0148 14.9923 15.0262 13.5732C16.0528 12.139 17.6229 11.4219 19.7364 11.4219C20.5517 11.4219 21.2688 11.5352 21.8877 11.7616C22.5218 11.973 23.0653 12.2749 23.5182 12.6674C23.9711 13.0599 24.341 13.5355 24.6278 14.0941C24.9297 14.6526 25.1637 15.2792 25.3298 15.9736L22.1595 16.7435C22.0689 16.3661 21.9632 16.0189 21.8424 15.7019C21.7217 15.3848 21.5631 15.1131 21.3669 14.8866C21.1857 14.6602 20.9517 14.4866 20.6649 14.3658C20.3931 14.2299 20.061 14.162 19.6685 14.162C18.7476 14.162 18.0909 14.5243 17.6984 15.249C17.321 15.9585 17.1322 16.9474 17.1322 18.2155V20.9782C17.1322 22.2463 17.321 23.2427 17.6984 23.9674C18.0909 24.6769 18.7476 25.0317 19.6685 25.0317C20.4535 25.0317 21.0197 24.7901 21.3669 24.307C21.7292 23.8239 21.9934 23.205 22.1595 22.4501L25.3298 23.2201C25.1637 23.9145 24.9297 24.541 24.6278 25.0996C24.341 25.6582 23.9711 26.1413 23.5182 26.5489C23.0653 26.9414 22.5218 27.2434 21.8877 27.4547C21.2688 27.6661 20.5517 27.7717 19.7364 27.7717Z" fill="white"/>
</svg>
